Charis-Regular.ufo
<glyph name="ExclamationMrk" format="2">
  <advance width="692"/>
  <unicode hex="0021"/>
  <outline>
    <contour>
      <point x="471" y="1274" type="line"/>
      <point x="471" y="1356"/>
      <point x="432" y="1407"/>
      <point x="346" y="1407" type="curve" smooth="yes"/>
      <point x="260" y="1407"/>
      <point x="221" y="1356"/>
      <point x="221" y="1274" type="curve"/>
      <point x="297" y="371" type="line"/>
      <point x="397" y="371" type="line"/>
    </contour>
    <contour>
      <point x="473" y="102" type="curve" smooth="yes"/>
      <point x="473" y="172"/>
      <point x="416" y="227"/>
      <point x="346" y="227" type="curve" smooth="yes"/>
      <point x="276" y="227"/>
      <point x="221" y="172"/>
      <point x="221" y="102" type="curve" smooth="yes"/>
      <point x="221" y="35"/>
      <point x="276" y="-25"/>
      <point x="346" y="-25" type="curve" smooth="yes"/>
      <point x="416" y="-25"/>
      <point x="473" y="35"/>
    </contour>
  </outline>
</glyph>
<glyph name="NumSgn" format="2">
  <advance width="1522"/>
  <unicode hex="0023"/>
  <outline>
    <contour>
      <point x="1397" y="862" type="line"/>
      <point x="1397" y="967" type="line"/>
      <point x="1110" y="967" type="line"/>
      <point x="1266" y="1417" type="line"/>
      <point x="1157" y="1450" type="line"/>
      <point x="995" y="967" type="line"/>
      <point x="696" y="967" type="line"/>
      <point x="854" y="1417" type="line"/>
      <point x="750" y="1450" type="line"/>
      <point x="586" y="967" type="line"/>
      <point x="219" y="967" type="line"/>
      <point x="219" y="862" type="line"/>
      <point x="551" y="862" type="line"/>
      <point x="451" y="569" type="line"/>
      <point x="127" y="569" type="line"/>
      <point x="127" y="467" type="line"/>
      <point x="418" y="467" type="line"/>
      <point x="254" y="-12" type="line"/>
      <point x="354" y="-47" type="line"/>
      <point x="528" y="467" type="line"/>
      <point x="825" y="467" type="line"/>
      <point x="666" y="-14" type="line"/>
      <point x="768" y="-47" type="line"/>
      <point x="940" y="467" type="line"/>
      <point x="1307" y="467" type="line"/>
      <point x="1307" y="569" type="line"/>
      <point x="977" y="569" type="line"/>
      <point x="1073" y="862" type="line"/>
    </contour>
    <contour>
      <point x="961" y="862" type="line"/>
      <point x="860" y="569" type="line"/>
      <point x="563" y="569" type="line"/>
      <point x="664" y="862" type="line"/>
    </contour>
  </outline>
</glyph>
<glyph name="Ampersand" format="2">
  <advance width="1432"/>
  <unicode hex="0026"/>
  <outline>
    <contour>
      <point x="1391" y="0" type="line"/>
      <point x="1391" y="88" type="line"/>
      <point x="1208" y="98" type="line"/>
      <point x="1042" y="289" type="line"/>
      <point x="1102" y="371"/>
      <point x="1178" y="496"/>
      <point x="1217" y="635" type="curve"/>
      <point x="1364" y="657" type="line"/>
      <point x="1364" y="743" type="line"/>
      <point x="944" y="743" type="line"/>
      <point x="944" y="657" type="line"/>
      <point x="1055" y="641" type="line" smooth="yes"/>
      <point x="1073" y="639"/>
      <point x="1092" y="614"/>
      <point x="1090" y="602" type="curve" smooth="yes"/>
      <point x="1079" y="522"/>
      <point x="1018" y="418"/>
      <point x="975" y="362" type="curve"/>
      <point x="631" y="733" type="line"/>
      <point x="780" y="801"/>
      <point x="932" y="891"/>
      <point x="932" y="1092" type="curve" smooth="yes"/>
      <point x="932" y="1270"/>
      <point x="778" y="1401"/>
      <point x="571" y="1401" type="curve" smooth="yes"/>
      <point x="350" y="1401"/>
      <point x="182" y="1260"/>
      <point x="182" y="1055" type="curve" smooth="yes"/>
      <point x="182" y="901"/>
      <point x="309" y="786"/>
      <point x="354" y="741" type="curve"/>
      <point x="193" y="674"/>
      <point x="80" y="561"/>
      <point x="80" y="381" type="curve" smooth="yes"/>
      <point x="80" y="147"/>
      <point x="272" y="-25"/>
      <point x="506" y="-25" type="curve" smooth="yes"/>
      <point x="698" y="-25"/>
      <point x="815" y="68"/>
      <point x="922" y="152" type="curve"/>
      <point x="1014" y="49" type="line"/>
      <point x="1014" y="0" type="line"/>
    </contour>
    <contour>
      <point x="743" y="1079" type="curve" smooth="yes"/>
      <point x="743" y="942"/>
      <point x="676" y="862"/>
      <point x="557" y="803" type="curve"/>
      <point x="483" y="874"/>
      <point x="367" y="971"/>
      <point x="367" y="1108" type="curve" smooth="yes"/>
      <point x="367" y="1214"/>
      <point x="440" y="1300"/>
      <point x="551" y="1300" type="curve" smooth="yes"/>
      <point x="682" y="1300"/>
      <point x="743" y="1196"/>
    </contour>
    <contour>
      <point x="856" y="223" type="line"/>
      <point x="786" y="164"/>
      <point x="709" y="109"/>
      <point x="584" y="109" type="curve" smooth="yes"/>
      <point x="418" y="109"/>
      <point x="287" y="244"/>
      <point x="287" y="428" type="curve" smooth="yes"/>
      <point x="287" y="551"/>
      <point x="352" y="625"/>
      <point x="434" y="682" type="curve"/>
    </contour>
  </outline>
</glyph>
<glyph name="FullStop" format="2">
  <advance width="573"/>
  <unicode hex="002E"/>
  <outline>
    <contour>
      <point x="401" y="113" type="curve" smooth="yes"/>
      <point x="401" y="188"/>
      <point x="338" y="250"/>
      <point x="262" y="250" type="curve" smooth="yes"/>
      <point x="186" y="250"/>
      <point x="125" y="188"/>
      <point x="125" y="113" type="curve" smooth="yes"/>
      <point x="125" y="37"/>
      <point x="186" y="-25"/>
      <point x="262" y="-25" type="curve" smooth="yes"/>
      <point x="338" y="-25"/>
      <point x="401" y="37"/>
    </contour>
  </outline>
</glyph>
<glyph name="Solidus" format="2">
  <advance width="1004"/>
  <unicode hex="002F"/>
  <outline>
    <contour>
      <point x="1004" y="1374" type="line"/>
      <point x="872" y="1374" type="line"/>
      <point x="0" y="-190" type="line"/>
      <point x="131" y="-190" type="line"/>
    </contour>
  </outline>
</glyph>
<glyph name="DigitZero" format="2">
  <advance width="1153"/>
  <unicode hex="0030"/>
  <anchor x="576" y="-100" name="L"/>
  <anchor x="576" y="1500" name="U"/>
  <outline>
    <contour>
      <point x="1071" y="686" type="curve" smooth="yes"/>
      <point x="1071" y="1077"/>
      <point x="909" y="1407"/>
      <point x="575" y="1407" type="curve" smooth="yes"/>
      <point x="242" y="1407"/>
      <point x="82" y="1077"/>
      <point x="82" y="686" type="curve" smooth="yes"/>
      <point x="82" y="295"/>
      <point x="242" y="-33"/>
      <point x="575" y="-33" type="curve" smooth="yes"/>
      <point x="909" y="-33"/>
      <point x="1071" y="295"/>
    </contour>
    <contour>
      <point x="854" y="686" type="curve" smooth="yes"/>
      <point x="854" y="379"/>
      <point x="793" y="70"/>
      <point x="575" y="70" type="curve" smooth="yes"/>
      <point x="358" y="70"/>
      <point x="297" y="379"/>
      <point x="297" y="686" type="curve" smooth="yes"/>
      <point x="297" y="993"/>
      <point x="358" y="1305"/>
      <point x="575" y="1305" type="curve" smooth="yes"/>
      <point x="793" y="1305"/>
      <point x="854" y="993"/>
    </contour>
  </outline>
</glyph>
<glyph name="DigitOne" format="2">
  <advance width="1153"/>
  <unicode hex="0031"/>
  <anchor x="576" y="-100" name="L"/>
  <anchor x="576" y="1500" name="U"/>
  <outline>
    <contour>
      <point x="913" y="0" type="line"/>
      <point x="913" y="92" type="line"/>
      <point x="721" y="100" type="line" smooth="yes"/>
      <point x="696" y="100"/>
      <point x="676" y="121"/>
      <point x="676" y="145" type="curve" smooth="yes"/>
      <point x="676" y="1407" type="line"/>
      <point x="598" y="1407" type="line"/>
      <point x="156" y="1270" type="line"/>
      <point x="156" y="1178" type="line"/>
      <point x="473" y="1233" type="line"/>
      <point x="473" y="145" type="line" smooth="yes"/>
      <point x="473" y="121"/>
      <point x="453" y="100"/>
      <point x="428" y="100" type="curve" smooth="yes"/>
      <point x="221" y="92" type="line"/>
      <point x="221" y="0" type="line"/>
    </contour>
  </outline>
</glyph>
<glyph name="DigitTwo" format="2">
  <advance width="1153"/>
  <unicode hex="0032"/>
  <anchor x="576" y="-100" name="L"/>
  <anchor x="576" y="1500" name="U"/>
  <outline>
    <contour>
      <point x="1057" y="0" type="line"/>
      <point x="1057" y="348" type="line"/>
      <point x="956" y="348" type="line"/>
      <point x="920" y="172" type="line"/>
      <point x="313" y="172" type="line"/>
      <point x="725" y="488"/>
      <point x="1032" y="740"/>
      <point x="1032" y="1008" type="curve" smooth="yes"/>
      <point x="1032" y="1245"/>
      <point x="842" y="1407"/>
      <point x="575" y="1407" type="curve" smooth="yes"/>
      <point x="336" y="1407"/>
      <point x="125" y="1274"/>
      <point x="125" y="1102" type="curve" smooth="yes"/>
      <point x="125" y="1020"/>
      <point x="184" y="981"/>
      <point x="248" y="981" type="curve" smooth="yes"/>
      <point x="296" y="981"/>
      <point x="331" y="1004"/>
      <point x="348" y="1016" type="curve"/>
      <point x="348" y="1243" type="line"/>
      <point x="383" y="1264"/>
      <point x="442" y="1296"/>
      <point x="518" y="1296" type="curve" smooth="yes"/>
      <point x="678" y="1296"/>
      <point x="811" y="1184"/>
      <point x="811" y="987" type="curve" smooth="yes"/>
      <point x="811" y="734"/>
      <point x="608" y="553"/>
      <point x="96" y="137" type="curve"/>
      <point x="96" y="0" type="line"/>
    </contour>
  </outline>
</glyph>
<glyph name="DigitSix" format="2">
  <advance width="1153"/>
  <unicode hex="0036"/>
  <anchor x="576" y="-100" name="L"/>
  <anchor x="576" y="1500" name="U"/>
  <outline>
    <contour>
      <point x="1071" y="469" type="curve" smooth="yes"/>
      <point x="1071" y="713"/>
      <point x="903" y="895"/>
      <point x="645" y="895" type="curve" smooth="yes"/>
      <point x="530" y="895"/>
      <point x="416" y="864"/>
      <point x="303" y="766" type="curve"/>
      <point x="346" y="1092"/>
      <point x="571" y="1290"/>
      <point x="831" y="1282" type="curve" smooth="yes"/>
      <point x="901" y="1280" type="line"/>
      <point x="901" y="1407" type="line"/>
      <point x="381" y="1407"/>
      <point x="82" y="1077"/>
      <point x="82" y="588" type="curve" smooth="yes"/>
      <point x="82" y="139"/>
      <point x="297" y="-33"/>
      <point x="573" y="-33" type="curve" smooth="yes"/>
      <point x="850" y="-33"/>
      <point x="1071" y="170"/>
    </contour>
    <contour>
      <point x="862" y="442" type="curve" smooth="yes"/>
      <point x="862" y="238"/>
      <point x="770" y="74"/>
      <point x="573" y="74" type="curve" smooth="yes"/>
      <point x="377" y="74"/>
      <point x="293" y="268"/>
      <point x="293" y="547" type="curve" smooth="yes"/>
      <point x="293" y="578"/>
      <point x="293" y="616"/>
      <point x="297" y="659" type="curve"/>
      <point x="377" y="721"/>
      <point x="485" y="762"/>
      <point x="573" y="762" type="curve" smooth="yes"/>
      <point x="754" y="762"/>
      <point x="862" y="643"/>
    </contour>
  </outline>
</glyph>
<glyph name="DigitSeven" format="2">
  <advance width="1153"/>
  <unicode hex="0037"/>
  <anchor x="576" y="-100" name="L"/>
  <anchor x="576" y="1500" name="U"/>
  <outline>
    <contour>
      <point x="1107" y="1260" type="line"/>
      <point x="1107" y="1374" type="line"/>
      <point x="126" y="1374" type="line"/>
      <point x="126" y="1014" type="line"/>
      <point x="230" y="1014" type="line"/>
      <point x="263" y="1200" type="line"/>
      <point x="894" y="1200" type="line"/>
      <point x="218" y="-33" type="line"/>
      <point x="435" y="-33" type="line"/>
      <point x="435" y="35" type="line"/>
    </contour>
  </outline>
</glyph>
<glyph name="DigitEight" format="2">
  <advance width="1153"/>
  <unicode hex="0038"/>
  <anchor x="575" y="-100" name="L"/>
  <anchor x="575" y="1500" name="U"/>
  <outline>
    <contour>
      <point x="1069" y="373" type="curve" smooth="yes"/>
      <point x="1069" y="580"/>
      <point x="895" y="676"/>
      <point x="764" y="723" type="curve"/>
      <point x="868" y="774"/>
      <point x="1014" y="881"/>
      <point x="1014" y="1055" type="curve" smooth="yes"/>
      <point x="1014" y="1253"/>
      <point x="825" y="1407"/>
      <point x="575" y="1407" type="curve" smooth="yes"/>
      <point x="313" y="1407"/>
      <point x="137" y="1257"/>
      <point x="137" y="1022" type="curve" smooth="yes"/>
      <point x="137" y="860"/>
      <point x="262" y="756"/>
      <point x="375" y="711" type="curve"/>
      <point x="223" y="653"/>
      <point x="82" y="555"/>
      <point x="82" y="369" type="curve" smooth="yes"/>
      <point x="82" y="137"/>
      <point x="274" y="-33"/>
      <point x="575" y="-33" type="curve" smooth="yes"/>
      <point x="858" y="-33"/>
      <point x="1069" y="139"/>
    </contour>
    <contour>
      <point x="825" y="1036" type="curve" smooth="yes"/>
      <point x="825" y="911"/>
      <point x="760" y="823"/>
      <point x="676" y="762" type="curve"/>
      <point x="465" y="840"/>
      <point x="340" y="926"/>
      <point x="340" y="1069" type="curve" smooth="yes"/>
      <point x="340" y="1192"/>
      <point x="436" y="1303"/>
      <point x="575" y="1303" type="curve" smooth="yes"/>
      <point x="711" y="1303"/>
      <point x="825" y="1204"/>
    </contour>
    <contour>
      <point x="862" y="340" type="curve" smooth="yes"/>
      <point x="862" y="203"/>
      <point x="752" y="78"/>
      <point x="575" y="78" type="curve" smooth="yes"/>
      <point x="377" y="78"/>
      <point x="272" y="209"/>
      <point x="272" y="385" type="curve" smooth="yes"/>
      <point x="272" y="532"/>
      <point x="354" y="610"/>
      <point x="457" y="666" type="curve"/>
      <point x="715" y="565"/>
      <point x="862" y="506"/>
    </contour>
  </outline>
</glyph>
<glyph name="QstnMrk" format="2">
  <advance width="995"/>
  <unicode hex="003F"/>
  <outline>
    <contour>
      <point x="854" y="1040" type="curve" smooth="yes"/>
      <point x="854" y="1264"/>
      <point x="670" y="1407"/>
      <point x="428" y="1407" type="curve" smooth="yes"/>
      <point x="205" y="1407"/>
      <point x="102" y="1303"/>
      <point x="102" y="1206" type="curve" smooth="yes"/>
      <point x="102" y="1128"/>
      <point x="162" y="1096"/>
      <point x="236" y="1096" type="curve" smooth="yes"/>
      <point x="239" y="1096"/>
      <point x="257" y="1097"/>
      <point x="270" y="1098" type="curve"/>
      <point x="354" y="1307" type="line"/>
      <point x="541" y="1307"/>
      <point x="647" y="1214"/>
      <point x="647" y="1024" type="curve" smooth="yes"/>
      <point x="647" y="821"/>
      <point x="479" y="709"/>
      <point x="350" y="666" type="curve"/>
      <point x="350" y="369" type="line"/>
      <point x="465" y="369" type="line"/>
      <point x="465" y="596" type="line"/>
      <point x="623" y="666"/>
      <point x="854" y="780"/>
    </contour>
    <contour>
      <point x="537" y="100" type="curve" smooth="yes"/>
      <point x="537" y="170"/>
      <point x="481" y="227"/>
      <point x="410" y="227" type="curve" smooth="yes"/>
      <point x="340" y="227"/>
      <point x="285" y="172"/>
      <point x="285" y="102" type="curve" smooth="yes"/>
      <point x="285" y="33"/>
      <point x="340" y="-25"/>
      <point x="410" y="-25" type="curve" smooth="yes"/>
      <point x="479" y="-25"/>
      <point x="537" y="31"/>
    </contour>
  </outline>
</glyph>
<glyph name="LtnCapD" format="2">
  <advance width="1425"/>
  <unicode hex="0044"/>
  <anchor x="690" y="-100" name="L"/>
  <anchor x="690" y="1500" name="U"/>
  <outline>
    <contour>
      <point x="1346" y="690" type="curve" smooth="yes"/>
      <point x="1346" y="1163"/>
      <point x="1024" y="1374"/>
      <point x="594" y="1374" type="curve" smooth="yes"/>
      <point x="66" y="1374" type="line"/>
      <point x="66" y="1286" type="line"/>
      <point x="174" y="1278" type="line" smooth="yes"/>
      <point x="203" y="1276"/>
      <point x="219" y="1253"/>
      <point x="219" y="1233" type="curve" smooth="yes"/>
      <point x="219" y="141" type="line" smooth="yes"/>
      <point x="219" y="121"/>
      <point x="203" y="98"/>
      <point x="174" y="96" type="curve" smooth="yes"/>
      <point x="66" y="88" type="line"/>
      <point x="66" y="0" type="line"/>
      <point x="635" y="0" type="line" smooth="yes"/>
      <point x="1149" y="0"/>
      <point x="1346" y="332"/>
    </contour>
    <contour>
      <point x="1114" y="686" type="curve" smooth="yes"/>
      <point x="1114" y="264"/>
      <point x="907" y="104"/>
      <point x="592" y="100" type="curve" smooth="yes"/>
      <point x="426" y="98" type="line"/>
      <point x="426" y="1276" type="line"/>
      <point x="582" y="1276" type="line" smooth="yes"/>
      <point x="905" y="1276"/>
      <point x="1114" y="1116"/>
    </contour>
  </outline>
</glyph>
<glyph name="LtnCapI" format="2">
  <advance width="676"/>
  <unicode hex="0049"/>
  <anchor x="338" y="0" name="H"/>
  <anchor x="338" y="-100" name="L"/>
  <anchor x="494" y="0" name="O"/>
  <anchor x="676" y="1200" name="R"/>
  <anchor x="338" y="1500" name="U"/>
  <outline>
    <contour>
      <point x="608" y="0" type="line"/>
      <point x="608" y="88" type="line"/>
      <point x="483" y="96" type="line" smooth="yes"/>
      <point x="455" y="98"/>
      <point x="440" y="121"/>
      <point x="440" y="141" type="curve" smooth="yes"/>
      <point x="440" y="1233" type="line" smooth="yes"/>
      <point x="440" y="1253"/>
      <point x="455" y="1274"/>
      <point x="483" y="1276" type="curve" smooth="yes"/>
      <point x="608" y="1284" type="line"/>
      <point x="608" y="1374" type="line"/>
      <point x="68" y="1374" type="line"/>
      <point x="68" y="1284" type="line"/>
      <point x="190" y="1276" type="line" smooth="yes"/>
      <point x="219" y="1274"/>
      <point x="233" y="1253"/>
      <point x="233" y="1233" type="curve" smooth="yes"/>
      <point x="233" y="141" type="line" smooth="yes"/>
      <point x="233" y="121"/>
      <point x="219" y="98"/>
      <point x="190" y="96" type="curve" smooth="yes"/>
      <point x="68" y="88" type="line"/>
      <point x="68" y="0" type="line"/>
    </contour>
  </outline>
</glyph>
<glyph name="LtnCapO" format="2">
  <advance width="1497"/>
  <unicode hex="004F"/>
  <anchor x="748" y="0" name="H"/>
  <anchor x="748" y="-100" name="L"/>
  <anchor x="1005" y="0" name="O"/>
  <anchor x="1487" y="1350" name="R"/>
  <anchor x="748" y="1500" name="U"/>
  <outline>
    <contour>
      <point x="1417" y="686" type="curve" smooth="yes"/>
      <point x="1417" y="1083"/>
      <point x="1153" y="1407"/>
      <point x="748" y="1407" type="curve" smooth="yes"/>
      <point x="340" y="1407"/>
      <point x="80" y="1087"/>
      <point x="80" y="688" type="curve" smooth="yes"/>
      <point x="80" y="276"/>
      <point x="348" y="-33"/>
      <point x="750" y="-33" type="curve" smooth="yes"/>
      <point x="1151" y="-33"/>
      <point x="1417" y="289"/>
    </contour>
    <contour>
      <point x="1180" y="684" type="curve" smooth="yes"/>
      <point x="1180" y="360"/>
      <point x="1040" y="80"/>
      <point x="745" y="80" type="curve" smooth="yes"/>
      <point x="455" y="80"/>
      <point x="315" y="360"/>
      <point x="315" y="688" type="curve" smooth="yes"/>
      <point x="315" y="1014"/>
      <point x="453" y="1290"/>
      <point x="750" y="1290" type="curve" smooth="yes"/>
      <point x="1036" y="1290"/>
      <point x="1180" y="1018"/>
    </contour>
  </outline>
</glyph>
<glyph name="LtnCapQ" format="2">
  <advance width="1513"/>
  <unicode hex="0051"/>
  <anchor x="757" y="-500" name="L"/>
  <anchor x="757" y="1500" name="U"/>
  <outline>
    <contour>
      <point x="1044" y="-371" type="curve" smooth="yes"/>
      <point x="1168" y="-371"/>
      <point x="1319" y="-343"/>
      <point x="1348" y="-336" type="curve"/>
      <point x="1348" y="-248" type="line"/>
      <point x="1329" y="-253"/>
      <point x="1231" y="-270"/>
      <point x="1151" y="-270" type="curve" smooth="yes"/>
      <point x="963" y="-270"/>
      <point x="870" y="-176"/>
      <point x="868" y="-23" type="curve"/>
      <point x="1223" y="35"/>
      <point x="1434" y="317"/>
      <point x="1434" y="686" type="curve" smooth="yes"/>
      <point x="1434" y="1090"/>
      <point x="1169" y="1407"/>
      <point x="754" y="1407" type="curve" smooth="yes"/>
      <point x="344" y="1407"/>
      <point x="80" y="1087"/>
      <point x="80" y="686" type="curve" smooth="yes"/>
      <point x="80" y="285"/>
      <point x="322" y="20"/>
      <point x="649" y="-27" type="curve"/>
      <point x="649" y="-238"/>
      <point x="756" y="-371"/>
    </contour>
    <contour>
      <point x="756" y="80" type="curve" smooth="yes"/>
      <point x="463" y="80"/>
      <point x="319" y="369"/>
      <point x="319" y="690" type="curve" smooth="yes"/>
      <point x="319" y="1016"/>
      <point x="457" y="1292"/>
      <point x="756" y="1292" type="curve" smooth="yes"/>
      <point x="1057" y="1292"/>
      <point x="1192" y="1008"/>
      <point x="1192" y="686" type="curve" smooth="yes"/>
      <point x="1192" y="365"/>
      <point x="1051" y="80"/>
    </contour>
  </outline>
</glyph>
<glyph name="LftSqrBrac" format="2">
  <advance width="866"/>
  <unicode hex="005B"/>
  <outline>
    <contour>
      <point x="776" y="-270" type="line"/>
      <point x="776" y="-176" type="line"/>
      <point x="457" y="-176" type="line"/>
      <point x="457" y="1358" type="line"/>
      <point x="776" y="1358" type="line"/>
      <point x="776" y="1450" type="line"/>
      <point x="279" y="1450" type="line"/>
      <point x="279" y="-270" type="line"/>
    </contour>
  </outline>
</glyph>
<glyph name="LtnSmF" format="2">
  <advance width="668"/>
  <unicode hex="0066"/>
  <anchor x="298" y="0" name="H"/>
  <anchor x="298" y="-100" name="L"/>
  <anchor x="506" y="1580" name="U"/>
  <outline>
    <contour>
      <point x="797" y="1386" type="curve" smooth="yes"/>
      <point x="797" y="1452"/>
      <point x="737" y="1509"/>
      <point x="621" y="1509" type="curve" smooth="yes"/>
      <point x="487" y="1509"/>
      <point x="352" y="1436"/>
      <point x="272" y="1282" type="curve" smooth="yes"/>
      <point x="221" y="1184"/>
      <point x="203" y="1110"/>
      <point x="203" y="975" type="curve"/>
      <point x="72" y="938" type="line"/>
      <point x="72" y="866" type="line"/>
      <point x="203" y="866" type="line"/>
      <point x="203" y="131" type="line" smooth="yes"/>
      <point x="203" y="106"/>
      <point x="184" y="87"/>
      <point x="160" y="86" type="curve" smooth="yes"/>
      <point x="59" y="80" type="line"/>
      <point x="59" y="0" type="line"/>
      <point x="557" y="0" type="line"/>
      <point x="557" y="80" type="line"/>
      <point x="436" y="86" type="line" smooth="yes"/>
      <point x="412" y="87"/>
      <point x="393" y="106"/>
      <point x="393" y="131" type="curve" smooth="yes"/>
      <point x="393" y="866" type="line"/>
      <point x="647" y="866" type="line"/>
      <point x="647" y="971" type="line"/>
      <point x="393" y="971" type="line"/>
      <point x="393" y="1102" type="line" smooth="yes"/>
      <point x="393" y="1294"/>
      <point x="455" y="1378"/>
      <point x="514" y="1409" type="curve"/>
      <point x="702" y="1276" type="line"/>
      <point x="717" y="1280"/>
      <point x="797" y="1303"/>
    </contour>
  </outline>
</glyph>
<glyph name="LtnSmI" format="2">
  <advance width="621"/>
  <unicode hex="0069"/>
  <anchor x="310" y="0" name="H"/>
  <anchor x="316" y="-100" name="L"/>
  <anchor x="466" y="0" name="O"/>
  <anchor x="621" y="1000" name="R"/>
  <anchor x="310" y="1500" name="U"/>
  <outline>
    <contour>
      <point x="446" y="1325" type="curve" smooth="yes"/>
      <point x="446" y="1395"/>
      <point x="391" y="1450"/>
      <point x="322" y="1450" type="curve" smooth="yes"/>
      <point x="252" y="1450"/>
      <point x="195" y="1395"/>
      <point x="195" y="1325" type="curve" smooth="yes"/>
      <point x="195" y="1255"/>
      <point x="252" y="1198"/>
      <point x="322" y="1198" type="curve" smooth="yes"/>
      <point x="391" y="1198"/>
      <point x="446" y="1255"/>
    </contour>
    <contour>
      <point x="551" y="0" type="line"/>
      <point x="551" y="80" type="line"/>
      <point x="446" y="86" type="line" smooth="yes"/>
      <point x="422" y="87"/>
      <point x="403" y="106"/>
      <point x="403" y="131" type="curve" smooth="yes"/>
      <point x="403" y="1012" type="line"/>
      <point x="322" y="1012" type="line"/>
      <point x="72" y="934" type="line"/>
      <point x="72" y="862" type="line"/>
      <point x="213" y="862" type="line"/>
      <point x="213" y="131" type="line" smooth="yes"/>
      <point x="213" y="106"/>
      <point x="195" y="88"/>
      <point x="170" y="86" type="curve" smooth="yes"/>
      <point x="70" y="80" type="line"/>
      <point x="70" y="0" type="line"/>
    </contour>
  </outline>
</glyph>
<glyph name="LtnSmN" format="2">
  <advance width="1161"/>
  <unicode hex="006E"/>
  <anchor x="892" y="0" name="H"/>
  <anchor x="580" y="-100" name="L"/>
  <anchor x="580" y="1100" name="U"/>
  <outline>
    <contour>
      <point x="1120" y="0" type="line"/>
      <point x="1120" y="80" type="line"/>
      <point x="1030" y="86" type="line" smooth="yes"/>
      <point x="1006" y="88"/>
      <point x="987" y="106"/>
      <point x="987" y="131" type="curve" smooth="yes"/>
      <point x="987" y="696" type="line" smooth="yes"/>
      <point x="987" y="895"/>
      <point x="891" y="1012"/>
      <point x="713" y="1012" type="curve" smooth="yes"/>
      <point x="618" y="1012"/>
      <point x="489" y="950"/>
      <point x="375" y="885" type="curve"/>
      <point x="375" y="987" type="line"/>
      <point x="291" y="987" type="line"/>
      <point x="41" y="909" type="line"/>
      <point x="41" y="842" type="line"/>
      <point x="184" y="842" type="line"/>
      <point x="184" y="131" type="line" smooth="yes"/>
      <point x="184" y="106"/>
      <point x="166" y="88"/>
      <point x="141" y="86" type="curve" smooth="yes"/>
      <point x="41" y="80" type="line"/>
      <point x="41" y="0" type="line"/>
      <point x="504" y="0" type="line"/>
      <point x="504" y="80" type="line"/>
      <point x="418" y="86" type="line" smooth="yes"/>
      <point x="393" y="88"/>
      <point x="375" y="106"/>
      <point x="375" y="131" type="curve" smooth="yes"/>
      <point x="375" y="803" type="line"/>
      <point x="444" y="838"/>
      <point x="522" y="862"/>
      <point x="600" y="862" type="curve" smooth="yes"/>
      <point x="743" y="862"/>
      <point x="797" y="793"/>
      <point x="797" y="664" type="curve" smooth="yes"/>
      <point x="797" y="131" type="line" smooth="yes"/>
      <point x="797" y="106"/>
      <point x="778" y="88"/>
      <point x="754" y="86" type="curve" smooth="yes"/>
      <point x="668" y="80" type="line"/>
      <point x="668" y="0" type="line"/>
    </contour>
  </outline>
</glyph>
<glyph name="LtnSmT" format="2">
  <advance width="696"/>
  <unicode hex="0074"/>
  <anchor x="368" y="0" name="H"/>
  <anchor x="368" y="-100" name="L"/>
  <anchor x="696" y="1000" name="R"/>
  <anchor x="358" y="1363" name="U"/>
  <outline>
    <contour>
      <point x="682" y="43" type="curve"/>
      <point x="682" y="125" type="line"/>
      <point x="656" y="110"/>
      <point x="599" y="90"/>
      <point x="541" y="90" type="curve" smooth="yes"/>
      <point x="432" y="90"/>
      <point x="377" y="150"/>
      <point x="377" y="313" type="curve" smooth="yes"/>
      <point x="377" y="885" type="line"/>
      <point x="666" y="885" type="line"/>
      <point x="666" y="987" type="line"/>
      <point x="377" y="987" type="line"/>
      <point x="377" y="1235" type="line"/>
      <point x="287" y="1235" type="line"/>
      <point x="195" y="1018" type="line"/>
      <point x="55" y="952" type="line"/>
      <point x="55" y="885" type="line"/>
      <point x="186" y="885" type="line"/>
      <point x="186" y="205" type="line" smooth="yes"/>
      <point x="186" y="43"/>
      <point x="252" y="-25"/>
      <point x="406" y="-25" type="curve" smooth="yes"/>
      <point x="513" y="-25"/>
      <point x="627" y="14"/>
    </contour>
  </outline>
</glyph>
<glyph name="LtnSmW" format="2">
  <advance width="1604"/>
  <unicode hex="0077"/>
  <anchor x="801" y="-100" name="L"/>
  <anchor x="830" y="1100" name="U"/>
  <outline>
    <contour>
      <point x="1583" y="907" type="line"/>
      <point x="1583" y="987" type="line"/>
      <point x="1225" y="987" type="line"/>
      <point x="1225" y="907" type="line"/>
      <point x="1319" y="901" type="line" smooth="yes"/>
      <point x="1341" y="899"/>
      <point x="1354" y="877"/>
      <point x="1348" y="856" type="curve" smooth="yes"/>
      <point x="1159" y="219" type="line"/>
      <point x="922" y="987" type="line"/>
      <point x="776" y="987" type="line"/>
      <point x="512" y="219" type="line"/>
      <point x="342" y="856" type="line" smooth="yes"/>
      <point x="336" y="879"/>
      <point x="350" y="899"/>
      <point x="373" y="901" type="curve" smooth="yes"/>
      <point x="469" y="907" type="line"/>
      <point x="469" y="987" type="line"/>
      <point x="20" y="987" type="line"/>
      <point x="20" y="907" type="line"/>
      <point x="133" y="895" type="line"/>
      <point x="395" y="0" type="line"/>
      <point x="541" y="0" type="line"/>
      <point x="811" y="766" type="line"/>
      <point x="1053" y="0" type="line"/>
      <point x="1198" y="0" type="line"/>
      <point x="1479" y="895" type="line"/>
    </contour>
  </outline>
</glyph>
<glyph name="LftCurlyBrac" format="2">
  <advance width="999"/>
  <unicode hex="007B"/>
  <outline>
    <contour>
      <point x="858" y="-252" type="curve"/>
      <point x="858" y="-168" type="line"/>
      <point x="823" y="-168"/>
      <point x="700" y="-162"/>
      <point x="649" y="-106" type="curve" smooth="yes"/>
      <point x="592" y="-45"/>
      <point x="600" y="82"/>
      <point x="600" y="197" type="curve" smooth="yes"/>
      <point x="600" y="291"/>
      <point x="596" y="408"/>
      <point x="541" y="477" type="curve" smooth="yes"/>
      <point x="487" y="547"/>
      <point x="408" y="578"/>
      <point x="324" y="596" type="curve"/>
      <point x="408" y="614"/>
      <point x="487" y="643"/>
      <point x="541" y="713" type="curve" smooth="yes"/>
      <point x="596" y="782"/>
      <point x="600" y="899"/>
      <point x="600" y="993" type="curve" smooth="yes"/>
      <point x="600" y="1108"/>
      <point x="592" y="1235"/>
      <point x="649" y="1296" type="curve" smooth="yes"/>
      <point x="700" y="1352"/>
      <point x="823" y="1358"/>
      <point x="858" y="1358" type="curve"/>
      <point x="858" y="1442" type="line"/>
      <point x="713" y="1442"/>
      <point x="569" y="1423"/>
      <point x="502" y="1352" type="curve" smooth="yes"/>
      <point x="410" y="1255"/>
      <point x="418" y="1122"/>
      <point x="418" y="987" type="curve" smooth="yes"/>
      <point x="418" y="897"/>
      <point x="424" y="758"/>
      <point x="360" y="696" type="curve" smooth="yes"/>
      <point x="311" y="649"/>
      <point x="242" y="641"/>
      <point x="123" y="641" type="curve"/>
      <point x="123" y="549" type="line"/>
      <point x="242" y="549"/>
      <point x="311" y="541"/>
      <point x="360" y="494" type="curve" smooth="yes"/>
      <point x="424" y="432"/>
      <point x="418" y="293"/>
      <point x="418" y="203" type="curve" smooth="yes"/>
      <point x="418" y="68"/>
      <point x="410" y="-66"/>
      <point x="502" y="-162" type="curve" smooth="yes"/>
      <point x="569" y="-233"/>
      <point x="713" y="-252"/>
    </contour>
  </outline>
</glyph>
<glyph name="YenSgn" format="2">
  <advance width="1221"/>
  <unicode hex="00A5"/>
  <outline>
    <contour>
      <point x="1200" y="1288" type="line"/>
      <point x="1200" y="1374" type="line"/>
      <point x="809" y="1374" type="line"/>
      <point x="809" y="1288" type="line"/>
      <point x="907" y="1272" type="line" smooth="yes"/>
      <point x="944" y="1266"/>
      <point x="942" y="1239"/>
      <point x="934" y="1227" type="curve" smooth="yes"/>
      <point x="637" y="700" type="line"/>
      <point x="367" y="1229" type="line" smooth="yes"/>
      <point x="356" y="1249"/>
      <point x="369" y="1270"/>
      <point x="391" y="1274" type="curve" smooth="yes"/>
      <point x="479" y="1288" type="line"/>
      <point x="479" y="1374" type="line"/>
      <point x="20" y="1374" type="line"/>
      <point x="20" y="1288" type="line"/>
      <point x="141" y="1264" type="line"/>
      <point x="344" y="874" type="line"/>
      <point x="66" y="874" type="line"/>
      <point x="66" y="784" type="line"/>
      <point x="393" y="784" type="line"/>
      <point x="504" y="575" type="line"/>
      <point x="66" y="575" type="line"/>
      <point x="66" y="485" type="line"/>
      <point x="508" y="485" type="line"/>
      <point x="508" y="141" type="line" smooth="yes"/>
      <point x="508" y="127"/>
      <point x="494" y="98"/>
      <point x="457" y="96" type="curve" smooth="yes"/>
      <point x="336" y="86" type="line"/>
      <point x="336" y="0" type="line"/>
      <point x="870" y="0" type="line"/>
      <point x="870" y="86" type="line"/>
      <point x="752" y="96" type="line" smooth="yes"/>
      <point x="715" y="98"/>
      <point x="698" y="127"/>
      <point x="698" y="141" type="curve" smooth="yes"/>
      <point x="698" y="485" type="line"/>
      <point x="1155" y="485" type="line"/>
      <point x="1155" y="575" type="line"/>
      <point x="696" y="575" type="line"/>
      <point x="815" y="784" type="line"/>
      <point x="1155" y="784" type="line"/>
      <point x="1155" y="874" type="line"/>
      <point x="866" y="874" type="line"/>
      <point x="1085" y="1262" type="line"/>
    </contour>
  </outline>
</glyph>
<glyph name="SectionSgn" format="2">
  <advance width="1024"/>
  <unicode hex="00A7"/>
  <outline>
    <contour>
      <point x="485" y="-250" type="curve" smooth="yes"/>
      <point x="707" y="-250"/>
      <point x="866" y="-121"/>
      <point x="866" y="63" type="curve" smooth="yes"/>
      <point x="866" y="195"/>
      <point x="774" y="279"/>
      <point x="655" y="334" type="curve"/>
      <point x="780" y="383"/>
      <point x="903" y="506"/>
      <point x="903" y="666" type="curve" smooth="yes"/>
      <point x="903" y="1022"/>
      <point x="326" y="1040"/>
      <point x="326" y="1247" type="curve" smooth="yes"/>
      <point x="326" y="1346"/>
      <point x="408" y="1419"/>
      <point x="530" y="1419" type="curve" smooth="yes"/>
      <point x="612" y="1419"/>
      <point x="678" y="1384"/>
      <point x="723" y="1360" type="curve"/>
      <point x="743" y="1194" type="line"/>
      <point x="840" y="1194" type="line"/>
      <point x="840" y="1460" type="line"/>
      <point x="799" y="1479"/>
      <point x="674" y="1509"/>
      <point x="555" y="1509" type="curve" smooth="yes"/>
      <point x="289" y="1509"/>
      <point x="158" y="1395"/>
      <point x="158" y="1208" type="curve" smooth="yes"/>
      <point x="158" y="1087"/>
      <point x="240" y="1008"/>
      <point x="362" y="946" type="curve"/>
      <point x="229" y="885"/>
      <point x="121" y="807"/>
      <point x="121" y="625" type="curve" smooth="yes"/>
      <point x="121" y="242"/>
      <point x="705" y="252"/>
      <point x="705" y="12" type="curve" smooth="yes"/>
      <point x="705" y="-90"/>
      <point x="614" y="-154"/>
      <point x="494" y="-154" type="curve" smooth="yes"/>
      <point x="434" y="-154"/>
      <point x="350" y="-133"/>
      <point x="301" y="-100" type="curve"/>
      <point x="281" y="43"/>
      <point x="285" y="8"/>
      <point x="272" y="84" type="curve"/>
      <point x="170" y="84" type="line"/>
      <point x="170" y="-184" type="line"/>
      <point x="221" y="-207"/>
      <point x="344" y="-250"/>
    </contour>
    <contour>
      <point x="571" y="375" type="curve"/>
      <point x="371" y="469"/>
      <point x="276" y="547"/>
      <point x="276" y="672" type="curve" smooth="yes"/>
      <point x="276" y="762"/>
      <point x="336" y="860"/>
      <point x="461" y="903" type="curve"/>
      <point x="639" y="829"/>
      <point x="743" y="737"/>
      <point x="743" y="614" type="curve" smooth="yes"/>
      <point x="743" y="508"/>
      <point x="631" y="406"/>
    </contour>
  </outline>
</glyph>
<glyph name="RegisteredSgn" format="2">
  <advance width="1714"/>
  <unicode hex="00AE"/>
  <outline>
    <contour>
      <point x="1645" y="717" type="curve" smooth="yes"/>
      <point x="1645" y="1155"/>
      <point x="1288" y="1509"/>
      <point x="858" y="1509" type="curve" smooth="yes"/>
      <point x="422" y="1509"/>
      <point x="70" y="1153"/>
      <point x="70" y="717" type="curve" smooth="yes"/>
      <point x="70" y="281"/>
      <point x="424" y="-74"/>
      <point x="854" y="-74" type="curve" smooth="yes"/>
      <point x="1292" y="-74"/>
      <point x="1645" y="281"/>
    </contour>
    <contour>
      <point x="1556" y="717" type="curve" smooth="yes"/>
      <point x="1556" y="332"/>
      <point x="1243" y="12"/>
      <point x="856" y="12" type="curve" smooth="yes"/>
      <point x="469" y="12"/>
      <point x="158" y="330"/>
      <point x="158" y="713" type="curve" smooth="yes"/>
      <point x="158" y="1112"/>
      <point x="475" y="1423"/>
      <point x="858" y="1423" type="curve" smooth="yes"/>
      <point x="1243" y="1423"/>
      <point x="1556" y="1108"/>
    </contour>
    <contour>
      <point x="1366" y="291" type="curve"/>
      <point x="1366" y="346" type="line"/>
      <point x="1008" y="346"/>
      <point x="1268" y="655"/>
      <point x="942" y="727" type="curve"/>
      <point x="1067" y="754"/>
      <point x="1182" y="811"/>
      <point x="1182" y="950" type="curve" smooth="yes"/>
      <point x="1182" y="1126"/>
      <point x="1047" y="1188"/>
      <point x="823" y="1188" type="curve" smooth="yes"/>
      <point x="442" y="1188" type="line"/>
      <point x="442" y="1130" type="line"/>
      <point x="520" y="1124" type="line" smooth="yes"/>
      <point x="541" y="1122"/>
      <point x="551" y="1108"/>
      <point x="551" y="1096" type="curve" smooth="yes"/>
      <point x="551" y="383" type="line" smooth="yes"/>
      <point x="551" y="371"/>
      <point x="541" y="356"/>
      <point x="520" y="354" type="curve" smooth="yes"/>
      <point x="442" y="348" type="line"/>
      <point x="442" y="291" type="line"/>
      <point x="805" y="291" type="line"/>
      <point x="805" y="348" type="line"/>
      <point x="727" y="354" type="line" smooth="yes"/>
      <point x="707" y="356"/>
      <point x="696" y="371"/>
      <point x="696" y="383" type="curve" smooth="yes"/>
      <point x="696" y="688" type="line"/>
      <point x="700" y="688"/>
      <point x="733" y="690"/>
      <point x="764" y="690" type="curve" smooth="yes"/>
      <point x="1126" y="690"/>
      <point x="885" y="281"/>
      <point x="1247" y="281" type="curve" smooth="yes"/>
      <point x="1290" y="281"/>
      <point x="1354" y="289"/>
    </contour>
    <contour>
      <point x="1022" y="944" type="curve" smooth="yes"/>
      <point x="1022" y="801"/>
      <point x="934" y="754"/>
      <point x="772" y="754" type="curve" smooth="yes"/>
      <point x="750" y="754"/>
      <point x="700" y="756"/>
      <point x="696" y="756" type="curve"/>
      <point x="696" y="1124" type="line"/>
      <point x="700" y="1124"/>
      <point x="766" y="1124"/>
      <point x="766" y="1124" type="curve"/>
      <point x="950" y="1124"/>
      <point x="1022" y="1057"/>
    </contour>
  </outline>
</glyph>
<glyph name="MicroSgn" format="2">
  <advance width="1120"/>
  <unicode hex="00B5"/>
  <outline>
    <contour>
      <point x="1133" y="221" type="curve"/>
      <point x="1092" y="221" type="line"/>
      <point x="1071" y="121"/>
      <point x="1049" y="92"/>
      <point x="1006" y="92" type="curve" smooth="yes"/>
      <point x="967" y="92"/>
      <point x="936" y="96"/>
      <point x="936" y="281" type="curve" smooth="yes"/>
      <point x="936" y="987" type="line"/>
      <point x="745" y="987" type="line"/>
      <point x="745" y="246" type="line"/>
      <point x="664" y="154"/>
      <point x="602" y="104"/>
      <point x="522" y="104" type="curve" smooth="yes"/>
      <point x="457" y="104"/>
      <point x="410" y="150"/>
      <point x="393" y="201" type="curve" smooth="yes"/>
      <point x="381" y="238"/>
      <point x="375" y="301"/>
      <point x="375" y="403" type="curve" smooth="yes"/>
      <point x="375" y="987" type="line"/>
      <point x="184" y="987" type="line"/>
      <point x="184" y="207" type="line" smooth="yes"/>
      <point x="184" y="-186"/>
      <point x="119" y="-213"/>
      <point x="119" y="-342" type="curve" smooth="yes"/>
      <point x="119" y="-408"/>
      <point x="162" y="-455"/>
      <point x="209" y="-455" type="curve" smooth="yes"/>
      <point x="260" y="-455"/>
      <point x="307" y="-406"/>
      <point x="307" y="-338" type="curve" smooth="yes"/>
      <point x="307" y="-254"/>
      <point x="258" y="-115"/>
      <point x="258" y="16" type="curve" smooth="yes"/>
      <point x="258" y="66" type="line"/>
      <point x="309" y="-20"/>
      <point x="410" y="-25"/>
      <point x="440" y="-25" type="curve" smooth="yes"/>
      <point x="549" y="-25"/>
      <point x="629" y="39"/>
      <point x="745" y="174" type="curve"/>
      <point x="766" y="20"/>
      <point x="844" y="-25"/>
      <point x="926" y="-25" type="curve" smooth="yes"/>
      <point x="1032" y="-25"/>
      <point x="1120" y="45"/>
    </contour>
  </outline>
</glyph>
<glyph name="SupOne" format="2">
  <advance width="750"/>
  <unicode hex="00B9"/>
  <anchor x="347" y="725" name="L"/>
  <anchor x="347" y="1650" name="U"/>
  <outline>
    <contour>
      <point x="594" y="784" type="line"/>
      <point x="594" y="840" type="line"/>
      <point x="469" y="844" type="line" smooth="yes"/>
      <point x="453" y="844"/>
      <point x="438" y="856"/>
      <point x="438" y="870" type="curve" smooth="yes"/>
      <point x="438" y="1622" type="line"/>
      <point x="389" y="1622" type="line"/>
      <point x="100" y="1540" type="line"/>
      <point x="100" y="1487" type="line"/>
      <point x="307" y="1520" type="line"/>
      <point x="307" y="870" type="line" smooth="yes"/>
      <point x="307" y="856"/>
      <point x="295" y="844"/>
      <point x="279" y="844" type="curve" smooth="yes"/>
      <point x="143" y="840" type="line"/>
      <point x="143" y="784" type="line"/>
    </contour>
  </outline>
</glyph>
<glyph name="MascOrdIndicator" format="2">
  <advance width="733"/>
  <unicode hex="00BA"/>
  <outline>
    <contour>
      <point x="684" y="1079" type="curve" smooth="yes"/>
      <point x="684" y="1251"/>
      <point x="569" y="1391"/>
      <point x="371" y="1391" type="curve" smooth="yes"/>
      <point x="172" y="1391"/>
      <point x="49" y="1255"/>
      <point x="49" y="1079" type="curve" smooth="yes"/>
      <point x="49" y="901"/>
      <point x="172" y="770"/>
      <point x="367" y="770" type="curve" smooth="yes"/>
      <point x="561" y="770"/>
      <point x="684" y="905"/>
    </contour>
    <contour>
      <point x="680" y="623" type="line"/>
      <point x="680" y="684" type="line"/>
      <point x="55" y="684" type="line"/>
      <point x="55" y="623" type="line"/>
    </contour>
    <contour>
      <point x="547" y="1079" type="curve" smooth="yes"/>
      <point x="547" y="946"/>
      <point x="489" y="825"/>
      <point x="367" y="825" type="curve" smooth="yes"/>
      <point x="248" y="825"/>
      <point x="190" y="948"/>
      <point x="190" y="1079" type="curve" smooth="yes"/>
      <point x="190" y="1214"/>
      <point x="246" y="1335"/>
      <point x="369" y="1335" type="curve" smooth="yes"/>
      <point x="489" y="1335"/>
      <point x="547" y="1214"/>
    </contour>
  </outline>
</glyph>
<glyph name="VulgFracOneQuarter" format="2">
  <advance width="1792"/>
  <unicode hex="00BC"/>
  <outline>
    <contour>
      <point x="1694" y="233" type="line"/>
      <point x="1694" y="317" type="line"/>
      <point x="1542" y="317" type="line"/>
      <point x="1542" y="831" type="line"/>
      <point x="1452" y="831" type="line"/>
      <point x="1001" y="319" type="line"/>
      <point x="1001" y="233" type="line"/>
      <point x="1427" y="233" type="line"/>
      <point x="1427" y="-43" type="line"/>
      <point x="1542" y="-43" type="line"/>
      <point x="1542" y="233" type="line"/>
    </contour>
    <contour>
      <point x="1413" y="1430" type="line"/>
      <point x="1284" y="1430" type="line"/>
      <point x="375" y="0" type="line"/>
      <point x="506" y="0" type="line"/>
    </contour>
    <contour>
      <point x="592" y="604" type="line"/>
      <point x="592" y="659" type="line"/>
      <point x="467" y="664" type="line"/>
      <point x="451" y="666"/>
      <point x="436" y="676"/>
      <point x="436" y="690" type="curve" smooth="yes"/>
      <point x="436" y="1444" type="line"/>
      <point x="387" y="1444" type="line"/>
      <point x="98" y="1362" type="line"/>
      <point x="98" y="1307" type="line"/>
      <point x="305" y="1339" type="line"/>
      <point x="305" y="690" type="line" smooth="yes"/>
      <point x="305" y="676"/>
      <point x="293" y="666"/>
      <point x="276" y="664" type="curve"/>
      <point x="141" y="659" type="line"/>
      <point x="141" y="604" type="line"/>
    </contour>
    <contour>
      <point x="1427" y="317" type="line"/>
      <point x="1108" y="317" type="line"/>
      <point x="1427" y="688" type="line"/>
    </contour>
  </outline>
</glyph>
<glyph name="VulgFracOneHalf" format="2">
  <advance width="1792"/>
  <unicode hex="00BD"/>
  <outline>
    <contour>
      <point x="1700" y="0" type="line"/>
      <point x="1700" y="211" type="line"/>
      <point x="1632" y="211" type="line"/>
      <point x="1610" y="104" type="line"/>
      <point x="1217" y="104" type="line"/>
      <point x="1456" y="279"/>
      <point x="1669" y="437"/>
      <point x="1669" y="604" type="curve" smooth="yes"/>
      <point x="1669" y="748"/>
      <point x="1561" y="840"/>
      <point x="1389" y="840" type="curve" smooth="yes"/>
      <point x="1233" y="840"/>
      <point x="1100" y="766"/>
      <point x="1100" y="662" type="curve" smooth="yes"/>
      <point x="1100" y="612"/>
      <point x="1139" y="590"/>
      <point x="1180" y="590" type="curve" smooth="yes"/>
      <point x="1210" y="590"/>
      <point x="1235" y="601"/>
      <point x="1245" y="610" type="curve"/>
      <point x="1245" y="745" type="line"/>
      <point x="1251" y="750"/>
      <point x="1292" y="772"/>
      <point x="1354" y="772" type="curve" smooth="yes"/>
      <point x="1456" y="772"/>
      <point x="1528" y="713"/>
      <point x="1528" y="594" type="curve" smooth="yes"/>
      <point x="1528" y="429"/>
      <point x="1346" y="289"/>
      <point x="1075" y="82" type="curve"/>
      <point x="1075" y="0" type="line"/>
    </contour>
    <contour>
      <point x="1399" y="1430" type="line"/>
      <point x="1270" y="1430" type="line"/>
      <point x="360" y="0" type="line"/>
      <point x="489" y="0" type="line"/>
    </contour>
    <contour>
      <point x="588" y="604" type="line"/>
      <point x="588" y="659" type="line"/>
      <point x="463" y="664" type="line"/>
      <point x="446" y="666"/>
      <point x="432" y="676"/>
      <point x="432" y="690" type="curve" smooth="yes"/>
      <point x="432" y="1444" type="line"/>
      <point x="383" y="1444" type="line"/>
      <point x="94" y="1362" type="line"/>
      <point x="94" y="1307" type="line"/>
      <point x="301" y="1339" type="line"/>
      <point x="301" y="690" type="line" smooth="yes"/>
      <point x="301" y="676"/>
      <point x="289" y="666"/>
      <point x="272" y="664" type="curve"/>
      <point x="137" y="659" type="line"/>
      <point x="137" y="604" type="line"/>
    </contour>
  </outline>
</glyph>
<glyph name="LtnSmDCaron" format="2">
  <advance width="1261"/>
  <unicode hex="010F"/>
  <anchor x="614" y="0" name="H"/>
  <anchor x="614" y="-100" name="L"/>
  <anchor x="611" y="1540" name="U"/>
  <outline>
    <contour>
      <point x="1102" y="0" type="line"/>
      <point x="1102" y="80" type="line"/>
      <point x="1014" y="86" type="line" smooth="yes"/>
      <point x="989" y="88"/>
      <point x="971" y="106"/>
      <point x="971" y="131" type="curve" smooth="yes"/>
      <point x="971" y="1509" type="line"/>
      <point x="889" y="1509" type="line"/>
      <point x="625" y="1430" type="line"/>
      <point x="625" y="1362" type="line"/>
      <point x="780" y="1362" type="line"/>
      <point x="780" y="987" type="line"/>
      <point x="748" y="995"/>
      <point x="657" y="1012"/>
      <point x="592" y="1012" type="curve" smooth="yes"/>
      <point x="240" y="1012"/>
      <point x="70" y="745"/>
      <point x="70" y="467" type="curve" smooth="yes"/>
      <point x="70" y="236"/>
      <point x="188" y="-25"/>
      <point x="463" y="-25" type="curve" smooth="yes"/>
      <point x="582" y="-25"/>
      <point x="686" y="37"/>
      <point x="780" y="109" type="curve"/>
      <point x="780" y="0" type="line"/>
    </contour>
    <contour>
      <point x="780" y="186" type="line"/>
      <point x="727" y="154"/>
      <point x="651" y="115"/>
      <point x="569" y="115" type="curve" smooth="yes"/>
      <point x="381" y="115"/>
      <point x="272" y="279"/>
      <point x="272" y="502" type="curve" smooth="yes"/>
      <point x="272" y="750"/>
      <point x="403" y="913"/>
      <point x="606" y="913" type="curve" smooth="yes"/>
      <point x="666" y="913"/>
      <point x="745" y="895"/>
      <point x="780" y="883" type="curve"/>
    </contour>
    <contour>
      <point x="1061" y="1087" type="line"/>
      <point x="1161" y="1087" type="line"/>
      <point x="1261" y="1441" type="line"/>
      <point x="1261" y="1509" type="line"/>
      <point x="1086" y="1509" type="line"/>
    </contour>
  </outline>
</glyph>
<glyph name="LtnSmEOgonek" format="2">
  <advance width="1004"/>
  <unicode hex="0119"/>
  <anchor x="525" y="-500" name="L"/>
  <anchor x="525" y="1100" name="U"/>
  <outline>
    <component base="LtnSmE"/>
    <contour>
      <point x="861" y="-334" type="curve"/>
      <point x="812" y="-252" type="line"/>
      <point x="812" y="-252"/>
      <point x="759" y="-289"/>
      <point x="728" y="-289" type="curve" smooth="yes"/>
      <point x="654" y="-289"/>
      <point x="609" y="-256"/>
      <point x="609" y="-188" type="curve" smooth="yes"/>
      <point x="609" y="-102"/>
      <point x="675" y="-27"/>
      <point x="793" y="29" type="curve"/>
      <point x="655" y="12" type="line"/>
      <point x="595" y="-20"/>
      <point x="480" y="-127"/>
      <point x="480" y="-242" type="curve" smooth="yes"/>
      <point x="480" y="-340"/>
      <point x="558" y="-391"/>
      <point x="685" y="-391" type="curve" smooth="yes"/>
      <point x="746" y="-391"/>
      <point x="861" y="-334"/>
    </contour>
  </outline>
</glyph>
<glyph name="LtnCapLCaron" format="2">
  <advance width="1087"/>
  <unicode hex="013D"/>
  <anchor x="553" y="0" name="H"/>
  <anchor x="553" y="-100" name="L"/>
  <anchor x="553" y="1500" name="U"/>
  <outline>
    <contour>
      <point x="1051" y="0" type="line"/>
      <point x="1051" y="381" type="line"/>
      <point x="932" y="381" type="line"/>
      <point x="899" y="135" type="line" smooth="yes"/>
      <point x="897" y="117"/>
      <point x="872" y="100"/>
      <point x="854" y="100" type="curve" smooth="yes"/>
      <point x="424" y="100" type="line"/>
      <point x="424" y="1233" type="line" smooth="yes"/>
      <point x="424" y="1253"/>
      <point x="440" y="1276"/>
      <point x="469" y="1278" type="curve" smooth="yes"/>
      <point x="578" y="1286" type="line"/>
      <point x="578" y="1374" type="line"/>
      <point x="55" y="1374" type="line"/>
      <point x="55" y="1286" type="line"/>
      <point x="174" y="1278" type="line" smooth="yes"/>
      <point x="203" y="1276"/>
      <point x="217" y="1253"/>
      <point x="217" y="1233" type="curve" smooth="yes"/>
      <point x="217" y="141" type="line" smooth="yes"/>
      <point x="217" y="121"/>
      <point x="203" y="98"/>
      <point x="174" y="96" type="curve" smooth="yes"/>
      <point x="55" y="88" type="line"/>
      <point x="55" y="0" type="line"/>
    </contour>
    <contour>
      <point x="706" y="1087" type="line"/>
      <point x="806" y="1087" type="line"/>
      <point x="906" y="1441" type="line"/>
      <point x="906" y="1509" type="line"/>
      <point x="731" y="1509" type="line"/>
    </contour>
  </outline>
</glyph>
<glyph name="LtnSmLStrk" format="2">
  <advance width="608"/>
  <unicode hex="0142"/>
  <anchor x="305" y="-100" name="L"/>
  <anchor x="305" y="1540" name="U"/>
  <outline>
    <contour>
      <point x="629" y="903" type="line"/>
      <point x="573" y="987" type="line"/>
      <point x="397" y="868" type="line"/>
      <point x="397" y="1509" type="line"/>
      <point x="319" y="1509" type="line"/>
      <point x="51" y="1430" type="line"/>
      <point x="51" y="1362" type="line"/>
      <point x="209" y="1362" type="line"/>
      <point x="209" y="739" type="line"/>
      <point x="-18" y="582" type="line"/>
      <point x="33" y="498" type="line"/>
      <point x="209" y="621" type="line"/>
      <point x="209" y="131" type="line" smooth="yes"/>
      <point x="209" y="106"/>
      <point x="190" y="88"/>
      <point x="166" y="86" type="curve" smooth="yes"/>
      <point x="53" y="80" type="line"/>
      <point x="53" y="0" type="line"/>
      <point x="551" y="0" type="line"/>
      <point x="551" y="80" type="line"/>
      <point x="444" y="86" type="line" smooth="yes"/>
      <point x="420" y="88"/>
      <point x="397" y="106"/>
      <point x="397" y="131" type="curve" smooth="yes"/>
      <point x="397" y="750" type="line"/>
    </contour>
  </outline>
</glyph>
<glyph name="LtnSmTStrk" format="2">
  <advance width="696"/>
  <unicode hex="0167"/>
  <anchor x="368" y="-100" name="L"/>
  <anchor x="368" y="1363" name="U"/>
  <outline>
    <contour>
      <point x="666" y="455" type="line"/>
      <point x="666" y="558" type="line"/>
      <point x="55" y="558" type="line"/>
      <point x="55" y="455" type="line"/>
    </contour>
    <contour>
      <point x="682" y="43" type="curve"/>
      <point x="682" y="125" type="line"/>
      <point x="656" y="110"/>
      <point x="599" y="90"/>
      <point x="541" y="90" type="curve" smooth="yes"/>
      <point x="432" y="90"/>
      <point x="377" y="150"/>
      <point x="377" y="313" type="curve" smooth="yes"/>
      <point x="377" y="885" type="line"/>
      <point x="666" y="885" type="line"/>
      <point x="666" y="987" type="line"/>
      <point x="377" y="987" type="line"/>
      <point x="377" y="1235" type="line"/>
      <point x="287" y="1235" type="line"/>
      <point x="195" y="1018" type="line"/>
      <point x="55" y="952" type="line"/>
      <point x="55" y="885" type="line"/>
      <point x="186" y="885" type="line"/>
      <point x="186" y="205" type="line" smooth="yes"/>
      <point x="186" y="43"/>
      <point x="252" y="-25"/>
      <point x="406" y="-25" type="curve" smooth="yes"/>
      <point x="513" y="-25"/>
      <point x="627" y="14"/>
    </contour>
  </outline>
</glyph>
<glyph name="LtnCapBHook" format="2">
  <advance width="1419"/>
  <unicode hex="0181"/>
  <anchor x="670" y="-100" name="L"/>
  <anchor x="670" y="1500" name="U"/>
  <outline>
    <contour>
      <point x="246" y="0" type="line"/>
      <point x="819" y="0" type="line" smooth="yes"/>
      <point x="1034" y="0"/>
      <point x="1340" y="74"/>
      <point x="1340" y="406" type="curve" smooth="yes"/>
      <point x="1340" y="647"/>
      <point x="1143" y="729"/>
      <point x="961" y="729" type="curve"/>
      <point x="1082" y="760"/>
      <point x="1258" y="840"/>
      <point x="1258" y="1044" type="curve" smooth="yes"/>
      <point x="1258" y="1249"/>
      <point x="1120" y="1374"/>
      <point x="795" y="1374" type="curve" smooth="yes"/>
      <point x="641" y="1374"/>
      <point x="488" y="1374"/>
      <point x="334" y="1374" type="curve" smooth="yes"/>
      <point x="119" y="1374"/>
      <point x="0" y="1305"/>
      <point x="0" y="1153" type="curve" smooth="yes"/>
      <point x="0" y="1087"/>
      <point x="53" y="1022"/>
      <point x="113" y="1022" type="curve" smooth="yes"/>
      <point x="162" y="1022"/>
      <point x="205" y="1040"/>
      <point x="244" y="1083" type="curve"/>
      <point x="158" y="1229" type="line"/>
      <point x="180" y="1262"/>
      <point x="207" y="1278"/>
      <point x="279" y="1278" type="curve" smooth="yes"/>
      <point x="357" y="1278" type="line" smooth="yes"/>
      <point x="383" y="1278"/>
      <point x="400" y="1262"/>
      <point x="400" y="1235" type="curve" smooth="yes"/>
      <point x="400" y="141" type="line" smooth="yes"/>
      <point x="400" y="121"/>
      <point x="377" y="98"/>
      <point x="348" y="96" type="curve" smooth="yes"/>
      <point x="246" y="88" type="line"/>
    </contour>
    <contour>
      <point x="729" y="100" type="curve" smooth="yes"/>
      <point x="690" y="100"/>
      <point x="602" y="106"/>
      <point x="602" y="106" type="curve"/>
      <point x="602" y="647" type="line"/>
      <point x="615" y="647"/>
      <point x="719" y="659"/>
      <point x="787" y="659" type="curve" smooth="yes"/>
      <point x="1004" y="659"/>
      <point x="1118" y="575"/>
      <point x="1118" y="389" type="curve" smooth="yes"/>
      <point x="1118" y="195"/>
      <point x="1016" y="100"/>
    </contour>
    <contour>
      <point x="676" y="754" type="curve" smooth="yes"/>
      <point x="654" y="754"/>
      <point x="602" y="756"/>
      <point x="602" y="756" type="curve"/>
      <point x="602" y="1274" type="line"/>
      <point x="617" y="1274"/>
      <point x="719" y="1280"/>
      <point x="719" y="1280" type="curve"/>
      <point x="930" y="1290"/>
      <point x="1034" y="1192"/>
      <point x="1034" y="1032" type="curve" smooth="yes"/>
      <point x="1034" y="856"/>
      <point x="942" y="754"/>
    </contour>
  </outline>
</glyph>
<glyph name="LtnSmTnSix" format="2">
  <advance width="1202"/>
  <unicode hex="0185"/>
  <anchor x="518" y="-100" name="L"/>
  <anchor x="518" y="1540" name="U"/>
  <outline>
    <contour>
      <point x="1132" y="541" type="curve" smooth="yes"/>
      <point x="1132" y="793"/>
      <point x="991" y="1012"/>
      <point x="722" y="1012" type="curve" smooth="yes"/>
      <point x="602" y="1012"/>
      <point x="486" y="958"/>
      <point x="440" y="936" type="curve"/>
      <point x="440" y="1509" type="line"/>
      <point x="319" y="1509" type="line"/>
      <point x="-82" y="1039" type="line"/>
      <point x="0" y="969" type="line"/>
      <point x="249" y="1182" type="line"/>
      <point x="249" y="0" type="line"/>
      <point x="544" y="0" type="line" smooth="yes"/>
      <point x="956" y="0"/>
      <point x="1132" y="233"/>
    </contour>
    <contour>
      <point x="923" y="500" type="curve" smooth="yes"/>
      <point x="923" y="201"/>
      <point x="782" y="96"/>
      <point x="540" y="96" type="curve" smooth="yes"/>
      <point x="512" y="96"/>
      <point x="466" y="97"/>
      <point x="440" y="98" type="curve"/>
      <point x="440" y="858" type="line"/>
      <point x="481" y="872"/>
      <point x="565" y="891"/>
      <point x="610" y="891" type="curve" smooth="yes"/>
      <point x="808" y="891"/>
      <point x="923" y="758"/>
    </contour>
  </outline>
</glyph>
<glyph name="LtnSmCHook" format="2">
  <advance width="1004"/>
  <unicode hex="0188"/>
  <anchor x="535" y="-100" name="L"/>
  <anchor x="550" y="1250" name="U"/>
  <outline>
    <contour>
      <point x="539" y="-25" type="curve" smooth="yes"/>
      <point x="678" y="-25"/>
      <point x="793" y="27"/>
      <point x="885" y="76" type="curve"/>
      <point x="885" y="193" type="line"/>
      <point x="797" y="135"/>
      <point x="713" y="104"/>
      <point x="618" y="104" type="curve" smooth="yes"/>
      <point x="393" y="104"/>
      <point x="279" y="287"/>
      <point x="279" y="514" type="curve" smooth="yes"/>
      <point x="279" y="752"/>
      <point x="389" y="926"/>
      <point x="571" y="926" type="curve" smooth="yes"/>
      <point x="598" y="926"/>
      <point x="629" y="915"/>
      <point x="657" y="899" type="curve"/>
      <point x="657" y="721" type="line"/>
      <point x="682" y="705"/>
      <point x="715" y="686"/>
      <point x="760" y="686" type="curve" smooth="yes"/>
      <point x="821" y="686"/>
      <point x="881" y="727"/>
      <point x="881" y="807" type="curve" smooth="yes"/>
      <point x="881" y="940"/>
      <point x="743" y="1012"/>
      <point x="563" y="1012" type="curve" smooth="yes"/>
      <point x="301" y="1012"/>
      <point x="70" y="831"/>
      <point x="70" y="487" type="curve" smooth="yes"/>
      <point x="70" y="193"/>
      <point x="252" y="-25"/>
    </contour>
    <contour>
      <point x="822" y="900" type="line"/>
      <point x="822" y="1134"/>
      <point x="832" y="1186"/>
      <point x="880" y="1231" type="curve"/>
      <point x="1062" y="1090" type="line"/>
      <point x="1076" y="1090"/>
      <point x="1154" y="1123"/>
      <point x="1154" y="1205" type="curve" smooth="yes"/>
      <point x="1154" y="1270"/>
      <point x="1094" y="1330"/>
      <point x="978" y="1330" type="curve" smooth="yes"/>
      <point x="773" y="1330"/>
      <point x="657" y="1210"/>
      <point x="657" y="962" type="curve"/>
    </contour>
  </outline>
</glyph>
<glyph name="LtnCapAfricanD" format="2">
  <advance width="1425"/>
  <unicode hex="0189"/>
  <anchor x="690" y="-100" name="L"/>
  <anchor x="690" y="1500" name="U"/>
  <outline>
    <component base="LtnCapD"/>
    <contour>
      <point x="29" y="668" type="line"/>
      <point x="750" y="668" type="line"/>
      <point x="750" y="772" type="line"/>
      <point x="29" y="772" type="line"/>
    </contour>
  </outline>
</glyph>
<glyph name="LtnCapGHook" format="2">
  <advance width="1423"/>
  <unicode hex="0193"/>
  <anchor x="726" y="-100" name="L"/>
  <anchor x="726" y="1500" name="U"/>
  <outline>
    <contour>
      <point x="1587" y="1602" type="curve" smooth="yes"/>
      <point x="1587" y="1671"/>
      <point x="1520" y="1729"/>
      <point x="1393" y="1729" type="curve" smooth="yes"/>
      <point x="1171" y="1729"/>
      <point x="1073" y="1583"/>
      <point x="1057" y="1378" type="curve"/>
      <point x="973" y="1399"/>
      <point x="899" y="1407"/>
      <point x="815" y="1407" type="curve" smooth="yes"/>
      <point x="367" y="1407"/>
      <point x="80" y="1120"/>
      <point x="80" y="690" type="curve" smooth="yes"/>
      <point x="80" y="311"/>
      <point x="338" y="-33"/>
      <point x="795" y="-33" type="curve" smooth="yes"/>
      <point x="1016" y="-33"/>
      <point x="1225" y="49"/>
      <point x="1225" y="49" type="curve"/>
      <point x="1225" y="522" type="line" smooth="yes"/>
      <point x="1225" y="543"/>
      <point x="1239" y="563"/>
      <point x="1268" y="565" type="curve" smooth="yes"/>
      <point x="1372" y="575" type="line"/>
      <point x="1372" y="664" type="line"/>
      <point x="838" y="664" type="line"/>
      <point x="838" y="575" type="line"/>
      <point x="975" y="565" type="line" smooth="yes"/>
      <point x="1004" y="563"/>
      <point x="1018" y="543"/>
      <point x="1018" y="522" type="curve" smooth="yes"/>
      <point x="1018" y="113" type="line"/>
      <point x="1008" y="113"/>
      <point x="928" y="82"/>
      <point x="838" y="82" type="curve" smooth="yes"/>
      <point x="518" y="82"/>
      <point x="313" y="307"/>
      <point x="313" y="700" type="curve" smooth="yes"/>
      <point x="313" y="1081"/>
      <point x="512" y="1292"/>
      <point x="821" y="1292" type="curve" smooth="yes"/>
      <point x="907" y="1292"/>
      <point x="1001" y="1251"/>
      <point x="1032" y="1237" type="curve" smooth="yes"/>
      <point x="1044" y="1231"/>
      <point x="1063" y="1208"/>
      <point x="1067" y="1190" type="curve" smooth="yes"/>
      <point x="1100" y="1006" type="line"/>
      <point x="1223" y="1006" type="line"/>
      <point x="1223" y="1327" type="line" smooth="yes"/>
      <point x="1223" y="1534"/>
      <point x="1221" y="1593"/>
      <point x="1313" y="1628" type="curve"/>
      <point x="1499" y="1487" type="line"/>
      <point x="1499" y="1487"/>
      <point x="1587" y="1511"/>
    </contour>
  </outline>
</glyph>
<glyph name="LtnCapGamma" format="2">
  <advance width="1366"/>
  <unicode hex="0194"/>
  <anchor x="730" y="-100" name="L"/>
  <anchor x="730" y="1500" name="U"/>
  <outline>
    <contour>
      <point x="705" y="-33" type="curve" smooth="yes"/>
      <point x="885" y="-33"/>
      <point x="963" y="86"/>
      <point x="963" y="176" type="curve" smooth="yes"/>
      <point x="963" y="197"/>
      <point x="958" y="217"/>
      <point x="948" y="233" type="curve"/>
      <point x="788" y="537" type="line"/>
      <point x="1206" y="1282" type="line"/>
      <point x="1346" y="1294" type="line"/>
      <point x="1346" y="1374" type="line"/>
      <point x="915" y="1374" type="line"/>
      <point x="915" y="1294" type="line"/>
      <point x="1034" y="1288" type="line" smooth="yes"/>
      <point x="1059" y="1286"/>
      <point x="1065" y="1264"/>
      <point x="1057" y="1251" type="curve" smooth="yes"/>
      <point x="723" y="664" type="line"/>
      <point x="414" y="1251" type="line" smooth="yes"/>
      <point x="406" y="1266"/>
      <point x="416" y="1286"/>
      <point x="446" y="1288" type="curve" smooth="yes"/>
      <point x="561" y="1294" type="line"/>
      <point x="561" y="1374" type="line"/>
      <point x="20" y="1374" type="line"/>
      <point x="20" y="1294" type="line"/>
      <point x="166" y="1284" type="line"/>
      <point x="602" y="451" type="line"/>
      <point x="477" y="229" type="line" smooth="yes"/>
      <point x="463" y="205"/>
      <point x="457" y="176"/>
      <point x="457" y="147" type="curve" smooth="yes"/>
      <point x="457" y="57"/>
      <point x="524" y="-33"/>
    </contour>
    <contour>
      <point x="670" y="86" type="curve" smooth="yes"/>
      <point x="618" y="86"/>
      <point x="586" y="123"/>
      <point x="586" y="158" type="curve" smooth="yes"/>
      <point x="586" y="172"/>
      <point x="590" y="186"/>
      <point x="596" y="199" type="curve"/>
      <point x="670" y="326" type="line"/>
      <point x="735" y="199" type="line"/>
      <point x="741" y="184"/>
      <point x="748" y="172"/>
      <point x="748" y="158" type="curve" smooth="yes"/>
      <point x="748" y="119"/>
      <point x="721" y="86"/>
    </contour>
  </outline>
</glyph>
<glyph name="LtnSmLambdaStrk" format="2">
  <advance width="1128"/>
  <unicode hex="019B"/>
  <anchor x="523" y="-100" name="L"/>
  <anchor x="798" y="1400" name="U"/>
  <outline>
    <contour>
      <point x="811" y="0" type="line"/>
      <point x="1108" y="0" type="line"/>
      <point x="1108" y="80" type="line"/>
      <point x="1009" y="86" type="line" smooth="yes"/>
      <point x="985" y="87"/>
      <point x="968" y="106"/>
      <point x="959" y="129" type="curve" smooth="yes"/>
      <point x="451" y="1509" type="line"/>
      <point x="367" y="1509" type="line"/>
      <point x="123" y="1430" type="line"/>
      <point x="123" y="1362" type="line"/>
      <point x="310" y="1362" type="line"/>
    </contour>
    <contour>
      <point x="20" y="0" type="line"/>
      <point x="379" y="0" type="line"/>
      <point x="379" y="80" type="line"/>
      <point x="287" y="86" type="line" smooth="yes"/>
      <point x="264" y="88"/>
      <point x="250" y="111"/>
      <point x="258" y="131" type="curve" smooth="yes"/>
      <point x="558" y="849" type="line"/>
      <point x="501" y="983" type="line"/>
      <point x="129" y="92" type="line"/>
      <point x="20" y="80" type="line"/>
    </contour>
    <contour>
      <point x="123" y="971" type="line"/>
      <point x="888" y="1190" type="line"/>
      <point x="888" y="1296" type="line"/>
      <point x="123" y="1077" type="line"/>
    </contour>
  </outline>
</glyph>
<glyph name="LtnCapTrndM" format="2">
  <advance width="2206"/>
  <unicode hex="019C"/>
  <anchor x="1101" y="-100" name="L"/>
  <anchor x="1101" y="1500" name="U"/>
  <outline>
    <contour>
      <point x="673" y="-33" type="curve" smooth="yes"/>
      <point x="821" y="-33"/>
      <point x="935" y="31"/>
      <point x="1071" y="133" type="curve"/>
      <point x="1138" y="24"/>
      <point x="1249" y="-33"/>
      <point x="1388" y="-33" type="curve" smooth="yes"/>
      <point x="1552" y="-33"/>
      <point x="1619" y="43"/>
      <point x="1773" y="166" type="curve"/>
      <point x="1773" y="0" type="line"/>
      <point x="2140" y="0" type="line"/>
      <point x="2140" y="88" type="line"/>
      <point x="2021" y="98" type="line" smooth="yes"/>
      <point x="1994" y="100"/>
      <point x="1980" y="121"/>
      <point x="1980" y="137" type="curve" smooth="yes"/>
      <point x="1980" y="1233" type="line" smooth="yes"/>
      <point x="1980" y="1253"/>
      <point x="1994" y="1276"/>
      <point x="2023" y="1278" type="curve" smooth="yes"/>
      <point x="2127" y="1286" type="line"/>
      <point x="2127" y="1374" type="line"/>
      <point x="1603" y="1374" type="line"/>
      <point x="1603" y="1286" type="line"/>
      <point x="1730" y="1278" type="line" smooth="yes"/>
      <point x="1759" y="1276"/>
      <point x="1773" y="1253"/>
      <point x="1773" y="1233" type="curve" smooth="yes"/>
      <point x="1773" y="282" type="line"/>
      <point x="1665" y="198"/>
      <point x="1605" y="137"/>
      <point x="1468" y="137" type="curve" smooth="yes"/>
      <point x="1286" y="137"/>
      <point x="1210" y="264"/>
      <point x="1210" y="446" type="curve" smooth="yes"/>
      <point x="1210" y="1233" type="line" smooth="yes"/>
      <point x="1210" y="1253"/>
      <point x="1224" y="1276"/>
      <point x="1253" y="1278" type="curve" smooth="yes"/>
      <point x="1357" y="1286" type="line"/>
      <point x="1357" y="1374" type="line"/>
      <point x="833" y="1374" type="line"/>
      <point x="833" y="1286" type="line"/>
      <point x="960" y="1278" type="line" smooth="yes"/>
      <point x="989" y="1276"/>
      <point x="1003" y="1253"/>
      <point x="1003" y="1233" type="curve" smooth="yes"/>
      <point x="1003" y="405" type="line" smooth="yes"/>
      <point x="1003" y="340"/>
      <point x="1011" y="282"/>
      <point x="1028" y="231" type="curve"/>
      <point x="950" y="190"/>
      <point x="835" y="137"/>
      <point x="753" y="137" type="curve" smooth="yes"/>
      <point x="571" y="137"/>
      <point x="440" y="264"/>
      <point x="440" y="446" type="curve"/>
      <point x="440" y="1233" type="line" smooth="yes"/>
      <point x="440" y="1253"/>
      <point x="454" y="1276"/>
      <point x="483" y="1278" type="curve" smooth="yes"/>
      <point x="587" y="1286" type="line"/>
      <point x="587" y="1374" type="line"/>
      <point x="63" y="1374" type="line"/>
      <point x="63" y="1286" type="line"/>
      <point x="190" y="1278" type="line" smooth="yes"/>
      <point x="219" y="1276"/>
      <point x="233" y="1253"/>
      <point x="233" y="1233" type="curve"/>
      <point x="233" y="405" type="line"/>
      <point x="233" y="127"/>
      <point x="444" y="-33"/>
    </contour>
  </outline>
</glyph>
<glyph name="LtnCapNLftHook" format="2">
  <advance width="1520"/>
  <unicode hex="019D"/>
  <anchor x="725" y="-100" name="L"/>
  <anchor x="725" y="1500" name="U"/>
  <outline>
    <contour>
      <point x="1460" y="0" type="line"/>
      <point x="1460" y="88" type="line"/>
      <point x="1350" y="96" type="line" smooth="yes"/>
      <point x="1323" y="98"/>
      <point x="1305" y="121"/>
      <point x="1305" y="141" type="curve" smooth="yes"/>
      <point x="1305" y="987" type="line" smooth="yes"/>
      <point x="1305" y="1266"/>
      <point x="1090" y="1407"/>
      <point x="860" y="1407" type="curve" smooth="yes"/>
      <point x="696" y="1407"/>
      <point x="578" y="1331"/>
      <point x="424" y="1208" type="curve"/>
      <point x="424" y="1374" type="line"/>
      <point x="47" y="1374" type="line"/>
      <point x="47" y="1286" type="line"/>
      <point x="176" y="1276" type="line" smooth="yes"/>
      <point x="201" y="1274"/>
      <point x="217" y="1253"/>
      <point x="217" y="1237" type="curve" smooth="yes"/>
      <point x="217" y="-123" type="line" smooth="yes"/>
      <point x="217" y="-262"/>
      <point x="184" y="-367"/>
      <point x="55" y="-367" type="curve"/>
      <point x="-102" y="-188" type="line"/>
      <point x="-119" y="-190"/>
      <point x="-203" y="-227"/>
      <point x="-203" y="-317" type="curve" smooth="yes"/>
      <point x="-203" y="-389"/>
      <point x="-147" y="-469"/>
      <point x="-2" y="-469" type="curve" smooth="yes"/>
      <point x="246" y="-469"/>
      <point x="424" y="-305"/>
      <point x="424" y="-43" type="curve" smooth="yes"/>
      <point x="424" y="1092" type="line"/>
      <point x="532" y="1176"/>
      <point x="643" y="1237"/>
      <point x="780" y="1237" type="curve" smooth="yes"/>
      <point x="965" y="1237"/>
      <point x="1098" y="1122"/>
      <point x="1098" y="938" type="curve" smooth="yes"/>
      <point x="1098" y="143" type="line" smooth="yes"/>
      <point x="1098" y="123"/>
      <point x="1081" y="102"/>
      <point x="1053" y="100" type="curve" smooth="yes"/>
      <point x="946" y="88" type="line"/>
      <point x="946" y="0" type="line"/>
    </contour>
  </outline>
</glyph>
<glyph name="LtnCapOi" format="2">
  <advance width="1838"/>
  <unicode hex="01A2"/>
  <anchor x="778" y="-100" name="L"/>
  <anchor x="947" y="1500" name="U"/>
  <outline>
    <contour>
      <point x="1814" y="-358" type="line"/>
      <point x="1689" y="-350" type="line" smooth="yes"/>
      <point x="1661" y="-348"/>
      <point x="1646" y="-325"/>
      <point x="1646" y="-305" type="curve" smooth="yes"/>
      <point x="1646" y="1407" type="line"/>
      <point x="1553" y="1407" type="line"/>
      <point x="1215" y="1269" type="line"/>
      <point x="1054" y="1380"/>
      <point x="905" y="1407"/>
      <point x="748" y="1407" type="curve" smooth="yes"/>
      <point x="340" y="1407"/>
      <point x="80" y="1087"/>
      <point x="80" y="688" type="curve" smooth="yes"/>
      <point x="80" y="309"/>
      <point x="338" y="-33"/>
      <point x="755" y="-33" type="curve" smooth="yes"/>
      <point x="993" y="-33"/>
      <point x="1168" y="79"/>
      <point x="1225" y="179" type="curve"/>
      <point x="1225" y="1131" type="line"/>
      <point x="1439" y="1177" type="line"/>
      <point x="1439" y="-305" type="line" smooth="yes"/>
      <point x="1439" y="-325"/>
      <point x="1425" y="-348"/>
      <point x="1396" y="-350" type="curve" smooth="yes"/>
      <point x="1274" y="-358" type="line"/>
      <point x="1274" y="-446" type="line"/>
      <point x="1814" y="-446" type="line"/>
    </contour>
    <contour>
      <point x="1018" y="234" type="line"/>
      <point x="984" y="160"/>
      <point x="869" y="82"/>
      <point x="759" y="82" type="curve" smooth="yes"/>
      <point x="518" y="82"/>
      <point x="315" y="295"/>
      <point x="315" y="688" type="curve" smooth="yes"/>
      <point x="315" y="1014"/>
      <point x="453" y="1290"/>
      <point x="750" y="1290" type="curve" smooth="yes"/>
      <point x="868" y="1290"/>
      <point x="926" y="1269"/>
      <point x="1018" y="1209" type="curve"/>
    </contour>
  </outline>
</glyph>
<glyph name="LtnSmOi" format="2">
  <advance width="1516"/>
  <unicode hex="01A3"/>
  <anchor x="578" y="-100" name="L"/>
  <anchor x="778" y="1100" name="U"/>
  <outline>
    <contour>
      <point x="285" y="494" type="curve" smooth="yes"/>
      <point x="285" y="717"/>
      <point x="369" y="920"/>
      <point x="559" y="920" type="curve" smooth="yes"/>
      <point x="646" y="920"/>
      <point x="705" y="900"/>
      <point x="769" y="861" type="curve"/>
      <point x="769" y="200" type="line"/>
      <point x="739" y="128"/>
      <point x="666" y="68"/>
      <point x="557" y="68" type="curve" smooth="yes"/>
      <point x="373" y="68"/>
      <point x="285" y="272"/>
    </contour>
    <contour>
      <point x="1148" y="-315" type="line"/>
      <point x="1148" y="-340"/>
      <point x="1130" y="-358"/>
      <point x="1105" y="-360" type="curve" smooth="yes"/>
      <point x="1005" y="-366" type="line"/>
      <point x="1005" y="-446" type="line"/>
      <point x="1486" y="-446" type="line"/>
      <point x="1486" y="-366" type="line"/>
      <point x="1381" y="-360" type="line" smooth="yes"/>
      <point x="1357" y="-359"/>
      <point x="1338" y="-340"/>
      <point x="1338" y="-315" type="curve" smooth="yes"/>
      <point x="1338" y="1012" type="line"/>
      <point x="1254" y="1012" type="line"/>
      <point x="948" y="902" type="line"/>
      <point x="828" y="980"/>
      <point x="733" y="1012"/>
      <point x="561" y="1012" type="curve" smooth="yes"/>
      <point x="258" y="1012"/>
      <point x="70" y="784"/>
      <point x="70" y="492" type="curve" smooth="yes"/>
      <point x="70" y="197"/>
      <point x="256" y="-25"/>
      <point x="555" y="-25" type="curve" smooth="yes"/>
      <point x="758" y="-25"/>
      <point x="904" y="56"/>
      <point x="958" y="150" type="curve"/>
      <point x="958" y="787" type="line"/>
      <point x="1148" y="827" type="line"/>
    </contour>
  </outline>
</glyph>
<glyph name="LtnCapPHook" format="2">
  <advance width="1366"/>
  <unicode hex="01A4"/>
  <anchor x="643" y="-100" name="L"/>
  <anchor x="643" y="1500" name="U"/>
  <outline>
    <contour>
      <point x="1286" y="961" type="curve" smooth="yes"/>
      <point x="1286" y="1264"/>
      <point x="1108" y="1374"/>
      <point x="721" y="1374" type="curve" smooth="yes"/>
      <point x="334" y="1374" type="line" smooth="yes"/>
      <point x="119" y="1374"/>
      <point x="0" y="1305"/>
      <point x="0" y="1153" type="curve" smooth="yes"/>
      <point x="0" y="1087"/>
      <point x="53" y="1022"/>
      <point x="113" y="1022" type="curve" smooth="yes"/>
      <point x="162" y="1022"/>
      <point x="205" y="1040"/>
      <point x="244" y="1083" type="curve"/>
      <point x="158" y="1229" type="line"/>
      <point x="180" y="1262"/>
      <point x="207" y="1278"/>
      <point x="279" y="1278" type="curve" smooth="yes"/>
      <point x="357" y="1278" type="line" smooth="yes"/>
      <point x="383" y="1278"/>
      <point x="400" y="1262"/>
      <point x="400" y="1235" type="curve" smooth="yes"/>
      <point x="400" y="141" type="line" smooth="yes"/>
      <point x="400" y="125"/>
      <point x="379" y="98"/>
      <point x="352" y="96" type="curve" smooth="yes"/>
      <point x="246" y="88" type="line"/>
      <point x="246" y="0" type="line"/>
      <point x="785" y="0" type="line"/>
      <point x="785" y="88" type="line"/>
      <point x="649" y="96" type="line" smooth="yes"/>
      <point x="621" y="98"/>
      <point x="606" y="121"/>
      <point x="606" y="141" type="curve" smooth="yes"/>
      <point x="606" y="522" type="line"/>
      <point x="617" y="520"/>
      <point x="699" y="514"/>
      <point x="752" y="514" type="curve" smooth="yes"/>
      <point x="1049" y="514"/>
      <point x="1286" y="659"/>
    </contour>
    <contour>
      <point x="1073" y="958" type="curve" smooth="yes"/>
      <point x="1073" y="721"/>
      <point x="936" y="616"/>
      <point x="721" y="616" type="curve" smooth="yes"/>
      <point x="682" y="616"/>
      <point x="613" y="625"/>
      <point x="606" y="627" type="curve"/>
      <point x="606" y="1272" type="line"/>
      <point x="634" y="1273"/>
      <point x="683" y="1274"/>
      <point x="711" y="1274" type="curve" smooth="yes"/>
      <point x="971" y="1274"/>
      <point x="1073" y="1157"/>
    </contour>
  </outline>
</glyph>
<glyph name="LtnSmPHook" format="2">
  <advance width="1145"/>
  <unicode hex="01A5"/>
  <anchor x="769" y="-100" name="L"/>
  <anchor x="558" y="1470" name="U"/>
  <outline>
    <contour>
      <point x="43" y="-446" type="line"/>
      <point x="541" y="-446" type="line"/>
      <point x="541" y="-367" type="line"/>
      <point x="420" y="-354" type="line" smooth="yes"/>
      <point x="395" y="-352"/>
      <point x="375" y="-336"/>
      <point x="375" y="-311" type="curve" smooth="yes"/>
      <point x="375" y="-6" type="line"/>
      <point x="421" y="-14"/>
      <point x="501" y="-25"/>
      <point x="555" y="-25" type="curve" smooth="yes"/>
      <point x="879" y="-25"/>
      <point x="1073" y="186"/>
      <point x="1073" y="508" type="curve" smooth="yes"/>
      <point x="1073" y="813"/>
      <point x="893" y="1012"/>
      <point x="682" y="1012" type="curve" smooth="yes"/>
      <point x="565" y="1012"/>
      <point x="438" y="940"/>
      <point x="375" y="885" type="curve"/>
      <point x="375" y="940" type="line"/>
      <point x="375" y="1184"/>
      <point x="424" y="1256"/>
      <point x="522" y="1281" type="curve"/>
      <point x="704" y="1140" type="line"/>
      <point x="718" y="1140"/>
      <point x="796" y="1173"/>
      <point x="796" y="1255" type="curve" smooth="yes"/>
      <point x="796" y="1320"/>
      <point x="736" y="1380"/>
      <point x="590" y="1380" type="curve" smooth="yes"/>
      <point x="365" y="1380"/>
      <point x="184" y="1235"/>
      <point x="184" y="947" type="curve" smooth="yes"/>
      <point x="184" y="-311" type="line" smooth="yes"/>
      <point x="184" y="-336"/>
      <point x="166" y="-350"/>
      <point x="141" y="-354" type="curve" smooth="yes"/>
      <point x="43" y="-367" type="line"/>
    </contour>
    <contour>
      <point x="541" y="70" type="curve" smooth="yes"/>
      <point x="480" y="70"/>
      <point x="410" y="88"/>
      <point x="375" y="102" type="curve"/>
      <point x="375" y="807" type="line"/>
      <point x="421" y="833"/>
      <point x="509" y="868"/>
      <point x="584" y="868" type="curve" smooth="yes"/>
      <point x="772" y="868"/>
      <point x="868" y="690"/>
      <point x="868" y="479" type="curve" smooth="yes"/>
      <point x="868" y="266"/>
      <point x="766" y="70"/>
    </contour>
  </outline>
</glyph>
<glyph name="LtnYr" format="2">
  <advance width="1264"/>
  <unicode hex="01A6"/>
  <anchor x="685" y="-100" name="L"/>
  <anchor x="685" y="1500" name="U"/>
  <outline>
    <contour>
      <point x="1161" y="-143" type="curve" smooth="yes"/>
      <point x="1223" y="-143"/>
      <point x="1271" y="-125"/>
      <point x="1305" y="-112" type="curve"/>
      <point x="1305" y="-22" type="line"/>
      <point x="1286" y="-27"/>
      <point x="1254" y="-27"/>
      <point x="1239" y="-27" type="curve" smooth="yes"/>
      <point x="1152" y="-27"/>
      <point x="1099" y="82"/>
      <point x="991" y="339" type="curve" smooth="yes"/>
      <point x="939" y="462"/>
      <point x="861" y="575"/>
      <point x="738" y="601" type="curve"/>
      <point x="889" y="601"/>
      <point x="1059" y="701"/>
      <point x="1059" y="908" type="curve" smooth="yes"/>
      <point x="1059" y="1129"/>
      <point x="889" y="1188"/>
      <point x="566" y="1188" type="curve"/>
      <point x="437" y="1188" type="line"/>
      <point x="437" y="1233" type="line"/>
      <point x="439" y="1261"/>
      <point x="457" y="1274"/>
      <point x="481" y="1276" type="curve" smooth="yes"/>
      <point x="606" y="1284" type="line"/>
      <point x="606" y="1374" type="line"/>
      <point x="66" y="1374" type="line"/>
      <point x="66" y="1284" type="line"/>
      <point x="188" y="1276" type="line" smooth="yes"/>
      <point x="217" y="1274"/>
      <point x="231" y="1253"/>
      <point x="231" y="1233" type="curve" smooth="yes"/>
      <point x="231" y="141" type="line" smooth="yes"/>
      <point x="231" y="121"/>
      <point x="217" y="98"/>
      <point x="188" y="96" type="curve" smooth="yes"/>
      <point x="66" y="88" type="line"/>
      <point x="66" y="0" type="line"/>
      <point x="606" y="0" type="line"/>
      <point x="606" y="88" type="line"/>
      <point x="481" y="96" type="line"/>
      <point x="453" y="98"/>
      <point x="438" y="121"/>
      <point x="438" y="141" type="curve" smooth="yes"/>
      <point x="438" y="588" type="line"/>
      <point x="472" y="588" type="line"/>
      <point x="590" y="588"/>
      <point x="711" y="459"/>
      <point x="790" y="273" type="curve" smooth="yes"/>
      <point x="895" y="27"/>
      <point x="969" y="-143"/>
    </contour>
    <contour>
      <point x="544" y="691" type="curve" smooth="yes"/>
      <point x="493" y="691"/>
      <point x="460" y="693"/>
      <point x="437" y="695" type="curve"/>
      <point x="437" y="1090" type="line"/>
      <point x="535" y="1090" type="line"/>
      <point x="737" y="1090"/>
      <point x="830" y="1023"/>
      <point x="830" y="908" type="curve" smooth="yes"/>
      <point x="830" y="787"/>
      <point x="753" y="691"/>
    </contour>
  </outline>
</glyph>
<glyph name="LtnCapTnTwo" format="2">
  <advance width="1071"/>
  <unicode hex="01A7"/>
  <anchor x="535" y="-100" name="L"/>
  <anchor x="535" y="1500" name="U"/>
  <outline>
    <contour>
      <point x="610" y="-33" type="curve" smooth="yes"/>
      <point x="771" y="-33"/>
      <point x="914" y="10"/>
      <point x="976" y="43" type="curve"/>
      <point x="990" y="406" type="line"/>
      <point x="861" y="406" type="line"/>
      <point x="826" y="174" type="line" smooth="yes"/>
      <point x="824" y="158"/>
      <point x="804" y="135"/>
      <point x="790" y="129" type="curve" smooth="yes"/>
      <point x="784" y="127"/>
      <point x="708" y="82"/>
      <point x="581" y="82" type="curve" smooth="yes"/>
      <point x="410" y="82"/>
      <point x="288" y="168"/>
      <point x="288" y="315" type="curve" smooth="yes"/>
      <point x="288" y="479"/>
      <point x="510" y="559"/>
      <point x="660" y="637" type="curve" smooth="yes"/>
      <point x="830" y="727"/>
      <point x="990" y="847"/>
      <point x="990" y="1072" type="curve" smooth="yes"/>
      <point x="990" y="1304"/>
      <point x="793" y="1407"/>
      <point x="529" y="1407" type="curve" smooth="yes"/>
      <point x="373" y="1407"/>
      <point x="258" y="1376"/>
      <point x="166" y="1337" type="curve"/>
      <point x="154" y="1018" type="line"/>
      <point x="271" y="1018" type="line"/>
      <point x="310" y="1214" type="line"/>
      <point x="339" y="1261"/>
      <point x="405" y="1296"/>
      <point x="522" y="1296" type="curve" smooth="yes"/>
      <point x="682" y="1296"/>
      <point x="779" y="1218"/>
      <point x="779" y="1085" type="curve" smooth="yes"/>
      <point x="779" y="950"/>
      <point x="670" y="870"/>
      <point x="484" y="784" type="curve" smooth="yes"/>
      <point x="237" y="669"/>
      <point x="81" y="560"/>
      <point x="81" y="341" type="curve" smooth="yes"/>
      <point x="81" y="140"/>
      <point x="233" y="-33"/>
    </contour>
  </outline>
</glyph>
<glyph name="LtnSmTnTwo" format="2">
  <advance width="818"/>
  <unicode hex="01A8"/>
  <anchor x="409" y="-100" name="L"/>
  <anchor x="409" y="1100" name="U"/>
  <outline>
    <contour>
      <point x="452" y="-25" type="curve" smooth="yes"/>
      <point x="577" y="-25"/>
      <point x="697" y="10"/>
      <point x="738" y="27" type="curve"/>
      <point x="748" y="299" type="line"/>
      <point x="644" y="299" type="line"/>
      <point x="613" y="125" type="line"/>
      <point x="570" y="98"/>
      <point x="509" y="68"/>
      <point x="429" y="68" type="curve" smooth="yes"/>
      <point x="314" y="68"/>
      <point x="249" y="142"/>
      <point x="249" y="223" type="curve" smooth="yes"/>
      <point x="249" y="342"/>
      <point x="355" y="364"/>
      <point x="507" y="455" type="curve" smooth="yes"/>
      <point x="660" y="546"/>
      <point x="739" y="612"/>
      <point x="739" y="749" type="curve" smooth="yes"/>
      <point x="739" y="922"/>
      <point x="609" y="1012"/>
      <point x="379" y="1012" type="curve" smooth="yes"/>
      <point x="259" y="1012"/>
      <point x="168" y="983"/>
      <point x="125" y="965" type="curve"/>
      <point x="117" y="723" type="line"/>
      <point x="224" y="723" type="line"/>
      <point x="246" y="866" type="line"/>
      <point x="275" y="889"/>
      <point x="328" y="913"/>
      <point x="392" y="913" type="curve" smooth="yes"/>
      <point x="502" y="913"/>
      <point x="554" y="858"/>
      <point x="554" y="780" type="curve" smooth="yes"/>
      <point x="554" y="692"/>
      <point x="511" y="669"/>
      <point x="370" y="589" type="curve" smooth="yes"/>
      <point x="225" y="507"/>
      <point x="71" y="419"/>
      <point x="71" y="255" type="curve" smooth="yes"/>
      <point x="71" y="62"/>
      <point x="213" y="-25"/>
    </contour>
  </outline>
</glyph>
<glyph name="LtnRevEshLoop" format="2">
  <advance width="1047"/>
  <unicode hex="01AA"/>
  <anchor x="646" y="-500" name="L"/>
  <anchor x="646" y="1540" name="U"/>
  <outline>
    <contour>
      <point x="1223" y="-340" type="curve" smooth="yes"/>
      <point x="1223" y="-270"/>
      <point x="1178" y="-209"/>
      <point x="1110" y="-209" type="curve"/>
      <point x="944" y="-373" type="line"/>
      <point x="854" y="-342"/>
      <point x="844" y="-250"/>
      <point x="844" y="-43" type="curve" smooth="yes"/>
      <point x="844" y="1028" type="line" smooth="yes"/>
      <point x="844" y="1241"/>
      <point x="694" y="1409"/>
      <point x="457" y="1409" type="curve" smooth="yes"/>
      <point x="217" y="1409"/>
      <point x="70" y="1241"/>
      <point x="70" y="1028" type="curve" smooth="yes"/>
      <point x="70" y="813"/>
      <point x="219" y="649"/>
      <point x="455" y="649" type="curve" smooth="yes"/>
      <point x="530" y="649"/>
      <point x="598" y="668"/>
      <point x="653" y="698" type="curve"/>
      <point x="653" y="-43" type="line" smooth="yes"/>
      <point x="653" y="-287"/>
      <point x="791" y="-469"/>
      <point x="1042" y="-469" type="curve" smooth="yes"/>
      <point x="1161" y="-469"/>
      <point x="1223" y="-403"/>
    </contour>
    <contour>
      <point x="653" y="1028" type="curve" smooth="yes"/>
      <point x="653" y="868"/>
      <point x="594" y="733"/>
      <point x="455" y="733" type="curve" smooth="yes"/>
      <point x="322" y="733"/>
      <point x="260" y="868"/>
      <point x="260" y="1028" type="curve" smooth="yes"/>
      <point x="260" y="1188"/>
      <point x="317" y="1325"/>
      <point x="457" y="1325" type="curve" smooth="yes"/>
      <point x="592" y="1325"/>
      <point x="653" y="1188"/>
    </contour>
  </outline>
</glyph>
<glyph name="LtnSmTPalHook" format="2">
  <advance width="696"/>
  <unicode hex="01AB"/>
  <anchor x="358" y="-500" name="L"/>
  <anchor x="358" y="1363" name="U"/>
  <outline>
    <contour>
      <point x="682" y="-233" type="curve"/>
      <point x="682" y="125" type="line"/>
      <point x="656" y="110"/>
      <point x="599" y="90"/>
      <point x="541" y="90" type="curve" smooth="yes"/>
      <point x="432" y="90"/>
      <point x="377" y="150"/>
      <point x="377" y="313" type="curve" smooth="yes"/>
      <point x="377" y="885" type="line"/>
      <point x="666" y="885" type="line"/>
      <point x="666" y="987" type="line"/>
      <point x="377" y="987" type="line"/>
      <point x="377" y="1235" type="line"/>
      <point x="287" y="1235" type="line"/>
      <point x="195" y="1018" type="line"/>
      <point x="55" y="952" type="line"/>
      <point x="55" y="885" type="line"/>
      <point x="186" y="885" type="line"/>
      <point x="186" y="205" type="line" smooth="yes"/>
      <point x="186" y="43"/>
      <point x="252" y="-25"/>
      <point x="406" y="-25" type="curve" smooth="yes"/>
      <point x="486" y="-25"/>
      <point x="551" y="-8"/>
      <point x="578" y="4" type="curve"/>
      <point x="578" y="-244" type="line" smooth="yes"/>
      <point x="578" y="-332"/>
      <point x="537" y="-365"/>
      <point x="465" y="-365" type="curve"/>
      <point x="299" y="-221" type="line"/>
      <point x="287" y="-227"/>
      <point x="211" y="-250"/>
      <point x="211" y="-342" type="curve" smooth="yes"/>
      <point x="211" y="-401"/>
      <point x="299" y="-469"/>
      <point x="422" y="-469" type="curve" smooth="yes"/>
      <point x="598" y="-469"/>
      <point x="682" y="-389"/>
    </contour>
  </outline>
</glyph>
<glyph name="LtnCapTHook" format="2">
  <advance width="1211"/>
  <unicode hex="01AC"/>
  <anchor x="589" y="-100" name="L"/>
  <anchor x="589" y="1500" name="U"/>
  <outline>
    <contour>
      <point x="320" y="0" type="line"/>
      <point x="875" y="0" type="line"/>
      <point x="875" y="88" type="line"/>
      <point x="744" y="96" type="line" smooth="yes"/>
      <point x="715" y="98"/>
      <point x="701" y="121"/>
      <point x="701" y="141" type="curve" smooth="yes"/>
      <point x="701" y="1274" type="line"/>
      <point x="994" y="1274" type="line" smooth="yes"/>
      <point x="1012" y="1274"/>
      <point x="1025" y="1260"/>
      <point x="1028" y="1239" type="curve" smooth="yes"/>
      <point x="1057" y="1047" type="line"/>
      <point x="1178" y="1047" type="line"/>
      <point x="1178" y="1374" type="line"/>
      <point x="265" y="1374" type="line" smooth="yes"/>
      <point x="111" y="1374"/>
      <point x="0" y="1262"/>
      <point x="0" y="1094" type="curve" smooth="yes"/>
      <point x="0" y="973"/>
      <point x="76" y="924"/>
      <point x="136" y="924" type="curve" smooth="yes"/>
      <point x="185" y="924"/>
      <point x="236" y="969"/>
      <point x="275" y="1012" type="curve"/>
      <point x="136" y="1128" type="line"/>
      <point x="136" y="1147" type="line"/>
      <point x="136" y="1234"/>
      <point x="197" y="1274"/>
      <point x="260" y="1274" type="curve" smooth="yes"/>
      <point x="494" y="1274" type="line"/>
      <point x="494" y="141" type="line" smooth="yes"/>
      <point x="494" y="121"/>
      <point x="480" y="98"/>
      <point x="451" y="96" type="curve" smooth="yes"/>
      <point x="320" y="88" type="line"/>
    </contour>
  </outline>
</glyph>
<glyph name="LtnSmTHook" format="2">
  <advance width="696"/>
  <unicode hex="01AD"/>
  <anchor x="400" y="-100" name="L"/>
  <anchor x="400" y="1470" name="U"/>
  <outline>
    <contour>
      <point x="405" y="-29" type="curve" smooth="yes"/>
      <point x="498" y="-29"/>
      <point x="613" y="5"/>
      <point x="684" y="43" type="curve"/>
      <point x="684" y="125" type="line"/>
      <point x="648" y="104"/>
      <point x="593" y="86"/>
      <point x="541" y="86" type="curve" smooth="yes"/>
      <point x="432" y="86"/>
      <point x="377" y="149"/>
      <point x="377" y="313" type="curve" smooth="yes"/>
      <point x="377" y="885" type="line"/>
      <point x="666" y="885" type="line"/>
      <point x="666" y="987" type="line"/>
      <point x="377" y="987" type="line"/>
      <point x="377" y="1151"/>
      <point x="386" y="1236"/>
      <point x="434" y="1281" type="curve"/>
      <point x="616" y="1140" type="line"/>
      <point x="630" y="1140"/>
      <point x="708" y="1173"/>
      <point x="708" y="1255" type="curve" smooth="yes"/>
      <point x="708" y="1320"/>
      <point x="648" y="1380"/>
      <point x="532" y="1380" type="curve" smooth="yes"/>
      <point x="327" y="1380"/>
      <point x="186" y="1256"/>
      <point x="186" y="1018" type="curve"/>
      <point x="55" y="952" type="line"/>
      <point x="55" y="885" type="line"/>
      <point x="186" y="885" type="line"/>
      <point x="186" y="205" type="line" smooth="yes"/>
      <point x="186" y="44"/>
      <point x="252" y="-29"/>
    </contour>
  </outline>
</glyph>
<glyph name="LtnSmUHorn" format="2">
  <advance width="1326"/>
  <unicode hex="01B0"/>
  <anchor x="618" y="-100" name="L"/>
  <anchor x="618" y="1100" name="U"/>
  <outline>
    <contour>
      <point x="1296" y="1090" type="curve" smooth="yes"/>
      <point x="1296" y="1223"/>
      <point x="1212" y="1311"/>
      <point x="1112" y="1311" type="curve" smooth="yes"/>
      <point x="1040" y="1311"/>
      <point x="977" y="1266"/>
      <point x="977" y="1194" type="curve" smooth="yes"/>
      <point x="977" y="1137"/>
      <point x="1020" y="1081"/>
      <point x="1020" y="1081" type="curve"/>
      <point x="1176" y="1081" type="line"/>
      <point x="1176" y="969"/>
      <point x="1081" y="887"/>
      <point x="987" y="836" type="curve"/>
      <point x="987" y="1012" type="line"/>
      <point x="903" y="1012" type="line"/>
      <point x="653" y="932" type="line"/>
      <point x="653" y="862" type="line"/>
      <point x="797" y="862" type="line"/>
      <point x="797" y="176" type="line"/>
      <point x="748" y="152"/>
      <point x="659" y="115"/>
      <point x="575" y="115" type="curve" smooth="yes"/>
      <point x="430" y="115"/>
      <point x="377" y="201"/>
      <point x="377" y="346" type="curve" smooth="yes"/>
      <point x="377" y="1012" type="line"/>
      <point x="295" y="1012" type="line"/>
      <point x="43" y="932" type="line"/>
      <point x="43" y="862" type="line"/>
      <point x="186" y="862" type="line"/>
      <point x="186" y="307" type="line" smooth="yes"/>
      <point x="186" y="76"/>
      <point x="293" y="-25"/>
      <point x="469" y="-25" type="curve" smooth="yes"/>
      <point x="590" y="-25"/>
      <point x="727" y="63"/>
      <point x="797" y="117" type="curve"/>
      <point x="797" y="0" type="line"/>
      <point x="1122" y="0" type="line"/>
      <point x="1122" y="80" type="line"/>
      <point x="1032" y="86" type="line" smooth="yes"/>
      <point x="1008" y="88"/>
      <point x="987" y="106"/>
      <point x="987" y="131" type="curve" smooth="yes"/>
      <point x="987" y="750" type="line"/>
      <point x="1139" y="807"/>
      <point x="1296" y="956"/>
    </contour>
  </outline>
</glyph>
<glyph name="LtnCapUpsilon" format="2">
  <advance width="1399"/>
  <unicode hex="01B1"/>
  <anchor x="699" y="-100" name="L"/>
  <anchor x="699" y="1500" name="U"/>
  <outline>
    <contour>
      <point x="1319" y="639" type="curve" smooth="yes"/>
      <point x="1319" y="879"/>
      <point x="1190" y="1121"/>
      <point x="1110" y="1225" type="curve" smooth="yes"/>
      <point x="1095" y="1244"/>
      <point x="1102" y="1268"/>
      <point x="1122" y="1270" type="curve" smooth="yes"/>
      <point x="1268" y="1282" type="line"/>
      <point x="1268" y="1374" type="line"/>
      <point x="907" y="1374" type="line"/>
      <point x="1046" y="1112"/>
      <point x="1083" y="964"/>
      <point x="1083" y="702" type="curve" smooth="yes"/>
      <point x="1083" y="274"/>
      <point x="899" y="92"/>
      <point x="698" y="92" type="curve" smooth="yes"/>
      <point x="498" y="92"/>
      <point x="315" y="274"/>
      <point x="315" y="702" type="curve" smooth="yes"/>
      <point x="315" y="965"/>
      <point x="375" y="1152"/>
      <point x="489" y="1374" type="curve"/>
      <point x="131" y="1374" type="line"/>
      <point x="131" y="1282" type="line"/>
      <point x="274" y="1270" type="line" smooth="yes"/>
      <point x="295" y="1268"/>
      <point x="302" y="1244"/>
      <point x="287" y="1225" type="curve" smooth="yes"/>
      <point x="207" y="1121"/>
      <point x="80" y="879"/>
      <point x="80" y="639" type="curve" smooth="yes"/>
      <point x="80" y="299"/>
      <point x="291" y="-33"/>
      <point x="698" y="-33" type="curve" smooth="yes"/>
      <point x="1106" y="-33"/>
      <point x="1319" y="299"/>
    </contour>
  </outline>
</glyph>
<glyph name="LtnCapYHook.RtHook" format="2">
  <advance width="1530"/>
  <unicode hex="01B3"/>
  <anchor x="641" y="-100" name="L"/>
  <anchor x="793" y="0" name="O"/>
  <anchor x="641" y="1500" name="U"/>
  <outline>
    <contour>
      <point x="360" y="0" type="line"/>
      <point x="913" y="0" type="line"/>
      <point x="913" y="88" type="line"/>
      <point x="782" y="96" type="line" smooth="yes"/>
      <point x="754" y="98"/>
      <point x="739" y="121"/>
      <point x="739" y="141" type="curve" smooth="yes"/>
      <point x="739" y="584" type="line"/>
      <point x="1067" y="1134" type="line" smooth="yes"/>
      <point x="1152" y="1276"/>
      <point x="1199" y="1320"/>
      <point x="1265" y="1320" type="curve"/>
      <point x="1418" y="1186" type="line"/>
      <point x="1475" y="1219"/>
      <point x="1529" y="1261"/>
      <point x="1530" y="1329" type="curve" smooth="yes"/>
      <point x="1531" y="1399"/>
      <point x="1463" y="1466"/>
      <point x="1336" y="1466" type="curve" smooth="yes"/>
      <point x="1163" y="1466"/>
      <point x="1071" y="1377"/>
      <point x="973" y="1212" type="curve" smooth="yes"/>
      <point x="668" y="700" type="line"/>
      <point x="379" y="1235" type="line" smooth="yes"/>
      <point x="371" y="1251"/>
      <point x="371" y="1272"/>
      <point x="403" y="1276" type="curve" smooth="yes"/>
      <point x="506" y="1286" type="line"/>
      <point x="506" y="1374" type="line"/>
      <point x="20" y="1374" type="line"/>
      <point x="20" y="1286" type="line"/>
      <point x="139" y="1262" type="line"/>
      <point x="532" y="553" type="line"/>
      <point x="532" y="141" type="line" smooth="yes"/>
      <point x="532" y="121"/>
      <point x="516" y="98"/>
      <point x="487" y="96" type="curve" smooth="yes"/>
      <point x="360" y="88" type="line"/>
    </contour>
  </outline>
</glyph>
<glyph name="LtnSmYHook.RtHook" format="2">
  <advance width="1157"/>
  <unicode hex="01B4"/>
  <anchor x="779" y="-100" name="L"/>
  <anchor x="479" y="-399" name="O"/>
  <anchor x="561" y="1100" name="U"/>
  <outline>
    <contour>
      <point x="211" y="-469" type="curve" smooth="yes"/>
      <point x="281" y="-469"/>
      <point x="340" y="-440"/>
      <point x="389" y="-391" type="curve" smooth="yes"/>
      <point x="461" y="-319"/>
      <point x="521" y="-186"/>
      <point x="565" y="-63" type="curve" smooth="yes"/>
      <point x="907" y="891" type="line" smooth="yes"/>
      <point x="970" y="1067"/>
      <point x="1015" y="1133"/>
      <point x="1058" y="1165" type="curve"/>
      <point x="1225" y="1060" type="line"/>
      <point x="1239" y="1060"/>
      <point x="1317" y="1093"/>
      <point x="1317" y="1175" type="curve" smooth="yes"/>
      <point x="1317" y="1240"/>
      <point x="1252" y="1300"/>
      <point x="1146" y="1300" type="curve" smooth="yes"/>
      <point x="1017" y="1300"/>
      <point x="915" y="1223"/>
      <point x="815" y="941" type="curve" smooth="yes"/>
      <point x="575" y="265" type="line"/>
      <point x="344" y="858" type="line" smooth="yes"/>
      <point x="335" y="881"/>
      <point x="352" y="901"/>
      <point x="375" y="903" type="curve" smooth="yes"/>
      <point x="473" y="909" type="line"/>
      <point x="473" y="987" type="line"/>
      <point x="20" y="987" type="line"/>
      <point x="20" y="909" type="line"/>
      <point x="133" y="897" type="line"/>
      <point x="481" y="2" type="line"/>
      <point x="451" y="-88"/>
      <point x="387" y="-250"/>
      <point x="319" y="-317" type="curve"/>
      <point x="127" y="-229" type="line"/>
      <point x="80" y="-268"/>
      <point x="61" y="-305"/>
      <point x="61" y="-352" type="curve" smooth="yes"/>
      <point x="61" y="-414"/>
      <point x="115" y="-469"/>
    </contour>
  </outline>
</glyph>
<glyph name="LtnCapZStrk" format="2">
  <advance width="1178"/>
  <unicode hex="01B5"/>
  <anchor x="610" y="-100" name="L"/>
  <anchor x="610" y="1500" name="U"/>
  <outline>
    <contour>
      <point x="1098" y="0" type="line"/>
      <point x="1098" y="379" type="line"/>
      <point x="977" y="379" type="line"/>
      <point x="942" y="141" type="line"/>
      <point x="938" y="121"/>
      <point x="926" y="104"/>
      <point x="907" y="104" type="curve" smooth="yes"/>
      <point x="324" y="104" type="line"/>
      <point x="1087" y="1280" type="line"/>
      <point x="1087" y="1374" type="line"/>
      <point x="123" y="1374" type="line"/>
      <point x="123" y="1047" type="line"/>
      <point x="244" y="1047" type="line"/>
      <point x="274" y="1237" type="line"/>
      <point x="279" y="1257"/>
      <point x="291" y="1272"/>
      <point x="309" y="1272" type="curve" smooth="yes"/>
      <point x="842" y="1272" type="line"/>
      <point x="80" y="90" type="line"/>
      <point x="80" y="0" type="line"/>
    </contour>
    <contour>
      <point x="972" y="688" type="line"/>
      <point x="972" y="791" type="line"/>
      <point x="261" y="791" type="line"/>
      <point x="261" y="688" type="line"/>
    </contour>
  </outline>
</glyph>
<glyph name="LtnSmEzhTail" format="2">
  <advance width="993"/>
  <unicode hex="01BA"/>
  <anchor x="497" y="-500" name="L"/>
  <anchor x="497" y="1100" name="U"/>
  <outline>
    <contour>
      <point x="500" y="-469" type="curve" smooth="yes"/>
      <point x="776" y="-469"/>
      <point x="924" y="-338"/>
      <point x="924" y="-238" type="curve" smooth="yes"/>
      <point x="924" y="-182"/>
      <point x="883" y="-117"/>
      <point x="801" y="-117" type="curve" smooth="yes"/>
      <point x="784" y="-117"/>
      <point x="750" y="-121"/>
      <point x="733" y="-133" type="curve"/>
      <point x="670" y="-324" type="line"/>
      <point x="616" y="-354"/>
      <point x="559" y="-375"/>
      <point x="494" y="-375" type="curve" smooth="yes"/>
      <point x="420" y="-375"/>
      <point x="332" y="-319"/>
      <point x="332" y="-246" type="curve" smooth="yes"/>
      <point x="332" y="2"/>
      <point x="922" y="-25"/>
      <point x="922" y="285" type="curve" smooth="yes"/>
      <point x="922" y="547"/>
      <point x="627" y="512"/>
      <point x="580" y="512" type="curve"/>
      <point x="893" y="850" type="line"/>
      <point x="893" y="987" type="line"/>
      <point x="70" y="987" type="line"/>
      <point x="70" y="612" type="line"/>
      <point x="176" y="612" type="line"/>
      <point x="197" y="768" type="line" smooth="yes"/>
      <point x="199" y="786"/>
      <point x="215" y="811"/>
      <point x="236" y="811" type="curve" smooth="yes"/>
      <point x="713" y="811" type="line"/>
      <point x="305" y="377" type="line"/>
      <point x="322" y="342" type="line"/>
      <point x="372" y="358"/>
      <point x="458" y="379"/>
      <point x="512" y="379" type="curve" smooth="yes"/>
      <point x="592" y="379"/>
      <point x="741" y="367"/>
      <point x="741" y="289" type="curve" smooth="yes"/>
      <point x="741" y="88"/>
      <point x="168" y="76"/>
      <point x="168" y="-209" type="curve" smooth="yes"/>
      <point x="168" y="-367"/>
      <point x="295" y="-469"/>
    </contour>
  </outline>
</glyph>
<glyph name="LtnCapTnFive" format="2">
  <advance width="1139"/>
  <unicode hex="01BC"/>
  <anchor x="551" y="-100" name="L"/>
  <anchor x="551" y="1500" name="U"/>
  <outline>
    <contour>
      <point x="481" y="-33" type="curve" smooth="yes"/>
      <point x="858" y="-33"/>
      <point x="1059" y="166"/>
      <point x="1059" y="444" type="curve" smooth="yes"/>
      <point x="1059" y="817"/>
      <point x="616" y="941"/>
      <point x="381" y="941" type="curve"/>
      <point x="381" y="1235" type="line"/>
      <point x="381" y="1251"/>
      <point x="395" y="1278"/>
      <point x="424" y="1278" type="curve" smooth="yes"/>
      <point x="818" y="1278" type="line" smooth="yes"/>
      <point x="836" y="1278"/>
      <point x="850" y="1260"/>
      <point x="853" y="1239" type="curve" smooth="yes"/>
      <point x="879" y="1055" type="line"/>
      <point x="992" y="1055" type="line"/>
      <point x="992" y="1374" type="line"/>
      <point x="43" y="1374" type="line"/>
      <point x="43" y="1286" type="line"/>
      <point x="151" y="1278" type="line"/>
      <point x="180" y="1274"/>
      <point x="194" y="1251"/>
      <point x="194" y="1235" type="curve"/>
      <point x="194" y="774" type="line"/>
      <point x="513" y="774"/>
      <point x="850" y="658"/>
      <point x="850" y="395" type="curve" smooth="yes"/>
      <point x="850" y="250"/>
      <point x="729" y="68"/>
      <point x="512" y="68" type="curve" smooth="yes"/>
      <point x="465" y="68"/>
      <point x="378" y="97"/>
      <point x="345" y="128" type="curve"/>
      <point x="276" y="315" type="line"/>
      <point x="268" y="317"/>
      <point x="234" y="325"/>
      <point x="211" y="325" type="curve" smooth="yes"/>
      <point x="137" y="325"/>
      <point x="92" y="275"/>
      <point x="92" y="209" type="curve" smooth="yes"/>
      <point x="92" y="78"/>
      <point x="268" y="-33"/>
    </contour>
  </outline>
</glyph>
<glyph name="LtnSmTnFive" format="2">
  <advance width="895"/>
  <unicode hex="01BD"/>
  <anchor x="435" y="-100" name="L"/>
  <anchor x="435" y="1100" name="U"/>
  <outline>
    <contour>
      <point x="408" y="-24" type="curve" smooth="yes"/>
      <point x="653" y="-24"/>
      <point x="825" y="119"/>
      <point x="825" y="319" type="curve" smooth="yes"/>
      <point x="825" y="608"/>
      <point x="539" y="686"/>
      <point x="365" y="686" type="curve"/>
      <point x="365" y="858" type="line"/>
      <point x="365" y="870"/>
      <point x="376" y="889"/>
      <point x="396" y="889" type="curve" smooth="yes"/>
      <point x="624" y="889" type="line" smooth="yes"/>
      <point x="638" y="889"/>
      <point x="648" y="876"/>
      <point x="650" y="861" type="curve" smooth="yes"/>
      <point x="668" y="748" type="line"/>
      <point x="760" y="748" type="line"/>
      <point x="760" y="987" type="line"/>
      <point x="45" y="987" type="line"/>
      <point x="45" y="895" type="line"/>
      <point x="143" y="889" type="line"/>
      <point x="164" y="886"/>
      <point x="174" y="870"/>
      <point x="174" y="858" type="curve" smooth="yes"/>
      <point x="174" y="556" type="line"/>
      <point x="420" y="556"/>
      <point x="654" y="476"/>
      <point x="654" y="284" type="curve" smooth="yes"/>
      <point x="654" y="143"/>
      <point x="567" y="68"/>
      <point x="435" y="68" type="curve" smooth="yes"/>
      <point x="401" y="68"/>
      <point x="346" y="71"/>
      <point x="322" y="93" type="curve"/>
      <point x="250" y="279" type="line"/>
      <point x="244" y="281"/>
      <point x="206" y="288"/>
      <point x="190" y="288" type="curve" smooth="yes"/>
      <point x="136" y="288"/>
      <point x="88" y="231"/>
      <point x="88" y="165" type="curve" smooth="yes"/>
      <point x="88" y="49"/>
      <point x="250" y="-24"/>
    </contour>
  </outline>
</glyph>
<glyph name="LtnInvGlottalStopStrk" format="2">
  <advance width="954"/>
  <unicode hex="01BE"/>
  <anchor x="477" y="-100" name="L"/>
  <anchor x="477" y="1540" name="U"/>
  <outline>
    <contour>
      <point x="874" y="332" type="curve" smooth="yes"/>
      <point x="874" y="592"/>
      <point x="674" y="698"/>
      <point x="561" y="750" type="curve"/>
      <point x="561" y="842" type="line"/>
      <point x="823" y="842" type="line"/>
      <point x="823" y="946" type="line"/>
      <point x="561" y="946" type="line"/>
      <point x="561" y="1243" type="line" smooth="yes"/>
      <point x="561" y="1262"/>
      <point x="588" y="1282"/>
      <point x="606" y="1284" type="curve" smooth="yes"/>
      <point x="713" y="1294" type="line"/>
      <point x="713" y="1374" type="line"/>
      <point x="221" y="1374" type="line"/>
      <point x="221" y="1294" type="line"/>
      <point x="326" y="1284" type="line" smooth="yes"/>
      <point x="344" y="1282"/>
      <point x="371" y="1262"/>
      <point x="371" y="1243" type="curve" smooth="yes"/>
      <point x="371" y="946" type="line"/>
      <point x="102" y="946" type="line"/>
      <point x="102" y="842" type="line"/>
      <point x="371" y="842" type="line"/>
      <point x="371" y="731" type="line"/>
      <point x="500" y="688"/>
      <point x="670" y="555"/>
      <point x="670" y="352" type="curve" smooth="yes"/>
      <point x="670" y="172"/>
      <point x="563" y="59"/>
      <point x="453" y="59" type="curve" smooth="yes"/>
      <point x="412" y="59"/>
      <point x="371" y="70"/>
      <point x="334" y="96" type="curve"/>
      <point x="279" y="274" type="line"/>
      <point x="250" y="291"/>
      <point x="218" y="305"/>
      <point x="188" y="305" type="curve" smooth="yes"/>
      <point x="106" y="305"/>
      <point x="80" y="248"/>
      <point x="80" y="188" type="curve" smooth="yes"/>
      <point x="80" y="92"/>
      <point x="225" y="-33"/>
      <point x="449" y="-33" type="curve" smooth="yes"/>
      <point x="690" y="-33"/>
      <point x="874" y="109"/>
    </contour>
  </outline>
</glyph>
<glyph name="LtnLateralClick" format="2">
  <advance width="713"/>
  <unicode hex="01C1"/>
  <anchor x="356" y="-500" name="L"/>
  <anchor x="356" y="1570" name="U"/>
  <outline>
    <contour>
      <point x="539" y="-440" type="line"/>
      <point x="539" y="1507" type="line"/>
      <point x="434" y="1507" type="line"/>
      <point x="434" y="-440" type="line"/>
    </contour>
    <contour>
      <point x="279" y="-440" type="line"/>
      <point x="279" y="1507" type="line"/>
      <point x="174" y="1507" type="line"/>
      <point x="174" y="-440" type="line"/>
    </contour>
  </outline>
</glyph>
<glyph name="LtnRetrClick" format="2">
  <advance width="472"/>
  <unicode hex="01C3"/>
  <anchor x="236" y="-100" name="L"/>
  <anchor x="236" y="1540" name="U"/>
  <outline>
    <contour>
      <point x="360" y="1274" type="line"/>
      <point x="360" y="1356"/>
      <point x="321" y="1407"/>
      <point x="235" y="1407" type="curve" smooth="yes"/>
      <point x="149" y="1407"/>
      <point x="110" y="1356"/>
      <point x="110" y="1274" type="curve"/>
      <point x="186" y="371" type="line"/>
      <point x="286" y="371" type="line"/>
    </contour>
    <contour>
      <point x="362" y="102" type="curve" smooth="yes"/>
      <point x="362" y="172"/>
      <point x="305" y="227"/>
      <point x="235" y="227" type="curve" smooth="yes"/>
      <point x="165" y="227"/>
      <point x="110" y="172"/>
      <point x="110" y="102" type="curve" smooth="yes"/>
      <point x="110" y="35"/>
      <point x="165" y="-25"/>
      <point x="235" y="-25" type="curve" smooth="yes"/>
      <point x="305" y="-25"/>
      <point x="362" y="35"/>
    </contour>
  </outline>
</glyph>
<glyph name="LtnSmOOgonek" format="2">
  <advance width="1114"/>
  <unicode hex="01EB"/>
  <anchor x="557" y="0" name="H"/>
  <anchor x="622" y="-400" name="L"/>
  <anchor x="1114" y="1000" name="R"/>
  <anchor x="557" y="1100" name="U"/>
  <outline>
    <contour>
      <point x="871" y="-334" type="curve"/>
      <point x="822" y="-252" type="line"/>
      <point x="822" y="-252"/>
      <point x="769" y="-289"/>
      <point x="738" y="-289" type="curve" smooth="yes"/>
      <point x="664" y="-289"/>
      <point x="619" y="-256"/>
      <point x="619" y="-188" type="curve" smooth="yes"/>
      <point x="619" y="-102"/>
      <point x="688" y="-24"/>
      <point x="800" y="38" type="curve"/>
      <point x="671" y="21" type="line"/>
      <point x="610" y="-9"/>
      <point x="490" y="-127"/>
      <point x="490" y="-242" type="curve" smooth="yes"/>
      <point x="490" y="-340"/>
      <point x="568" y="-391"/>
      <point x="695" y="-391" type="curve" smooth="yes"/>
      <point x="756" y="-391"/>
      <point x="871" y="-334"/>
    </contour>
    <contour>
      <point x="1044" y="492" type="curve" smooth="yes"/>
      <point x="1044" y="780"/>
      <point x="866" y="1012"/>
      <point x="561" y="1012" type="curve" smooth="yes"/>
      <point x="258" y="1012"/>
      <point x="70" y="784"/>
      <point x="70" y="492" type="curve" smooth="yes"/>
      <point x="70" y="197"/>
      <point x="256" y="-25"/>
      <point x="555" y="-25" type="curve" smooth="yes"/>
      <point x="854" y="-25"/>
      <point x="1044" y="201"/>
    </contour>
    <contour>
      <point x="831" y="494" type="curve" smooth="yes"/>
      <point x="831" y="270"/>
      <point x="745" y="68"/>
      <point x="557" y="68" type="curve" smooth="yes"/>
      <point x="373" y="68"/>
      <point x="285" y="272"/>
      <point x="285" y="494" type="curve" smooth="yes"/>
      <point x="285" y="717"/>
      <point x="369" y="920"/>
      <point x="559" y="920" type="curve" smooth="yes"/>
      <point x="743" y="920"/>
      <point x="831" y="717"/>
    </contour>
  </outline>
</glyph>
<glyph name="LtnSmOOgonekMacron" format="2">
  <advance width="1114"/>
  <unicode hex="01ED"/>
  <anchor x="557" y="0" name="H"/>
  <anchor x="622" y="-400" name="L"/>
  <anchor x="1114" y="1000" name="R"/>
  <anchor x="557" y="1470" name="U"/>
  <outline>
    <component base="LtnSmO"/>
    <component base="CombMacron" xOffset="1114"/>
    <contour>
      <point x="871" y="-334" type="curve"/>
      <point x="822" y="-252" type="line"/>
      <point x="822" y="-252"/>
      <point x="769" y="-289"/>
      <point x="738" y="-289" type="curve" smooth="yes"/>
      <point x="664" y="-289"/>
      <point x="619" y="-256"/>
      <point x="619" y="-188" type="curve" smooth="yes"/>
      <point x="619" y="-102"/>
      <point x="691" y="-24"/>
      <point x="803" y="38" type="curve"/>
      <point x="671" y="21" type="line"/>
      <point x="610" y="-9"/>
      <point x="490" y="-127"/>
      <point x="490" y="-242" type="curve" smooth="yes"/>
      <point x="490" y="-340"/>
      <point x="568" y="-391"/>
      <point x="695" y="-391" type="curve" smooth="yes"/>
      <point x="756" y="-391"/>
      <point x="871" y="-334"/>
    </contour>
  </outline>
</glyph>
<glyph name="LtnCapNLngRtLeg" format="2">
  <advance width="1484"/>
  <unicode hex="0220"/>
  <anchor x="523" y="-100" name="L"/>
  <anchor x="753" y="1500" name="U"/>
  <outline>
    <contour>
      <point x="946" y="-446" type="line"/>
      <point x="1460" y="-446" type="line"/>
      <point x="1460" y="-358" type="line"/>
      <point x="1350" y="-350" type="line" smooth="yes"/>
      <point x="1323" y="-348"/>
      <point x="1305" y="-325"/>
      <point x="1305" y="-305" type="curve" smooth="yes"/>
      <point x="1305" y="987" type="line" smooth="yes"/>
      <point x="1305" y="1266"/>
      <point x="1090" y="1407"/>
      <point x="860" y="1407" type="curve" smooth="yes"/>
      <point x="696" y="1407"/>
      <point x="578" y="1331"/>
      <point x="424" y="1208" type="curve"/>
      <point x="424" y="1374" type="line"/>
      <point x="47" y="1374" type="line"/>
      <point x="47" y="1286" type="line"/>
      <point x="176" y="1276" type="line" smooth="yes"/>
      <point x="201" y="1274"/>
      <point x="217" y="1253"/>
      <point x="217" y="1237" type="curve" smooth="yes"/>
      <point x="217" y="141" type="line"/>
      <point x="217" y="121"/>
      <point x="203" y="98"/>
      <point x="174" y="96" type="curve" smooth="yes"/>
      <point x="70" y="88" type="line"/>
      <point x="70" y="0" type="line"/>
      <point x="594" y="0" type="line"/>
      <point x="594" y="88" type="line"/>
      <point x="467" y="96" type="line" smooth="yes"/>
      <point x="438" y="98"/>
      <point x="424" y="121"/>
      <point x="424" y="141" type="curve"/>
      <point x="424" y="1092" type="line"/>
      <point x="532" y="1176"/>
      <point x="643" y="1237"/>
      <point x="780" y="1237" type="curve" smooth="yes"/>
      <point x="965" y="1237"/>
      <point x="1098" y="1122"/>
      <point x="1098" y="938" type="curve" smooth="yes"/>
      <point x="1098" y="-303" type="line" smooth="yes"/>
      <point x="1098" y="-323"/>
      <point x="1081" y="-343"/>
      <point x="1053" y="-346" type="curve" smooth="yes"/>
      <point x="946" y="-358" type="line"/>
    </contour>
  </outline>
</glyph>
<glyph name="LtnSmDCurl" format="2">
  <advance width="1284"/>
  <unicode hex="0221"/>
  <anchor x="698" y="-320" name="L"/>
  <anchor x="698" y="1540" name="U"/>
  <outline>
    <contour>
      <point x="621" y="-225" type="line"/>
      <point x="662" y="-133"/>
      <point x="721" y="-12"/>
      <point x="803" y="92" type="curve"/>
      <point x="840" y="14"/>
      <point x="920" y="-20"/>
      <point x="1034" y="-20" type="curve" smooth="yes"/>
      <point x="1186" y="-20"/>
      <point x="1327" y="51"/>
      <point x="1327" y="233" type="curve" smooth="yes"/>
      <point x="1327" y="317"/>
      <point x="1276" y="408"/>
      <point x="1169" y="408" type="curve" smooth="yes"/>
      <point x="1100" y="408"/>
      <point x="1034" y="371"/>
      <point x="971" y="340" type="curve"/>
      <point x="971" y="1509" type="line"/>
      <point x="889" y="1509" type="line"/>
      <point x="625" y="1430" type="line"/>
      <point x="625" y="1362" type="line"/>
      <point x="780" y="1362" type="line"/>
      <point x="780" y="987" type="line"/>
      <point x="748" y="995"/>
      <point x="659" y="1012"/>
      <point x="594" y="1012" type="curve" smooth="yes"/>
      <point x="242" y="1012"/>
      <point x="70" y="745"/>
      <point x="70" y="467" type="curve" smooth="yes"/>
      <point x="70" y="236"/>
      <point x="190" y="-25"/>
      <point x="465" y="-25" type="curve" smooth="yes"/>
      <point x="528" y="-25"/>
      <point x="590" y="-8"/>
      <point x="647" y="20" type="curve"/>
      <point x="610" y="-37"/>
      <point x="559" y="-131"/>
      <point x="539" y="-197" type="curve"/>
    </contour>
    <contour>
      <point x="571" y="115" type="curve" smooth="yes"/>
      <point x="383" y="115"/>
      <point x="272" y="279"/>
      <point x="272" y="502" type="curve" smooth="yes"/>
      <point x="272" y="750"/>
      <point x="406" y="913"/>
      <point x="608" y="913" type="curve" smooth="yes"/>
      <point x="668" y="913"/>
      <point x="745" y="895"/>
      <point x="780" y="883" type="curve"/>
      <point x="780" y="250" type="line"/>
      <point x="780" y="233"/>
      <point x="780" y="216"/>
      <point x="780" y="199" type="curve"/>
      <point x="717" y="137"/>
      <point x="670" y="115"/>
    </contour>
    <contour>
      <point x="1087" y="57" type="curve" smooth="yes"/>
      <point x="993" y="57"/>
      <point x="973" y="162"/>
      <point x="971" y="252" type="curve"/>
      <point x="1026" y="287"/>
      <point x="1085" y="309"/>
      <point x="1149" y="309" type="curve" smooth="yes"/>
      <point x="1212" y="309"/>
      <point x="1237" y="283"/>
      <point x="1237" y="221" type="curve" smooth="yes"/>
      <point x="1237" y="139"/>
      <point x="1167" y="57"/>
    </contour>
  </outline>
</glyph>
<glyph name="LtnSmOu" format="2">
  <advance width="1051"/>
  <unicode hex="0223"/>
  <anchor x="525" y="-100" name="L"/>
  <anchor x="525" y="1580" name="U"/>
  <outline>
    <contour>
      <point x="527" y="-25" type="curve" smooth="yes"/>
      <point x="787" y="-25"/>
      <point x="981" y="165"/>
      <point x="981" y="396" type="curve" smooth="yes"/>
      <point x="981" y="594"/>
      <point x="834" y="743"/>
      <point x="653" y="785" type="curve"/>
      <point x="788" y="812"/>
      <point x="930" y="921"/>
      <point x="930" y="1127" type="curve" smooth="yes"/>
      <point x="930" y="1370"/>
      <point x="757" y="1509"/>
      <point x="527" y="1509" type="curve" smooth="yes"/>
      <point x="303" y="1509"/>
      <point x="121" y="1370"/>
      <point x="121" y="1127" type="curve" smooth="yes"/>
      <point x="121" y="921"/>
      <point x="267" y="806"/>
      <point x="399" y="785" type="curve"/>
      <point x="219" y="749"/>
      <point x="70" y="595"/>
      <point x="70" y="396" type="curve" smooth="yes"/>
      <point x="70" y="164"/>
      <point x="250" y="-25"/>
    </contour>
    <contour>
      <point x="728" y="1131" type="curve" smooth="yes"/>
      <point x="728" y="971"/>
      <point x="659" y="841"/>
      <point x="526" y="841" type="curve" smooth="yes"/>
      <point x="378" y="841"/>
      <point x="323" y="978"/>
      <point x="323" y="1131" type="curve" smooth="yes"/>
      <point x="323" y="1268"/>
      <point x="383" y="1407"/>
      <point x="527" y="1407" type="curve" smooth="yes"/>
      <point x="652" y="1407"/>
      <point x="728" y="1301"/>
    </contour>
    <contour>
      <point x="527" y="84" type="curve" smooth="yes"/>
      <point x="356" y="84"/>
      <point x="280" y="224"/>
      <point x="280" y="413" type="curve" smooth="yes"/>
      <point x="280" y="590"/>
      <point x="371" y="729"/>
      <point x="526" y="729" type="curve" smooth="yes"/>
      <point x="673" y="729"/>
      <point x="771" y="614"/>
      <point x="771" y="413" type="curve" smooth="yes"/>
      <point x="771" y="232"/>
      <point x="690" y="84"/>
    </contour>
  </outline>
</glyph>
<glyph name="LtnSmNCurl" format="2">
  <advance width="1329"/>
  <unicode hex="0235"/>
  <anchor x="580" y="-320" name="L"/>
  <anchor x="580" y="1100" name="U"/>
  <outline>
    <contour>
      <point x="1350" y="225" type="curve" smooth="yes"/>
      <point x="1350" y="319"/>
      <point x="1288" y="385"/>
      <point x="1184" y="385" type="curve" smooth="yes"/>
      <point x="1112" y="385"/>
      <point x="1047" y="369"/>
      <point x="985" y="338" type="curve"/>
      <point x="987" y="696" type="line" smooth="yes"/>
      <point x="987" y="895"/>
      <point x="891" y="1012"/>
      <point x="713" y="1012" type="curve" smooth="yes"/>
      <point x="618" y="1012"/>
      <point x="489" y="950"/>
      <point x="375" y="885" type="curve"/>
      <point x="375" y="987" type="line"/>
      <point x="293" y="987" type="line"/>
      <point x="41" y="909" type="line"/>
      <point x="41" y="842" type="line"/>
      <point x="184" y="842" type="line"/>
      <point x="184" y="131" type="line" smooth="yes"/>
      <point x="184" y="106"/>
      <point x="166" y="88"/>
      <point x="141" y="86" type="curve" smooth="yes"/>
      <point x="43" y="80" type="line"/>
      <point x="43" y="0" type="line"/>
      <point x="504" y="0" type="line"/>
      <point x="504" y="80" type="line"/>
      <point x="418" y="86" type="line"/>
      <point x="393" y="90"/>
      <point x="375" y="106"/>
      <point x="375" y="131" type="curve" smooth="yes"/>
      <point x="375" y="803" type="line"/>
      <point x="444" y="838"/>
      <point x="522" y="864"/>
      <point x="598" y="864" type="curve" smooth="yes"/>
      <point x="741" y="864"/>
      <point x="797" y="791"/>
      <point x="797" y="662" type="curve" smooth="yes"/>
      <point x="797" y="197" type="line"/>
      <point x="662" y="59"/>
      <point x="571" y="-119"/>
      <point x="547" y="-203" type="curve"/>
      <point x="637" y="-238" type="line"/>
      <point x="662" y="-180"/>
      <point x="729" y="-43"/>
      <point x="825" y="78" type="curve"/>
      <point x="858" y="25"/>
      <point x="926" y="-16"/>
      <point x="1053" y="-16" type="curve" smooth="yes"/>
      <point x="1206" y="-16"/>
      <point x="1350" y="74"/>
    </contour>
    <contour>
      <point x="1260" y="205" type="curve" smooth="yes"/>
      <point x="1260" y="119"/>
      <point x="1182" y="68"/>
      <point x="1096" y="68" type="curve" smooth="yes"/>
      <point x="1026" y="68"/>
      <point x="999" y="154"/>
      <point x="989" y="233" type="curve"/>
      <point x="1047" y="270"/>
      <point x="1108" y="293"/>
      <point x="1171" y="293" type="curve" smooth="yes"/>
      <point x="1221" y="293"/>
      <point x="1260" y="260"/>
    </contour>
  </outline>
</glyph>
<glyph name="LtnCapAStrk" format="2">
  <advance width="1380"/>
  <unicode hex="023A"/>
  <anchor x="1109" y="0" name="H"/>
  <anchor x="690" y="-100" name="L"/>
  <anchor x="1267" y="0" name="O"/>
  <anchor x="690" y="1500" name="U"/>
  <outline>
    <component base="LtnCapA"/>
    <contour>
      <point x="162" y="-104" type="line"/>
      <point x="256" y="-162" type="line"/>
      <point x="1231" y="1475" type="line"/>
      <point x="1134" y="1532" type="line"/>
    </contour>
  </outline>
</glyph>
<glyph name="LtnSmSSwashTail" format="2">
  <advance width="815"/>
  <unicode hex="023F"/>
  <anchor x="442" y="-500" name="L"/>
  <anchor x="442" y="1100" name="U"/>
  <outline>
    <contour>
      <point x="651" y="-469" type="curve" smooth="yes"/>
      <point x="749" y="-469"/>
      <point x="815" y="-412"/>
      <point x="815" y="-342" type="curve" smooth="yes"/>
      <point x="815" y="-276"/>
      <point x="771" y="-239"/>
      <point x="737" y="-229" type="curve"/>
      <point x="575" y="-356" type="line"/>
      <point x="498" y="-356"/>
      <point x="360" y="-57"/>
      <point x="301" y="-19" type="curve"/>
      <point x="315" y="-23"/>
      <point x="337" y="-25"/>
      <point x="354" y="-25" type="curve"/>
      <point x="598" y="-25"/>
      <point x="745" y="96"/>
      <point x="745" y="297" type="curve" smooth="yes"/>
      <point x="745" y="430"/>
      <point x="640" y="501"/>
      <point x="498" y="565" type="curve" smooth="yes"/>
      <point x="325" y="643"/>
      <point x="270" y="684"/>
      <point x="270" y="776" type="curve" smooth="yes"/>
      <point x="270" y="856"/>
      <point x="324" y="913"/>
      <point x="436" y="913" type="curve" smooth="yes"/>
      <point x="500" y="913"/>
      <point x="563" y="889"/>
      <point x="592" y="866" type="curve"/>
      <point x="608" y="723" type="line"/>
      <point x="715" y="723" type="line"/>
      <point x="715" y="965" type="line"/>
      <point x="674" y="983"/>
      <point x="573" y="1012"/>
      <point x="453" y="1012" type="curve" smooth="yes"/>
      <point x="217" y="1012"/>
      <point x="84" y="897"/>
      <point x="84" y="715" type="curve" smooth="yes"/>
      <point x="84" y="592"/>
      <point x="166" y="531"/>
      <point x="315" y="455" type="curve" smooth="yes"/>
      <point x="472" y="375"/>
      <point x="565" y="342"/>
      <point x="565" y="227" type="curve" smooth="yes"/>
      <point x="565" y="145"/>
      <point x="498" y="68"/>
      <point x="381" y="68" type="curve" smooth="yes"/>
      <point x="301" y="68"/>
      <point x="240" y="98"/>
      <point x="199" y="125" type="curve"/>
      <point x="174" y="299" type="line"/>
      <point x="70" y="299" type="line"/>
      <point x="70" y="27" type="line"/>
      <point x="274" y="27"/>
      <point x="322" y="-469"/>
    </contour>
  </outline>
</glyph>
<glyph name="LtnSmZSwashTail" format="2">
  <advance width="946"/>
  <unicode hex="0240"/>
  <anchor x="502" y="-500" name="L"/>
  <anchor x="502" y="1100" name="U"/>
  <outline>
    <contour>
      <point x="848" y="903" type="line"/>
      <point x="848" y="987" type="line"/>
      <point x="90" y="987" type="line"/>
      <point x="90" y="696" type="line"/>
      <point x="195" y="696" type="line"/>
      <point x="215" y="848" type="line"/>
      <point x="219" y="866"/>
      <point x="236" y="891"/>
      <point x="256" y="891" type="curve" smooth="yes"/>
      <point x="612" y="891" type="line"/>
      <point x="70" y="109" type="line"/>
      <point x="70" y="0" type="line"/>
      <point x="132" y="0" type="line"/>
      <point x="298" y="0"/>
      <point x="495" y="-469"/>
      <point x="770" y="-469" type="curve" smooth="yes"/>
      <point x="868" y="-469"/>
      <point x="934" y="-412"/>
      <point x="934" y="-342" type="curve" smooth="yes"/>
      <point x="934" y="-276"/>
      <point x="890" y="-239"/>
      <point x="856" y="-229" type="curve"/>
      <point x="694" y="-356" type="line"/>
      <point x="617" y="-356"/>
      <point x="401" y="58"/>
      <point x="287" y="98" type="curve"/>
    </contour>
  </outline>
</glyph>
<glyph name="LtnCapJStrk" format="2">
  <advance width="993"/>
  <unicode hex="0248"/>
  <anchor x="410" y="-100" name="L"/>
  <anchor x="708" y="47" name="O"/>
  <anchor x="675" y="1500" name="U"/>
  <outline>
    <contour>
      <point x="993" y="668" type="line"/>
      <point x="993" y="772" type="line"/>
      <point x="778" y="772" type="line"/>
      <point x="778" y="1233" type="line" smooth="yes"/>
      <point x="778" y="1253"/>
      <point x="793" y="1276"/>
      <point x="821" y="1278" type="curve" smooth="yes"/>
      <point x="940" y="1286" type="line"/>
      <point x="940" y="1374" type="line"/>
      <point x="399" y="1374" type="line"/>
      <point x="399" y="1286" type="line"/>
      <point x="528" y="1278" type="line" smooth="yes"/>
      <point x="557" y="1276"/>
      <point x="571" y="1253"/>
      <point x="571" y="1233" type="curve" smooth="yes"/>
      <point x="571" y="772" type="line"/>
      <point x="274" y="772" type="line"/>
      <point x="274" y="668" type="line"/>
      <point x="571" y="668" type="line"/>
      <point x="571" y="504" type="line" smooth="yes"/>
      <point x="571" y="217"/>
      <point x="500" y="72"/>
      <point x="313" y="72" type="curve" smooth="yes"/>
      <point x="272" y="72"/>
      <point x="227" y="84"/>
      <point x="219" y="125" type="curve" smooth="yes"/>
      <point x="174" y="375" type="line"/>
      <point x="51" y="375" type="line"/>
      <point x="51" y="25" type="line"/>
      <point x="63" y="20"/>
      <point x="195" y="-33"/>
      <point x="328" y="-33" type="curve" smooth="yes"/>
      <point x="659" y="-33"/>
      <point x="778" y="178"/>
      <point x="778" y="518" type="curve" smooth="yes"/>
      <point x="778" y="668" type="line"/>
    </contour>
  </outline>
</glyph>
<glyph name="LtnSmTurnedA" format="2">
  <advance width="1042"/>
  <unicode hex="0250"/>
  <anchor x="504" y="-100" name="L"/>
  <anchor x="1042" y="1000" name="R"/>
  <anchor x="504" y="1100" name="U"/>
  <outline>
    <contour>
      <point x="973" y="735" type="curve" smooth="yes"/>
      <point x="973" y="907"/>
      <point x="854" y="1012"/>
      <point x="707" y="1012" type="curve" smooth="yes"/>
      <point x="547" y="1012"/>
      <point x="367" y="866"/>
      <point x="367" y="866" type="curve"/>
      <point x="340" y="987" type="line"/>
      <point x="35" y="987" type="line"/>
      <point x="35" y="907" type="line"/>
      <point x="133" y="901" type="line" smooth="yes"/>
      <point x="158" y="899"/>
      <point x="176" y="881"/>
      <point x="176" y="856" type="curve" smooth="yes"/>
      <point x="176" y="283" type="line" smooth="yes"/>
      <point x="176" y="104"/>
      <point x="246" y="-25"/>
      <point x="500" y="-25" type="curve" smooth="yes"/>
      <point x="702" y="-25"/>
      <point x="926" y="49"/>
      <point x="926" y="217" type="curve" smooth="yes"/>
      <point x="926" y="268"/>
      <point x="887" y="276"/>
      <point x="850" y="276" type="curve" smooth="yes"/>
      <point x="700" y="276" type="line"/>
      <point x="700" y="98" type="line"/>
      <point x="680" y="90"/>
      <point x="627" y="72"/>
      <point x="555" y="72" type="curve" smooth="yes"/>
      <point x="424" y="72"/>
      <point x="367" y="137"/>
      <point x="367" y="274" type="curve" smooth="yes"/>
      <point x="367" y="274"/>
      <point x="367" y="356"/>
      <point x="367" y="362" type="curve"/>
      <point x="903" y="479"/>
      <point x="973" y="584"/>
    </contour>
    <contour>
      <point x="770" y="721" type="curve" smooth="yes"/>
      <point x="770" y="621"/>
      <point x="735" y="532"/>
      <point x="367" y="440" type="curve"/>
      <point x="367" y="795" type="line"/>
      <point x="367" y="795"/>
      <point x="508" y="891"/>
      <point x="616" y="891" type="curve" smooth="yes"/>
      <point x="715" y="891"/>
      <point x="770" y="805"/>
    </contour>
  </outline>
</glyph>
<glyph name="LtnSmBHook" format="2">
  <advance width="1110"/>
  <unicode hex="0253"/>
  <anchor x="600" y="-100" name="L"/>
  <anchor x="600" y="1540" name="U"/>
  <outline>
    <contour>
      <point x="1040" y="539" type="curve" smooth="yes"/>
      <point x="1040" y="791"/>
      <point x="903" y="1010"/>
      <point x="635" y="1010" type="curve" smooth="yes"/>
      <point x="514" y="1010"/>
      <point x="397" y="954"/>
      <point x="350" y="932" type="curve"/>
      <point x="350" y="1087" type="line" smooth="yes"/>
      <point x="350" y="1294"/>
      <point x="449" y="1407"/>
      <point x="578" y="1407" type="curve"/>
      <point x="713" y="1262" type="line"/>
      <point x="713" y="1262"/>
      <point x="821" y="1284"/>
      <point x="821" y="1380" type="curve" smooth="yes"/>
      <point x="821" y="1448"/>
      <point x="754" y="1509"/>
      <point x="616" y="1509" type="curve" smooth="yes"/>
      <point x="467" y="1509"/>
      <point x="319" y="1450"/>
      <point x="236" y="1307" type="curve" smooth="yes"/>
      <point x="170" y="1194"/>
      <point x="160" y="1106"/>
      <point x="160" y="944" type="curve" smooth="yes"/>
      <point x="160" y="0" type="line"/>
      <point x="449" y="0" type="line" smooth="yes"/>
      <point x="868" y="0"/>
      <point x="1040" y="229"/>
    </contour>
    <contour>
      <point x="834" y="498" type="curve" smooth="yes"/>
      <point x="834" y="209"/>
      <point x="698" y="98"/>
      <point x="455" y="98" type="curve" smooth="yes"/>
      <point x="350" y="98" type="line"/>
      <point x="350" y="858" type="line"/>
      <point x="391" y="872"/>
      <point x="473" y="887"/>
      <point x="518" y="887" type="curve" smooth="yes"/>
      <point x="717" y="887"/>
      <point x="834" y="756"/>
    </contour>
  </outline>
</glyph>
<glyph name="LtnSmDTail" format="2">
  <advance width="1188"/>
  <unicode hex="0256"/>
  <anchor x="463" y="-100" name="L"/>
  <anchor x="1188" y="1000" name="R"/>
  <anchor x="586" y="1540" name="U"/>
  <outline>
    <contour>
      <point x="1335" y="-342" type="curve" smooth="yes"/>
      <point x="1335" y="-252"/>
      <point x="1247" y="-229"/>
      <point x="1247" y="-229" type="curve"/>
      <point x="1063" y="-371" type="line"/>
      <point x="967" y="-334"/>
      <point x="971" y="-270"/>
      <point x="971" y="-43" type="curve" smooth="yes"/>
      <point x="971" y="1509" type="line"/>
      <point x="889" y="1509" type="line"/>
      <point x="625" y="1430" type="line"/>
      <point x="625" y="1362" type="line"/>
      <point x="780" y="1362" type="line"/>
      <point x="780" y="987" type="line"/>
      <point x="748" y="995"/>
      <point x="657" y="1012"/>
      <point x="592" y="1012" type="curve" smooth="yes"/>
      <point x="240" y="1012"/>
      <point x="70" y="745"/>
      <point x="70" y="467" type="curve" smooth="yes"/>
      <point x="70" y="236"/>
      <point x="188" y="-25"/>
      <point x="463" y="-25" type="curve" smooth="yes"/>
      <point x="582" y="-25"/>
      <point x="686" y="37"/>
      <point x="780" y="109" type="curve"/>
      <point x="780" y="-43" type="line" smooth="yes"/>
      <point x="780" y="-285"/>
      <point x="895" y="-469"/>
      <point x="1143" y="-469" type="curve" smooth="yes"/>
      <point x="1270" y="-469"/>
      <point x="1335" y="-412"/>
    </contour>
    <contour>
      <point x="780" y="186" type="line"/>
      <point x="727" y="154"/>
      <point x="651" y="115"/>
      <point x="569" y="115" type="curve" smooth="yes"/>
      <point x="381" y="115"/>
      <point x="272" y="279"/>
      <point x="272" y="502" type="curve" smooth="yes"/>
      <point x="272" y="750"/>
      <point x="403" y="913"/>
      <point x="606" y="913" type="curve" smooth="yes"/>
      <point x="666" y="913"/>
      <point x="745" y="895"/>
      <point x="780" y="883" type="curve"/>
    </contour>
  </outline>
</glyph>
<glyph name="LtnSmSchwa" format="2">
  <advance width="1004"/>
  <unicode hex="0259"/>
  <anchor x="480" y="0" name="H"/>
  <anchor x="480" y="-100" name="L"/>
  <anchor x="676" y="0" name="O"/>
  <anchor x="480" y="1100" name="U"/>
  <outline>
    <contour>
      <point x="453" y="-25" type="curve" smooth="yes"/>
      <point x="731" y="-25"/>
      <point x="934" y="184"/>
      <point x="934" y="504" type="curve" smooth="yes"/>
      <point x="934" y="846"/>
      <point x="707" y="1012"/>
      <point x="459" y="1012" type="curve" smooth="yes"/>
      <point x="319" y="1012"/>
      <point x="184" y="956"/>
      <point x="70" y="885" type="curve"/>
      <point x="70" y="760" type="line"/>
      <point x="162" y="821"/>
      <point x="276" y="887"/>
      <point x="393" y="887" type="curve" smooth="yes"/>
      <point x="657" y="887"/>
      <point x="735" y="662"/>
      <point x="735" y="453" type="curve"/>
      <point x="72" y="453" type="line"/>
      <point x="70" y="434"/>
      <point x="70" y="410"/>
      <point x="70" y="395" type="curve" smooth="yes"/>
      <point x="70" y="152"/>
      <point x="199" y="-25"/>
    </contour>
    <contour>
      <point x="473" y="76" type="curve" smooth="yes"/>
      <point x="338" y="76"/>
      <point x="274" y="180"/>
      <point x="274" y="315" type="curve" smooth="yes"/>
      <point x="274" y="360" type="line"/>
      <point x="725" y="360" type="line"/>
      <point x="715" y="184"/>
      <point x="608" y="76"/>
    </contour>
  </outline>
</glyph>
<glyph name="LtnSmOpnE" format="2">
  <advance width="899"/>
  <unicode hex="025B"/>
  <anchor x="460" y="0" name="H"/>
  <anchor x="490" y="-100" name="L"/>
  <anchor x="706" y="0" name="O"/>
  <anchor x="899" y="1000" name="R"/>
  <anchor x="490" y="1100" name="U"/>
  <outline>
    <contour>
      <point x="494" y="-25" type="curve" smooth="yes"/>
      <point x="606" y="-25"/>
      <point x="745" y="35"/>
      <point x="850" y="127" type="curve"/>
      <point x="850" y="246" type="line"/>
      <point x="754" y="154"/>
      <point x="625" y="76"/>
      <point x="492" y="76" type="curve" smooth="yes"/>
      <point x="342" y="76"/>
      <point x="268" y="154"/>
      <point x="268" y="279" type="curve" smooth="yes"/>
      <point x="268" y="418"/>
      <point x="371" y="442"/>
      <point x="477" y="442" type="curve"/>
      <point x="481" y="444"/>
      <point x="535" y="442"/>
      <point x="541" y="442" type="curve"/>
      <point x="541" y="530" type="line"/>
      <point x="397" y="530"/>
      <point x="313" y="598"/>
      <point x="313" y="743" type="curve" smooth="yes"/>
      <point x="313" y="864"/>
      <point x="401" y="928"/>
      <point x="502" y="928" type="curve" smooth="yes"/>
      <point x="588" y="928"/>
      <point x="618" y="874"/>
      <point x="621" y="872" type="curve"/>
      <point x="621" y="727" type="line"/>
      <point x="621" y="727"/>
      <point x="655" y="684"/>
      <point x="729" y="684" type="curve" smooth="yes"/>
      <point x="782" y="684"/>
      <point x="838" y="741"/>
      <point x="838" y="805" type="curve" smooth="yes"/>
      <point x="838" y="936"/>
      <point x="688" y="1012"/>
      <point x="473" y="1012" type="curve" smooth="yes"/>
      <point x="285" y="1012"/>
      <point x="121" y="899"/>
      <point x="121" y="743" type="curve" smooth="yes"/>
      <point x="121" y="657"/>
      <point x="184" y="547"/>
      <point x="313" y="502" type="curve"/>
      <point x="190" y="487"/>
      <point x="70" y="418"/>
      <point x="70" y="276" type="curve" smooth="yes"/>
      <point x="70" y="80"/>
      <point x="211" y="-25"/>
    </contour>
  </outline>
</glyph>
<glyph name="LtnSmRevOpnE" format="2">
  <advance width="899"/>
  <unicode hex="025C"/>
  <anchor x="439" y="-100" name="L"/>
  <anchor x="439" y="1100" name="U"/>
  <outline>
    <contour>
      <point x="406" y="-25" type="curve" smooth="yes"/>
      <point x="688" y="-25"/>
      <point x="829" y="80"/>
      <point x="829" y="276" type="curve" smooth="yes"/>
      <point x="829" y="418"/>
      <point x="711" y="487"/>
      <point x="588" y="502" type="curve"/>
      <point x="717" y="547"/>
      <point x="778" y="657"/>
      <point x="778" y="743" type="curve" smooth="yes"/>
      <point x="778" y="899"/>
      <point x="614" y="1012"/>
      <point x="426" y="1012" type="curve" smooth="yes"/>
      <point x="211" y="1012"/>
      <point x="61" y="936"/>
      <point x="61" y="805" type="curve" smooth="yes"/>
      <point x="61" y="741"/>
      <point x="117" y="684"/>
      <point x="170" y="684" type="curve" smooth="yes"/>
      <point x="244" y="684"/>
      <point x="279" y="727"/>
      <point x="279" y="727" type="curve"/>
      <point x="279" y="872" type="line"/>
      <point x="281" y="874"/>
      <point x="311" y="928"/>
      <point x="397" y="928" type="curve" smooth="yes"/>
      <point x="498" y="928"/>
      <point x="588" y="864"/>
      <point x="588" y="743" type="curve" smooth="yes"/>
      <point x="588" y="598"/>
      <point x="502" y="530"/>
      <point x="358" y="530" type="curve"/>
      <point x="358" y="442" type="line"/>
      <point x="365" y="442"/>
      <point x="420" y="444"/>
      <point x="424" y="442" type="curve"/>
      <point x="530" y="442"/>
      <point x="633" y="418"/>
      <point x="633" y="279" type="curve" smooth="yes"/>
      <point x="633" y="154"/>
      <point x="557" y="76"/>
      <point x="408" y="76" type="curve" smooth="yes"/>
      <point x="274" y="76"/>
      <point x="145" y="154"/>
      <point x="49" y="246" type="curve"/>
      <point x="49" y="127" type="line"/>
      <point x="154" y="35"/>
      <point x="293" y="-25"/>
    </contour>
  </outline>
</glyph>
<glyph name="LtnSmRevOpnEHook" format="2">
  <advance width="1155"/>
  <unicode hex="025D"/>
  <anchor x="440" y="-100" name="L"/>
  <anchor x="440" y="1100" name="U"/>
  <outline>
    <contour>
      <point x="1180" y="752" type="curve"/>
      <point x="1120" y="791" type="line"/>
      <point x="1112" y="709"/>
      <point x="1094" y="635"/>
      <point x="1032" y="635" type="curve" smooth="yes"/>
      <point x="989" y="635"/>
      <point x="979" y="692"/>
      <point x="979" y="758" type="curve" smooth="yes"/>
      <point x="979" y="920" type="line"/>
      <point x="920" y="952" type="line"/>
      <point x="770" y="850" type="line"/>
      <point x="715" y="948"/>
      <point x="590" y="1012"/>
      <point x="446" y="1012" type="curve" smooth="yes"/>
      <point x="231" y="1012"/>
      <point x="82" y="936"/>
      <point x="82" y="805" type="curve" smooth="yes"/>
      <point x="82" y="741"/>
      <point x="137" y="684"/>
      <point x="190" y="684" type="curve" smooth="yes"/>
      <point x="264" y="684"/>
      <point x="299" y="727"/>
      <point x="299" y="727" type="curve"/>
      <point x="299" y="872" type="line"/>
      <point x="299" y="872"/>
      <point x="334" y="928"/>
      <point x="418" y="928" type="curve" smooth="yes"/>
      <point x="518" y="928"/>
      <point x="606" y="864"/>
      <point x="606" y="743" type="curve" smooth="yes"/>
      <point x="606" y="596"/>
      <point x="522" y="530"/>
      <point x="379" y="530" type="curve"/>
      <point x="379" y="442" type="line"/>
      <point x="442" y="442" type="line" smooth="yes"/>
      <point x="549" y="442"/>
      <point x="651" y="420"/>
      <point x="651" y="279" type="curve" smooth="yes"/>
      <point x="651" y="154"/>
      <point x="578" y="76"/>
      <point x="428" y="76" type="curve" smooth="yes"/>
      <point x="295" y="76"/>
      <point x="166" y="154"/>
      <point x="70" y="246" type="curve"/>
      <point x="70" y="127" type="line"/>
      <point x="174" y="35"/>
      <point x="313" y="-25"/>
      <point x="426" y="-25" type="curve" smooth="yes"/>
      <point x="709" y="-25"/>
      <point x="850" y="80"/>
      <point x="850" y="276" type="curve" smooth="yes"/>
      <point x="850" y="418"/>
      <point x="729" y="489"/>
      <point x="606" y="502" type="curve"/>
      <point x="735" y="547"/>
      <point x="799" y="657"/>
      <point x="799" y="743" type="curve" smooth="yes"/>
      <point x="799" y="754"/>
      <point x="799" y="764"/>
      <point x="797" y="774" type="curve"/>
      <point x="905" y="850" type="line"/>
      <point x="905" y="713" type="line" smooth="yes"/>
      <point x="905" y="637"/>
      <point x="944" y="555"/>
      <point x="1024" y="555" type="curve" smooth="yes"/>
      <point x="1153" y="555"/>
      <point x="1171" y="668"/>
    </contour>
  </outline>
</glyph>
<glyph name="LtnSmDotlessJStrk" format="2">
  <advance width="598"/>
  <unicode hex="025F"/>
  <anchor x="125" y="-500" name="L"/>
  <anchor x="347" y="-377" name="O"/>
  <anchor x="598" y="1000" name="R"/>
  <anchor x="323" y="1100" name="U"/>
  <outline>
    <contour>
      <point x="573" y="457" type="line"/>
      <point x="573" y="559" type="line"/>
      <point x="414" y="559" type="line"/>
      <point x="414" y="1012" type="line"/>
      <point x="330" y="1012" type="line"/>
      <point x="78" y="934" type="line"/>
      <point x="78" y="866" type="line"/>
      <point x="223" y="866" type="line"/>
      <point x="223" y="559" type="line"/>
      <point x="25" y="559" type="line"/>
      <point x="25" y="457" type="line"/>
      <point x="223" y="457" type="line"/>
      <point x="223" y="-43" type="line" smooth="yes"/>
      <point x="223" y="-201"/>
      <point x="201" y="-332"/>
      <point x="125" y="-375" type="curve"/>
      <point x="-74" y="-238" type="line"/>
      <point x="-115" y="-252"/>
      <point x="-162" y="-287"/>
      <point x="-162" y="-356" type="curve" smooth="yes"/>
      <point x="-162" y="-434"/>
      <point x="-90" y="-469"/>
      <point x="-6" y="-469" type="curve" smooth="yes"/>
      <point x="123" y="-469"/>
      <point x="250" y="-408"/>
      <point x="334" y="-279" type="curve" smooth="yes"/>
      <point x="403" y="-170"/>
      <point x="414" y="8"/>
      <point x="414" y="131" type="curve" smooth="yes"/>
      <point x="414" y="457" type="line"/>
    </contour>
  </outline>
</glyph>
<glyph name="LtnSmGHook" format="2">
  <advance width="1156"/>
  <unicode hex="0260"/>
  <anchor x="596" y="-500" name="L"/>
  <anchor x="596" y="1250" name="U"/>
  <outline>
    <contour>
      <point x="495" y="-469" type="curve" smooth="yes"/>
      <point x="878" y="-469"/>
      <point x="973" y="-156"/>
      <point x="973" y="4" type="curve"/>
      <point x="973" y="900" type="line" smooth="yes"/>
      <point x="973" y="1134"/>
      <point x="984" y="1186"/>
      <point x="1032" y="1231" type="curve"/>
      <point x="1214" y="1090" type="line"/>
      <point x="1228" y="1090"/>
      <point x="1306" y="1123"/>
      <point x="1306" y="1205" type="curve" smooth="yes"/>
      <point x="1306" y="1270"/>
      <point x="1246" y="1330"/>
      <point x="1130" y="1330" type="curve" smooth="yes"/>
      <point x="925" y="1330"/>
      <point x="784" y="1210"/>
      <point x="784" y="932" type="curve"/>
      <point x="721" y="987"/>
      <point x="651" y="1012"/>
      <point x="586" y="1012" type="curve" smooth="yes"/>
      <point x="238" y="1012"/>
      <point x="70" y="745"/>
      <point x="70" y="467" type="curve" smooth="yes"/>
      <point x="70" y="236"/>
      <point x="190" y="-25"/>
      <point x="465" y="-25" type="curve" smooth="yes"/>
      <point x="584" y="-25"/>
      <point x="688" y="37"/>
      <point x="782" y="109" type="curve"/>
      <point x="782" y="88"/>
      <point x="782" y="4"/>
      <point x="782" y="4" type="curve"/>
      <point x="782" y="-221"/>
      <point x="670" y="-367"/>
      <point x="484" y="-367" type="curve" smooth="yes"/>
      <point x="439" y="-367"/>
      <point x="400" y="-348"/>
      <point x="377" y="-328" type="curve"/>
      <point x="310" y="-156" type="line"/>
      <point x="310" y="-156"/>
      <point x="275" y="-146"/>
      <point x="249" y="-146" type="curve" smooth="yes"/>
      <point x="163" y="-146"/>
      <point x="128" y="-201"/>
      <point x="128" y="-262" type="curve" smooth="yes"/>
      <point x="128" y="-385"/>
      <point x="273" y="-469"/>
    </contour>
    <contour>
      <point x="569" y="119" type="curve" smooth="yes"/>
      <point x="381" y="119"/>
      <point x="272" y="279"/>
      <point x="272" y="502" type="curve" smooth="yes"/>
      <point x="272" y="750"/>
      <point x="395" y="911"/>
      <point x="598" y="911" type="curve" smooth="yes"/>
      <point x="657" y="911"/>
      <point x="741" y="868"/>
      <point x="782" y="825" type="curve"/>
      <point x="782" y="186" type="line"/>
      <point x="729" y="152"/>
      <point x="651" y="119"/>
    </contour>
  </outline>
</glyph>
<glyph name="LtnSmRamsHorn" format="2">
  <advance width="1178"/>
  <unicode hex="0264"/>
  <anchor x="588" y="-100" name="L"/>
  <anchor x="1178" y="1000" name="R"/>
  <anchor x="588" y="1100" name="U"/>
  <outline>
    <contour>
      <point x="1145" y="641" type="line"/>
      <point x="1148" y="669"/>
      <point x="1157" y="754"/>
      <point x="1157" y="793" type="curve" smooth="yes"/>
      <point x="1157" y="909"/>
      <point x="1090" y="1012"/>
      <point x="987" y="1012" type="curve" smooth="yes"/>
      <point x="897" y="1012"/>
      <point x="789" y="884"/>
      <point x="686" y="731" type="curve" smooth="yes"/>
      <point x="434" y="355" type="line" smooth="yes"/>
      <point x="394" y="295"/>
      <point x="369" y="231"/>
      <point x="369" y="164" type="curve" smooth="yes"/>
      <point x="369" y="63"/>
      <point x="444" y="-25"/>
      <point x="596" y="-25" type="curve" smooth="yes"/>
      <point x="731" y="-25"/>
      <point x="807" y="84"/>
      <point x="807" y="176" type="curve" smooth="yes"/>
      <point x="807" y="255"/>
      <point x="794" y="293"/>
      <point x="751" y="362" type="curve" smooth="yes"/>
      <point x="496" y="776" type="line" smooth="yes"/>
      <point x="417" y="904"/>
      <point x="324" y="1012"/>
      <point x="197" y="1012" type="curve" smooth="yes"/>
      <point x="66" y="1012"/>
      <point x="20" y="879"/>
      <point x="20" y="748" type="curve" smooth="yes"/>
      <point x="20" y="727"/>
      <point x="24" y="678"/>
      <point x="29" y="641" type="curve"/>
      <point x="92" y="641" type="line"/>
      <point x="98" y="754"/>
      <point x="124" y="807"/>
      <point x="197" y="807" type="curve" smooth="yes"/>
      <point x="274" y="807"/>
      <point x="325" y="727"/>
      <point x="360" y="668" type="curve" smooth="yes"/>
      <point x="590" y="286" type="line" smooth="yes"/>
      <point x="617" y="242"/>
      <point x="637" y="196"/>
      <point x="637" y="170" type="curve" smooth="yes"/>
      <point x="637" y="129"/>
      <point x="608" y="86"/>
      <point x="555" y="86" type="curve" smooth="yes"/>
      <point x="512" y="86"/>
      <point x="483" y="131"/>
      <point x="483" y="174" type="curve" smooth="yes"/>
      <point x="483" y="201"/>
      <point x="500" y="240"/>
      <point x="526" y="279" type="curve" smooth="yes"/>
      <point x="725" y="584" type="line" smooth="yes"/>
      <point x="817" y="725"/>
      <point x="892" y="807"/>
      <point x="961" y="807" type="curve" smooth="yes"/>
      <point x="1032" y="807"/>
      <point x="1063" y="727"/>
      <point x="1077" y="641" type="curve"/>
    </contour>
  </outline>
</glyph>
<glyph name="LtnSmHengHook" format="2">
  <advance width="1136"/>
  <unicode hex="0267"/>
  <anchor x="517" y="-500" name="L"/>
  <anchor x="517" y="1540" name="U"/>
  <outline>
    <contour>
      <point x="991" y="-43" type="curve"/>
      <point x="991" y="692" type="line" smooth="yes"/>
      <point x="991" y="901"/>
      <point x="870" y="1012"/>
      <point x="713" y="1012" type="curve" smooth="yes"/>
      <point x="606" y="1012"/>
      <point x="446" y="930"/>
      <point x="373" y="885" type="curve"/>
      <point x="373" y="1059" type="line" smooth="yes"/>
      <point x="373" y="1284"/>
      <point x="494" y="1405"/>
      <point x="623" y="1405" type="curve" smooth="yes"/>
      <point x="668" y="1405"/>
      <point x="717" y="1386"/>
      <point x="739" y="1366" type="curve"/>
      <point x="809" y="1194" type="line"/>
      <point x="809" y="1194"/>
      <point x="829" y="1184"/>
      <point x="858" y="1184" type="curve" smooth="yes"/>
      <point x="920" y="1184"/>
      <point x="971" y="1239"/>
      <point x="971" y="1300" type="curve" smooth="yes"/>
      <point x="971" y="1452"/>
      <point x="834" y="1509"/>
      <point x="612" y="1509" type="curve" smooth="yes"/>
      <point x="260" y="1509"/>
      <point x="184" y="1163"/>
      <point x="184" y="1059" type="curve" smooth="yes"/>
      <point x="184" y="131" type="line" smooth="yes"/>
      <point x="184" y="106"/>
      <point x="166" y="88"/>
      <point x="141" y="86" type="curve" smooth="yes"/>
      <point x="43" y="80" type="line"/>
      <point x="43" y="0" type="line"/>
      <point x="504" y="0" type="line"/>
      <point x="504" y="80" type="line"/>
      <point x="416" y="86" type="line" smooth="yes"/>
      <point x="391" y="88"/>
      <point x="375" y="106"/>
      <point x="375" y="131" type="curve" smooth="yes"/>
      <point x="375" y="803" type="line"/>
      <point x="434" y="836"/>
      <point x="526" y="862"/>
      <point x="598" y="862" type="curve" smooth="yes"/>
      <point x="756" y="862"/>
      <point x="801" y="776"/>
      <point x="801" y="659" type="curve" smooth="yes"/>
      <point x="801" y="-113" type="line" smooth="yes"/>
      <point x="801" y="-252"/>
      <point x="760" y="-367"/>
      <point x="631" y="-367" type="curve"/>
      <point x="473" y="-188" type="line"/>
      <point x="457" y="-190"/>
      <point x="373" y="-227"/>
      <point x="373" y="-317" type="curve" smooth="yes"/>
      <point x="373" y="-389"/>
      <point x="430" y="-469"/>
      <point x="573" y="-469" type="curve" smooth="yes"/>
      <point x="823" y="-469"/>
      <point x="991" y="-305"/>
    </contour>
  </outline>
</glyph>
<glyph name="LtnSmLMiddleTilde" format="2">
  <advance width="745"/>
  <unicode hex="026B"/>
  <anchor x="372" y="-100" name="L"/>
  <anchor x="372" y="1540" name="U"/>
  <outline>
    <contour>
      <point x="123" y="0" type="line"/>
      <point x="621" y="0" type="line"/>
      <point x="621" y="80" type="line"/>
      <point x="512" y="88" type="line" smooth="yes"/>
      <point x="494" y="90"/>
      <point x="469" y="113"/>
      <point x="469" y="131" type="curve" smooth="yes"/>
      <point x="469" y="686" type="line"/>
      <point x="477" y="684"/>
      <point x="494" y="682"/>
      <point x="502" y="682" type="curve" smooth="yes"/>
      <point x="643" y="682"/>
      <point x="715" y="788"/>
      <point x="745" y="909" type="curve"/>
      <point x="659" y="909" type="line"/>
      <point x="653" y="860"/>
      <point x="604" y="811"/>
      <point x="547" y="811" type="curve" smooth="yes"/>
      <point x="516" y="811"/>
      <point x="492" y="815"/>
      <point x="469" y="823" type="curve"/>
      <point x="469" y="1509" type="line"/>
      <point x="385" y="1509" type="line"/>
      <point x="123" y="1430" type="line"/>
      <point x="123" y="1362" type="line"/>
      <point x="279" y="1362" type="line"/>
      <point x="279" y="907" type="line"/>
      <point x="270" y="909"/>
      <point x="252" y="909"/>
      <point x="244" y="909" type="curve" smooth="yes"/>
      <point x="102" y="909"/>
      <point x="31" y="805"/>
      <point x="0" y="684" type="curve"/>
      <point x="88" y="684" type="line"/>
      <point x="94" y="733"/>
      <point x="141" y="782"/>
      <point x="199" y="782" type="curve" smooth="yes"/>
      <point x="229" y="782"/>
      <point x="256" y="778"/>
      <point x="279" y="770" type="curve"/>
      <point x="279" y="131" type="line" smooth="yes"/>
      <point x="279" y="113"/>
      <point x="252" y="90"/>
      <point x="233" y="88" type="curve" smooth="yes"/>
      <point x="123" y="80" type="line"/>
    </contour>
  </outline>
</glyph>
<glyph name="LtnSmLBelt" format="2">
  <advance width="682"/>
  <unicode hex="026C"/>
  <anchor x="360" y="-100" name="L"/>
  <anchor x="360" y="1540" name="U"/>
  <outline>
    <contour>
      <point x="682" y="678" type="curve"/>
      <point x="633" y="739" type="line"/>
      <point x="584" y="686"/>
      <point x="537" y="653"/>
      <point x="453" y="633" type="curve"/>
      <point x="453" y="1509" type="line"/>
      <point x="371" y="1509" type="line"/>
      <point x="106" y="1430" type="line"/>
      <point x="106" y="1362" type="line"/>
      <point x="262" y="1362" type="line"/>
      <point x="262" y="961" type="line"/>
      <point x="231" y="977"/>
      <point x="201" y="983"/>
      <point x="168" y="983" type="curve" smooth="yes"/>
      <point x="80" y="983"/>
      <point x="-29" y="915"/>
      <point x="-29" y="784" type="curve" smooth="yes"/>
      <point x="-29" y="637"/>
      <point x="111" y="553"/>
      <point x="262" y="543" type="curve"/>
      <point x="262" y="131" type="line" smooth="yes"/>
      <point x="262" y="113"/>
      <point x="238" y="89"/>
      <point x="219" y="88" type="curve" smooth="yes"/>
      <point x="109" y="80" type="line"/>
      <point x="109" y="0" type="line"/>
      <point x="604" y="0" type="line"/>
      <point x="604" y="80" type="line"/>
      <point x="498" y="88" type="line" smooth="yes"/>
      <point x="479" y="89"/>
      <point x="453" y="113"/>
      <point x="453" y="131" type="curve" smooth="yes"/>
      <point x="453" y="545" type="line"/>
      <point x="539" y="563"/>
      <point x="618" y="614"/>
    </contour>
    <contour>
      <point x="262" y="631" type="line"/>
      <point x="160" y="645"/>
      <point x="72" y="684"/>
      <point x="72" y="788" type="curve" smooth="yes"/>
      <point x="72" y="846"/>
      <point x="106" y="895"/>
      <point x="172" y="895" type="curve" smooth="yes"/>
      <point x="205" y="895"/>
      <point x="240" y="887"/>
      <point x="262" y="858" type="curve"/>
    </contour>
  </outline>
</glyph>
<glyph name="LtnSmLRetrHook" format="2">
  <advance width="608"/>
  <unicode hex="026D"/>
  <anchor x="303" y="-500" name="L"/>
  <anchor x="303" y="1540" name="U"/>
  <outline>
    <contour>
      <point x="752" y="-332" type="curve" smooth="yes"/>
      <point x="752" y="-260"/>
      <point x="705" y="-229"/>
      <point x="666" y="-213" type="curve"/>
      <point x="496" y="-375" type="line"/>
      <point x="403" y="-322"/>
      <point x="397" y="-104"/>
      <point x="397" y="-14" type="curve" smooth="yes"/>
      <point x="397" y="1509" type="line"/>
      <point x="315" y="1509" type="line"/>
      <point x="53" y="1430" type="line"/>
      <point x="53" y="1362" type="line"/>
      <point x="209" y="1362" type="line"/>
      <point x="209" y="4" type="line" smooth="yes"/>
      <point x="209" y="-272"/>
      <point x="285" y="-469"/>
      <point x="557" y="-469" type="curve" smooth="yes"/>
      <point x="641" y="-469"/>
      <point x="752" y="-408"/>
    </contour>
  </outline>
</glyph>
<glyph name="LtnSmLezh" format="2">
  <advance width="1235"/>
  <unicode hex="026E"/>
  <anchor x="597" y="-500" name="L"/>
  <anchor x="660" y="1580" name="U"/>
  <outline>
    <contour>
      <point x="1165" y="10" type="curve" smooth="yes"/>
      <point x="1165" y="227"/>
      <point x="963" y="406"/>
      <point x="713" y="406" type="curve"/>
      <point x="1110" y="850" type="line"/>
      <point x="1110" y="987" type="line"/>
      <point x="375" y="987" type="line"/>
      <point x="375" y="1509" type="line"/>
      <point x="293" y="1509" type="line"/>
      <point x="29" y="1430" type="line"/>
      <point x="29" y="1362" type="line"/>
      <point x="184" y="1362" type="line"/>
      <point x="184" y="129" type="line" smooth="yes"/>
      <point x="184" y="111"/>
      <point x="160" y="90"/>
      <point x="139" y="88" type="curve" smooth="yes"/>
      <point x="31" y="80" type="line"/>
      <point x="31" y="0" type="line"/>
      <point x="528" y="0" type="line"/>
      <point x="528" y="80" type="line"/>
      <point x="420" y="88" type="line" smooth="yes"/>
      <point x="399" y="90"/>
      <point x="375" y="111"/>
      <point x="375" y="129" type="curve" smooth="yes"/>
      <point x="375" y="811" type="line"/>
      <point x="930" y="811" type="line"/>
      <point x="520" y="360" type="line"/>
      <point x="575" y="303" type="line"/>
      <point x="586" y="311"/>
      <point x="606" y="326"/>
      <point x="653" y="326" type="curve" smooth="yes"/>
      <point x="782" y="326"/>
      <point x="954" y="215"/>
      <point x="954" y="12" type="curve" smooth="yes"/>
      <point x="954" y="-154"/>
      <point x="831" y="-375"/>
      <point x="639" y="-375" type="curve" smooth="yes"/>
      <point x="573" y="-375"/>
      <point x="518" y="-352"/>
      <point x="463" y="-324" type="curve"/>
      <point x="399" y="-133" type="line"/>
      <point x="383" y="-121"/>
      <point x="348" y="-117"/>
      <point x="332" y="-117" type="curve" smooth="yes"/>
      <point x="250" y="-117"/>
      <point x="209" y="-182"/>
      <point x="209" y="-238" type="curve" smooth="yes"/>
      <point x="209" y="-336"/>
      <point x="356" y="-469"/>
      <point x="633" y="-469" type="curve" smooth="yes"/>
      <point x="930" y="-469"/>
      <point x="1165" y="-238"/>
    </contour>
  </outline>
</glyph>
<glyph name="LtnSmNLftHook" format="2">
  <advance width="1192"/>
  <unicode hex="0272"/>
  <anchor x="733" y="-100" name="L"/>
  <anchor x="607" y="1100" name="U"/>
  <outline>
    <contour>
      <point x="1151" y="0" type="line"/>
      <point x="1151" y="80" type="line"/>
      <point x="1061" y="86" type="line"/>
      <point x="1036" y="90"/>
      <point x="1018" y="106"/>
      <point x="1018" y="131" type="curve" smooth="yes"/>
      <point x="1018" y="696" type="line" smooth="yes"/>
      <point x="1018" y="895"/>
      <point x="922" y="1012"/>
      <point x="743" y="1012" type="curve" smooth="yes"/>
      <point x="649" y="1012"/>
      <point x="520" y="950"/>
      <point x="406" y="885" type="curve"/>
      <point x="406" y="987" type="line"/>
      <point x="322" y="987" type="line"/>
      <point x="72" y="909" type="line"/>
      <point x="72" y="842" type="line"/>
      <point x="215" y="842" type="line"/>
      <point x="215" y="-96" type="line" smooth="yes"/>
      <point x="215" y="-272"/>
      <point x="133" y="-373"/>
      <point x="72" y="-373" type="curve"/>
      <point x="-94" y="-201" type="line"/>
      <point x="-111" y="-201"/>
      <point x="-184" y="-252"/>
      <point x="-184" y="-336" type="curve" smooth="yes"/>
      <point x="-184" y="-397"/>
      <point x="-141" y="-469"/>
      <point x="-23" y="-469" type="curve" smooth="yes"/>
      <point x="190" y="-469"/>
      <point x="406" y="-336"/>
      <point x="406" y="-33" type="curve" smooth="yes"/>
      <point x="406" y="803" type="line"/>
      <point x="475" y="838"/>
      <point x="553" y="864"/>
      <point x="631" y="864" type="curve" smooth="yes"/>
      <point x="772" y="864"/>
      <point x="827" y="791"/>
      <point x="827" y="662" type="curve" smooth="yes"/>
      <point x="827" y="131" type="line" smooth="yes"/>
      <point x="827" y="106"/>
      <point x="809" y="90"/>
      <point x="784" y="86" type="curve"/>
      <point x="698" y="80" type="line"/>
      <point x="698" y="0" type="line"/>
    </contour>
  </outline>
</glyph>
<glyph name="LtnSmNRetrHook" format="2">
  <advance width="1161"/>
  <unicode hex="0273"/>
  <anchor x="433" y="-100" name="L"/>
  <anchor x="568" y="1100" name="U"/>
  <outline>
    <contour>
      <point x="1354" y="-340" type="curve" smooth="yes"/>
      <point x="1354" y="-270"/>
      <point x="1307" y="-209"/>
      <point x="1239" y="-209" type="curve"/>
      <point x="1071" y="-373" type="line"/>
      <point x="975" y="-342"/>
      <point x="973" y="-262"/>
      <point x="973" y="-63" type="curve" smooth="yes"/>
      <point x="973" y="696" type="line" smooth="yes"/>
      <point x="973" y="895"/>
      <point x="883" y="1012"/>
      <point x="705" y="1012" type="curve" smooth="yes"/>
      <point x="610" y="1012"/>
      <point x="489" y="950"/>
      <point x="375" y="885" type="curve"/>
      <point x="375" y="987" type="line"/>
      <point x="291" y="987" type="line"/>
      <point x="39" y="909" type="line"/>
      <point x="39" y="842" type="line"/>
      <point x="184" y="842" type="line"/>
      <point x="184" y="125" type="line" smooth="yes"/>
      <point x="184" y="109"/>
      <point x="160" y="90"/>
      <point x="143" y="88" type="curve" smooth="yes"/>
      <point x="41" y="78" type="line"/>
      <point x="41" y="0" type="line"/>
      <point x="504" y="0" type="line"/>
      <point x="504" y="78" type="line"/>
      <point x="416" y="88" type="line" smooth="yes"/>
      <point x="399" y="90"/>
      <point x="375" y="109"/>
      <point x="375" y="125" type="curve" smooth="yes"/>
      <point x="375" y="803" type="line"/>
      <point x="444" y="838"/>
      <point x="514" y="862"/>
      <point x="592" y="862" type="curve" smooth="yes"/>
      <point x="735" y="862"/>
      <point x="782" y="791"/>
      <point x="782" y="662" type="curve" smooth="yes"/>
      <point x="782" y="-33" type="line" smooth="yes"/>
      <point x="782" y="-279"/>
      <point x="897" y="-469"/>
      <point x="1174" y="-469" type="curve" smooth="yes"/>
      <point x="1292" y="-469"/>
      <point x="1354" y="-403"/>
    </contour>
  </outline>
</glyph>
<glyph name="LtnSmCapN" format="2">
  <advance width="1202"/>
  <unicode hex="0274"/>
  <anchor x="599" y="-100" name="L"/>
  <anchor x="599" y="1100" name="U"/>
  <outline>
    <contour>
      <point x="1155" y="907" type="line"/>
      <point x="1155" y="987" type="line"/>
      <point x="786" y="987" type="line"/>
      <point x="786" y="907" type="line"/>
      <point x="881" y="901" type="line" smooth="yes"/>
      <point x="903" y="899"/>
      <point x="913" y="885"/>
      <point x="913" y="870" type="curve" smooth="yes"/>
      <point x="913" y="248" type="line"/>
      <point x="387" y="942" type="line"/>
      <point x="387" y="987" type="line"/>
      <point x="43" y="987" type="line"/>
      <point x="43" y="907" type="line"/>
      <point x="143" y="901" type="line" smooth="yes"/>
      <point x="166" y="899"/>
      <point x="174" y="885"/>
      <point x="174" y="870" type="curve" smooth="yes"/>
      <point x="174" y="117" type="line" smooth="yes"/>
      <point x="174" y="102"/>
      <point x="166" y="88"/>
      <point x="143" y="86" type="curve" smooth="yes"/>
      <point x="49" y="80" type="line"/>
      <point x="49" y="0" type="line"/>
      <point x="420" y="0" type="line"/>
      <point x="420" y="80" type="line"/>
      <point x="326" y="86" type="line" smooth="yes"/>
      <point x="303" y="88"/>
      <point x="291" y="102"/>
      <point x="291" y="117" type="curve" smooth="yes"/>
      <point x="291" y="788" type="line"/>
      <point x="887" y="0" type="line"/>
      <point x="1028" y="0" type="line"/>
      <point x="1028" y="870" type="line" smooth="yes"/>
      <point x="1028" y="885"/>
      <point x="1040" y="899"/>
      <point x="1063" y="901" type="curve" smooth="yes"/>
    </contour>
  </outline>
</glyph>
<glyph name="LtnSmCapOe" format="2">
  <advance width="1679"/>
  <unicode hex="0276"/>
  <anchor x="840" y="-100" name="L"/>
  <anchor x="1679" y="1000" name="R"/>
  <anchor x="840" y="1100" name="U"/>
  <outline>
    <contour>
      <point x="559" y="-25" type="curve" smooth="yes"/>
      <point x="684" y="-25"/>
      <point x="784" y="10"/>
      <point x="862" y="68" type="curve"/>
      <point x="862" y="0" type="line"/>
      <point x="1610" y="0" type="line"/>
      <point x="1610" y="260" type="line"/>
      <point x="1501" y="260" type="line"/>
      <point x="1475" y="117" type="line"/>
      <point x="1473" y="98"/>
      <point x="1462" y="88"/>
      <point x="1444" y="88" type="curve" smooth="yes"/>
      <point x="1047" y="88" type="line"/>
      <point x="1047" y="469" type="line"/>
      <point x="1284" y="469" type="line" smooth="yes"/>
      <point x="1290" y="469"/>
      <point x="1303" y="457"/>
      <point x="1305" y="451" type="curve" smooth="yes"/>
      <point x="1321" y="342" type="line"/>
      <point x="1421" y="342" type="line"/>
      <point x="1421" y="684" type="line"/>
      <point x="1321" y="684" type="line"/>
      <point x="1305" y="578" type="line" smooth="yes"/>
      <point x="1303" y="571"/>
      <point x="1292" y="559"/>
      <point x="1284" y="559" type="curve" smooth="yes"/>
      <point x="1047" y="559" type="line"/>
      <point x="1047" y="899" type="line"/>
      <point x="1393" y="899" type="line" smooth="yes"/>
      <point x="1403" y="899"/>
      <point x="1411" y="891"/>
      <point x="1413" y="881" type="curve" smooth="yes"/>
      <point x="1438" y="756" type="line"/>
      <point x="1554" y="756" type="line"/>
      <point x="1554" y="987" type="line"/>
      <point x="862" y="987" type="line"/>
      <point x="862" y="920" type="line"/>
      <point x="784" y="977"/>
      <point x="682" y="1012"/>
      <point x="557" y="1012" type="curve" smooth="yes"/>
      <point x="223" y="1012"/>
      <point x="70" y="780"/>
      <point x="70" y="496" type="curve" smooth="yes"/>
      <point x="70" y="201"/>
      <point x="231" y="-25"/>
    </contour>
    <contour>
      <point x="555" y="76" type="curve" smooth="yes"/>
      <point x="334" y="76"/>
      <point x="279" y="262"/>
      <point x="279" y="496" type="curve" smooth="yes"/>
      <point x="279" y="725"/>
      <point x="332" y="909"/>
      <point x="559" y="909" type="curve" smooth="yes"/>
      <point x="778" y="909"/>
      <point x="838" y="729"/>
      <point x="838" y="492" type="curve" smooth="yes"/>
      <point x="838" y="262"/>
      <point x="782" y="76"/>
    </contour>
  </outline>
</glyph>
<glyph name="LtnSmClosedOmega" format="2">
  <advance width="1366"/>
  <unicode hex="0277"/>
  <anchor x="682" y="-100" name="L"/>
  <anchor x="1366" y="1000" name="R"/>
  <anchor x="682" y="1100" name="U"/>
  <outline>
    <contour>
      <point x="1294" y="412" type="curve" smooth="yes"/>
      <point x="1294" y="698"/>
      <point x="1112" y="1012"/>
      <point x="686" y="1012" type="curve" smooth="yes"/>
      <point x="254" y="1012"/>
      <point x="70" y="698"/>
      <point x="70" y="412" type="curve" smooth="yes"/>
      <point x="70" y="186"/>
      <point x="184" y="-25"/>
      <point x="385" y="-25" type="curve" smooth="yes"/>
      <point x="522" y="-25"/>
      <point x="649" y="47"/>
      <point x="684" y="201" type="curve"/>
      <point x="715" y="49"/>
      <point x="842" y="-25"/>
      <point x="981" y="-25" type="curve" smooth="yes"/>
      <point x="1182" y="-25"/>
      <point x="1294" y="184"/>
    </contour>
    <contour>
      <point x="1094" y="403" type="curve" smooth="yes"/>
      <point x="1094" y="246"/>
      <point x="1034" y="96"/>
      <point x="928" y="96" type="curve" smooth="yes"/>
      <point x="760" y="96"/>
      <point x="743" y="256"/>
      <point x="743" y="301" type="curve" smooth="yes"/>
      <point x="743" y="457"/>
      <point x="797" y="463"/>
      <point x="797" y="578" type="curve" smooth="yes"/>
      <point x="797" y="674"/>
      <point x="737" y="729"/>
      <point x="686" y="729" type="curve" smooth="yes"/>
      <point x="635" y="729"/>
      <point x="573" y="668"/>
      <point x="573" y="582" type="curve" smooth="yes"/>
      <point x="573" y="455"/>
      <point x="627" y="455"/>
      <point x="627" y="299" type="curve" smooth="yes"/>
      <point x="627" y="252"/>
      <point x="604" y="96"/>
      <point x="444" y="96" type="curve" smooth="yes"/>
      <point x="334" y="96"/>
      <point x="276" y="242"/>
      <point x="276" y="403" type="curve" smooth="yes"/>
      <point x="276" y="643"/>
      <point x="412" y="918"/>
      <point x="684" y="918" type="curve" smooth="yes"/>
      <point x="961" y="918"/>
      <point x="1094" y="645"/>
    </contour>
  </outline>
</glyph>
<glyph name="LtnSmTurnedR" format="2">
  <advance width="801"/>
  <unicode hex="0279"/>
  <anchor x="387" y="-100" name="L"/>
  <anchor x="387" y="1100" name="U"/>
  <outline>
    <contour>
      <point x="754" y="78" type="line"/>
      <point x="754" y="145" type="line"/>
      <point x="606" y="145" type="line"/>
      <point x="606" y="856" type="line" smooth="yes"/>
      <point x="606" y="881"/>
      <point x="625" y="899"/>
      <point x="649" y="901" type="curve" smooth="yes"/>
      <point x="750" y="909" type="line"/>
      <point x="750" y="987" type="line"/>
      <point x="238" y="987" type="line"/>
      <point x="238" y="907" type="line"/>
      <point x="373" y="901" type="line" smooth="yes"/>
      <point x="397" y="900"/>
      <point x="416" y="881"/>
      <point x="416" y="856" type="curve" smooth="yes"/>
      <point x="416" y="281" type="line"/>
      <point x="346" y="201"/>
      <point x="276" y="154"/>
      <point x="211" y="154" type="curve" smooth="yes"/>
      <point x="160" y="154"/>
      <point x="127" y="178"/>
      <point x="100" y="209" type="curve"/>
      <point x="20" y="209" type="line"/>
      <point x="20" y="6" type="line"/>
      <point x="47" y="-8"/>
      <point x="102" y="-25"/>
      <point x="145" y="-25" type="curve" smooth="yes"/>
      <point x="222" y="-25"/>
      <point x="307" y="56"/>
      <point x="416" y="182" type="curve"/>
      <point x="416" y="0" type="line"/>
      <point x="500" y="0" type="line"/>
    </contour>
  </outline>
</glyph>
<glyph name="LtnSmTurnedRLngLeg" format="2">
  <advance width="801"/>
  <unicode hex="027A"/>
  <anchor x="387" y="-100" name="L"/>
  <anchor x="387" y="1540" name="U"/>
  <outline>
    <contour>
      <point x="754" y="78" type="line"/>
      <point x="754" y="145" type="line"/>
      <point x="606" y="145" type="line"/>
      <point x="606" y="1509" type="line"/>
      <point x="522" y="1509" type="line"/>
      <point x="260" y="1430" type="line"/>
      <point x="260" y="1362" type="line"/>
      <point x="416" y="1362" type="line"/>
      <point x="416" y="281" type="line"/>
      <point x="346" y="201"/>
      <point x="276" y="154"/>
      <point x="211" y="154" type="curve" smooth="yes"/>
      <point x="160" y="154"/>
      <point x="127" y="178"/>
      <point x="100" y="209" type="curve"/>
      <point x="20" y="209" type="line"/>
      <point x="20" y="6" type="line"/>
      <point x="47" y="-8"/>
      <point x="102" y="-25"/>
      <point x="145" y="-25" type="curve" smooth="yes"/>
      <point x="242" y="-25"/>
      <point x="356" y="117"/>
      <point x="416" y="182" type="curve"/>
      <point x="416" y="0" type="line"/>
      <point x="500" y="0" type="line"/>
    </contour>
  </outline>
</glyph>
<glyph name="LtnSmCapR" format="2">
  <advance width="1071"/>
  <unicode hex="0280"/>
  <anchor x="555" y="-100" name="L"/>
  <anchor x="555" y="1100" name="U"/>
  <outline>
    <contour>
      <point x="963" y="-25" type="curve" smooth="yes"/>
      <point x="1012" y="-25"/>
      <point x="1038" y="-2"/>
      <point x="1061" y="0" type="curve"/>
      <point x="1061" y="76" type="line"/>
      <point x="903" y="76"/>
      <point x="882" y="149"/>
      <point x="854" y="252" type="curve" smooth="yes"/>
      <point x="823" y="367"/>
      <point x="788" y="442"/>
      <point x="659" y="481" type="curve"/>
      <point x="784" y="512"/>
      <point x="899" y="580"/>
      <point x="899" y="723" type="curve" smooth="yes"/>
      <point x="899" y="922"/>
      <point x="737" y="987"/>
      <point x="487" y="987" type="curve" smooth="yes"/>
      <point x="49" y="987" type="line"/>
      <point x="49" y="907" type="line"/>
      <point x="137" y="899" type="line" smooth="yes"/>
      <point x="164" y="897"/>
      <point x="172" y="889"/>
      <point x="172" y="868" type="curve" smooth="yes"/>
      <point x="172" y="119" type="line" smooth="yes"/>
      <point x="172" y="106"/>
      <point x="156" y="88"/>
      <point x="137" y="86" type="curve"/>
      <point x="49" y="80" type="line"/>
      <point x="49" y="0" type="line"/>
      <point x="477" y="0" type="line"/>
      <point x="477" y="80" type="line"/>
      <point x="389" y="86" type="line"/>
      <point x="369" y="88"/>
      <point x="354" y="104"/>
      <point x="354" y="119" type="curve" smooth="yes"/>
      <point x="354" y="430" type="line"/>
      <point x="369" y="432"/>
      <point x="395" y="432"/>
      <point x="420" y="432" type="curve" smooth="yes"/>
      <point x="590" y="432"/>
      <point x="635" y="365"/>
      <point x="680" y="217" type="curve" smooth="yes"/>
      <point x="715" y="104"/>
      <point x="760" y="-25"/>
    </contour>
    <contour>
      <point x="428" y="520" type="curve" smooth="yes"/>
      <point x="410" y="520"/>
      <point x="373" y="520"/>
      <point x="354" y="522" type="curve"/>
      <point x="354" y="897" type="line"/>
      <point x="375" y="899"/>
      <point x="422" y="897"/>
      <point x="422" y="897" type="curve"/>
      <point x="627" y="897"/>
      <point x="700" y="831"/>
      <point x="700" y="717" type="curve" smooth="yes"/>
      <point x="700" y="569"/>
      <point x="608" y="520"/>
    </contour>
  </outline>
</glyph>
<glyph name="LtnSmCapInvR" format="2">
  <advance width="1071"/>
  <unicode hex="0281"/>
  <anchor x="555" y="-100" name="L"/>
  <anchor x="555" y="1100" name="U"/>
  <outline>
    <contour>
      <point x="49" y="0" type="line"/>
      <point x="487" y="0" type="line" smooth="yes"/>
      <point x="737" y="0"/>
      <point x="899" y="66"/>
      <point x="899" y="264" type="curve" smooth="yes"/>
      <point x="899" y="408"/>
      <point x="784" y="475"/>
      <point x="659" y="506" type="curve"/>
      <point x="794" y="545"/>
      <point x="823" y="621"/>
      <point x="854" y="735" type="curve" smooth="yes"/>
      <point x="879" y="829"/>
      <point x="883" y="911"/>
      <point x="1061" y="911" type="curve"/>
      <point x="1061" y="987" type="line"/>
      <point x="1038" y="989"/>
      <point x="1012" y="1012"/>
      <point x="963" y="1012" type="curve" smooth="yes"/>
      <point x="750" y="1012"/>
      <point x="715" y="881"/>
      <point x="680" y="770" type="curve" smooth="yes"/>
      <point x="631" y="613"/>
      <point x="582" y="555"/>
      <point x="420" y="555" type="curve" smooth="yes"/>
      <point x="395" y="555"/>
      <point x="369" y="555"/>
      <point x="354" y="555" type="curve"/>
      <point x="354" y="879" type="line" smooth="yes"/>
      <point x="354" y="888"/>
      <point x="361" y="894"/>
      <point x="371" y="898" type="curve"/>
      <point x="477" y="907" type="line"/>
      <point x="477" y="987" type="line"/>
      <point x="49" y="987" type="line"/>
      <point x="49" y="907" type="line"/>
      <point x="151" y="899" type="line"/>
      <point x="164" y="896"/>
      <point x="172" y="889"/>
      <point x="172" y="879" type="curve" smooth="yes"/>
      <point x="172" y="109" type="line" smooth="yes"/>
      <point x="172" y="98"/>
      <point x="163" y="92"/>
      <point x="150" y="88" type="curve"/>
      <point x="49" y="80" type="line"/>
    </contour>
    <contour>
      <point x="354" y="66" type="curve"/>
      <point x="354" y="440" type="line"/>
      <point x="373" y="442"/>
      <point x="410" y="442"/>
      <point x="428" y="442" type="curve" smooth="yes"/>
      <point x="608" y="442"/>
      <point x="700" y="393"/>
      <point x="700" y="246" type="curve" smooth="yes"/>
      <point x="700" y="131"/>
      <point x="627" y="66"/>
      <point x="422" y="66" type="curve" smooth="yes"/>
      <point x="402" y="66"/>
      <point x="369" y="66"/>
    </contour>
  </outline>
</glyph>
<glyph name="LtnSmTurnedV" format="2">
  <advance width="1083"/>
  <unicode hex="028C"/>
  <anchor x="541" y="0" name="H"/>
  <anchor x="541" y="-100" name="L"/>
  <anchor x="991" y="0" name="O"/>
  <anchor x="1083" y="1000" name="R"/>
  <anchor x="541" y="1100" name="U"/>
  <outline>
    <contour>
      <point x="1063" y="0" type="line"/>
      <point x="1063" y="80" type="line"/>
      <point x="950" y="92" type="line"/>
      <point x="621" y="987" type="line"/>
      <point x="487" y="987" type="line"/>
      <point x="129" y="92" type="line"/>
      <point x="20" y="80" type="line"/>
      <point x="20" y="0" type="line"/>
      <point x="379" y="0" type="line"/>
      <point x="379" y="80" type="line"/>
      <point x="287" y="86" type="line" smooth="yes"/>
      <point x="264" y="88"/>
      <point x="250" y="111"/>
      <point x="258" y="131" type="curve" smooth="yes"/>
      <point x="510" y="772" type="line"/>
      <point x="739" y="131" type="line" smooth="yes"/>
      <point x="748" y="109"/>
      <point x="731" y="88"/>
      <point x="709" y="86" type="curve" smooth="yes"/>
      <point x="610" y="80" type="line"/>
      <point x="610" y="0" type="line"/>
    </contour>
  </outline>
</glyph>
<glyph name="LtnSmTurnedY" format="2">
  <advance width="1085"/>
  <unicode hex="028E"/>
  <anchor x="542" y="-100" name="L"/>
  <anchor x="542" y="1540" name="U"/>
  <outline>
    <contour>
      <point x="1065" y="0" type="line"/>
      <point x="1065" y="80" type="line"/>
      <point x="952" y="92" type="line"/>
      <point x="604" y="985" type="line"/>
      <point x="635" y="1075"/>
      <point x="678" y="1186"/>
      <point x="745" y="1253" type="curve"/>
      <point x="938" y="1165" type="line"/>
      <point x="985" y="1204"/>
      <point x="1004" y="1241"/>
      <point x="1004" y="1288" type="curve" smooth="yes"/>
      <point x="1004" y="1350"/>
      <point x="950" y="1407"/>
      <point x="854" y="1407" type="curve" smooth="yes"/>
      <point x="784" y="1407"/>
      <point x="725" y="1376"/>
      <point x="676" y="1327" type="curve" smooth="yes"/>
      <point x="590" y="1241"/>
      <point x="547" y="1116"/>
      <point x="520" y="1051" type="curve" smooth="yes"/>
      <point x="127" y="92" type="line"/>
      <point x="20" y="80" type="line"/>
      <point x="20" y="0" type="line"/>
      <point x="385" y="0" type="line"/>
      <point x="385" y="80" type="line"/>
      <point x="289" y="86" type="line" smooth="yes"/>
      <point x="266" y="88"/>
      <point x="252" y="111"/>
      <point x="260" y="131" type="curve" smooth="yes"/>
      <point x="504" y="735" type="line"/>
      <point x="741" y="131" type="line" smooth="yes"/>
      <point x="750" y="109"/>
      <point x="733" y="88"/>
      <point x="711" y="86" type="curve" smooth="yes"/>
      <point x="612" y="80" type="line"/>
      <point x="612" y="0" type="line"/>
    </contour>
  </outline>
</glyph>
<glyph name="LtnGlottalStop" format="2">
  <advance width="954"/>
  <unicode hex="0294"/>
  <anchor x="477" y="-100" name="L"/>
  <anchor x="954" y="1000" name="R"/>
  <anchor x="477" y="1540" name="U"/>
  <outline>
    <contour>
      <point x="874" y="1042" type="curve" smooth="yes"/>
      <point x="874" y="1266"/>
      <point x="690" y="1407"/>
      <point x="449" y="1407" type="curve" smooth="yes"/>
      <point x="225" y="1407"/>
      <point x="80" y="1282"/>
      <point x="80" y="1186" type="curve" smooth="yes"/>
      <point x="80" y="1126"/>
      <point x="106" y="1069"/>
      <point x="188" y="1069" type="curve" smooth="yes"/>
      <point x="218" y="1069"/>
      <point x="260" y="1086"/>
      <point x="279" y="1100" type="curve"/>
      <point x="334" y="1278" type="line"/>
      <point x="371" y="1305"/>
      <point x="412" y="1315"/>
      <point x="453" y="1315" type="curve" smooth="yes"/>
      <point x="563" y="1315"/>
      <point x="670" y="1202"/>
      <point x="670" y="1022" type="curve" smooth="yes"/>
      <point x="670" y="819"/>
      <point x="500" y="686"/>
      <point x="371" y="643" type="curve"/>
      <point x="371" y="131" type="line" smooth="yes"/>
      <point x="371" y="113"/>
      <point x="344" y="92"/>
      <point x="326" y="90" type="curve" smooth="yes"/>
      <point x="221" y="80" type="line"/>
      <point x="221" y="0" type="line"/>
      <point x="713" y="0" type="line"/>
      <point x="713" y="80" type="line"/>
      <point x="606" y="90" type="line" smooth="yes"/>
      <point x="588" y="92"/>
      <point x="561" y="113"/>
      <point x="561" y="131" type="curve" smooth="yes"/>
      <point x="561" y="625" type="line"/>
      <point x="674" y="676"/>
      <point x="874" y="782"/>
    </contour>
  </outline>
</glyph>
<glyph name="LtnSmCapGHook" format="2">
  <advance width="1161"/>
  <unicode hex="029B"/>
  <anchor x="582" y="-100" name="L"/>
  <anchor x="582" y="1300" name="U"/>
  <outline>
    <contour>
      <point x="649" y="-25" type="curve" smooth="yes"/>
      <point x="827" y="-25"/>
      <point x="997" y="37"/>
      <point x="1004" y="39" type="curve"/>
      <point x="1004" y="373" type="line" smooth="yes"/>
      <point x="1004" y="383"/>
      <point x="1010" y="393"/>
      <point x="1024" y="395" type="curve"/>
      <point x="1120" y="412" type="line"/>
      <point x="1120" y="492" type="line"/>
      <point x="678" y="492" type="line"/>
      <point x="678" y="412" type="line"/>
      <point x="797" y="395" type="line"/>
      <point x="811" y="393"/>
      <point x="819" y="383"/>
      <point x="819" y="373" type="curve" smooth="yes"/>
      <point x="819" y="98" type="line"/>
      <point x="774" y="90"/>
      <point x="729" y="78"/>
      <point x="682" y="78" type="curve" smooth="yes"/>
      <point x="434" y="78"/>
      <point x="276" y="233"/>
      <point x="276" y="508" type="curve" smooth="yes"/>
      <point x="276" y="774"/>
      <point x="434" y="911"/>
      <point x="666" y="911" type="curve" smooth="yes"/>
      <point x="741" y="911"/>
      <point x="801" y="891"/>
      <point x="831" y="879" type="curve" smooth="yes"/>
      <point x="844" y="872"/>
      <point x="856" y="860"/>
      <point x="858" y="848" type="curve" smooth="yes"/>
      <point x="885" y="711" type="line"/>
      <point x="1004" y="711" type="line"/>
      <point x="1004" y="958" type="line" smooth="yes"/>
      <point x="1004" y="1145"/>
      <point x="1014" y="1223"/>
      <point x="1063" y="1251" type="curve"/>
      <point x="1251" y="1118" type="line"/>
      <point x="1309" y="1137"/>
      <point x="1356" y="1167"/>
      <point x="1356" y="1237" type="curve" smooth="yes"/>
      <point x="1356" y="1307"/>
      <point x="1290" y="1368"/>
      <point x="1169" y="1368" type="curve" smooth="yes"/>
      <point x="961" y="1368"/>
      <point x="850" y="1208"/>
      <point x="848" y="987" type="curve"/>
      <point x="788" y="997"/>
      <point x="729" y="1012"/>
      <point x="672" y="1012" type="curve" smooth="yes"/>
      <point x="299" y="1012"/>
      <point x="70" y="811"/>
      <point x="70" y="500" type="curve" smooth="yes"/>
      <point x="70" y="225"/>
      <point x="279" y="-25"/>
    </contour>
  </outline>
</glyph>
<glyph name="LtnSmCapH" format="2">
  <advance width="1237"/>
  <unicode hex="029C"/>
  <anchor x="620" y="-100" name="L"/>
  <anchor x="620" y="1100" name="U"/>
  <outline>
    <contour>
      <point x="1198" y="0" type="line"/>
      <point x="1198" y="80" type="line"/>
      <point x="1100" y="86" type="line" smooth="yes"/>
      <point x="1077" y="88"/>
      <point x="1065" y="102"/>
      <point x="1065" y="117" type="curve" smooth="yes"/>
      <point x="1065" y="870" type="line" smooth="yes"/>
      <point x="1065" y="885"/>
      <point x="1077" y="899"/>
      <point x="1100" y="901" type="curve" smooth="yes"/>
      <point x="1198" y="907" type="line"/>
      <point x="1198" y="987" type="line"/>
      <point x="748" y="987" type="line"/>
      <point x="748" y="907" type="line"/>
      <point x="848" y="901" type="line" smooth="yes"/>
      <point x="870" y="899"/>
      <point x="881" y="885"/>
      <point x="881" y="870" type="curve" smooth="yes"/>
      <point x="881" y="563" type="line"/>
      <point x="358" y="563" type="line"/>
      <point x="358" y="870" type="line" smooth="yes"/>
      <point x="358" y="885"/>
      <point x="371" y="899"/>
      <point x="393" y="901" type="curve" smooth="yes"/>
      <point x="494" y="907" type="line"/>
      <point x="494" y="987" type="line"/>
      <point x="43" y="987" type="line"/>
      <point x="43" y="907" type="line"/>
      <point x="143" y="901" type="line" smooth="yes"/>
      <point x="166" y="899"/>
      <point x="174" y="885"/>
      <point x="174" y="870" type="curve" smooth="yes"/>
      <point x="174" y="117" type="line" smooth="yes"/>
      <point x="174" y="102"/>
      <point x="166" y="88"/>
      <point x="143" y="86" type="curve" smooth="yes"/>
      <point x="43" y="80" type="line"/>
      <point x="43" y="0" type="line"/>
      <point x="494" y="0" type="line"/>
      <point x="494" y="80" type="line"/>
      <point x="393" y="86" type="line" smooth="yes"/>
      <point x="371" y="88"/>
      <point x="358" y="102"/>
      <point x="358" y="117" type="curve" smooth="yes"/>
      <point x="358" y="473" type="line"/>
      <point x="881" y="473" type="line"/>
      <point x="881" y="117" type="line" smooth="yes"/>
      <point x="881" y="102"/>
      <point x="870" y="88"/>
      <point x="848" y="86" type="curve" smooth="yes"/>
      <point x="748" y="80" type="line"/>
      <point x="748" y="0" type="line"/>
    </contour>
  </outline>
</glyph>
<glyph name="LtnSmQHook" format="2">
  <advance width="1134"/>
  <unicode hex="02A0"/>
  <anchor x="349" y="-100" name="L"/>
  <anchor x="582" y="1100" name="U"/>
  <outline>
    <contour>
      <point x="598" y="-446" type="line"/>
      <point x="1094" y="-446" type="line"/>
      <point x="1094" y="-369" type="line"/>
      <point x="993" y="-358" type="line" smooth="yes"/>
      <point x="971" y="-356"/>
      <point x="952" y="-342"/>
      <point x="952" y="-319" type="curve" smooth="yes"/>
      <point x="952" y="900" type="line" smooth="yes"/>
      <point x="952" y="1134"/>
      <point x="962" y="1186"/>
      <point x="1010" y="1231" type="curve"/>
      <point x="1192" y="1090" type="line"/>
      <point x="1206" y="1090"/>
      <point x="1284" y="1123"/>
      <point x="1284" y="1205" type="curve" smooth="yes"/>
      <point x="1284" y="1270"/>
      <point x="1224" y="1330"/>
      <point x="1108" y="1330" type="curve" smooth="yes"/>
      <point x="903" y="1330"/>
      <point x="762" y="1204"/>
      <point x="762" y="996" type="curve"/>
      <point x="726" y="1004"/>
      <point x="683" y="1012"/>
      <point x="651" y="1012" type="curve" smooth="yes"/>
      <point x="285" y="1012"/>
      <point x="70" y="797"/>
      <point x="70" y="467" type="curve" smooth="yes"/>
      <point x="70" y="195"/>
      <point x="225" y="-25"/>
      <point x="477" y="-25" type="curve" smooth="yes"/>
      <point x="569" y="-25"/>
      <point x="686" y="27"/>
      <point x="762" y="63" type="curve"/>
      <point x="762" y="-319" type="line" smooth="yes"/>
      <point x="762" y="-340"/>
      <point x="745" y="-356"/>
      <point x="723" y="-358" type="curve" smooth="yes"/>
      <point x="598" y="-367" type="line"/>
    </contour>
    <contour>
      <point x="586" y="96" type="curve" smooth="yes"/>
      <point x="365" y="96"/>
      <point x="276" y="291"/>
      <point x="276" y="502" type="curve" smooth="yes"/>
      <point x="276" y="752"/>
      <point x="397" y="918"/>
      <point x="621" y="918" type="curve" smooth="yes"/>
      <point x="676" y="918"/>
      <point x="725" y="905"/>
      <point x="762" y="895" type="curve"/>
      <point x="762" y="135" type="line"/>
      <point x="717" y="119"/>
      <point x="637" y="96"/>
    </contour>
  </outline>
</glyph>
